AmstelvarA2-Roman_opsz144.ufo
<glyph name="exclam" format="2">
  <advance width="515"/>
  <unicode hex="0021"/>
  <outline>
    <contour>
      <point x="122" y="114" type="qcurve" smooth="yes"/>
      <point x="122" y="168"/>
      <point x="198" y="249"/>
      <point x="258" y="249" type="qcurve" smooth="yes"/>
      <point x="317" y="249"/>
      <point x="393" y="168"/>
      <point x="393" y="114" type="qcurve" smooth="yes"/>
      <point x="393" y="60"/>
      <point x="317" y="-21"/>
      <point x="258" y="-21" type="qcurve" smooth="yes"/>
      <point x="198" y="-21"/>
      <point x="122" y="60"/>
    </contour>
    <contour>
      <point x="170" y="1391" type="line" smooth="yes"/>
      <point x="167" y="1459"/>
      <point x="204" y="1546"/>
      <point x="256" y="1547" type="qcurve" smooth="yes"/>
      <point x="307" y="1548"/>
      <point x="348" y="1461"/>
      <point x="345" y="1392" type="qcurve" smooth="yes"/>
      <point x="335" y="1108" type="line"/>
      <point x="268" y="800" type="line"/>
      <point x="268" y="435" type="line"/>
      <point x="246" y="435" type="line"/>
      <point x="246" y="800" type="line"/>
      <point x="180" y="1108" type="line"/>
    </contour>
  </outline>
</glyph>
<glyph name="quotedbl" format="2">
  <advance width="956"/>
  <unicode hex="0022"/>
  <outline>
    <contour>
      <point x="280" y="964" type="line"/>
      <point x="175" y="1431" type="line"/>
      <point x="175" y="1476"/>
      <point x="233" y="1558"/>
      <point x="292" y="1558" type="qcurve" smooth="yes"/>
      <point x="351" y="1558"/>
      <point x="409" y="1476"/>
      <point x="409" y="1431" type="qcurve"/>
      <point x="302" y="964" type="line"/>
    </contour>
    <contour>
      <point x="652" y="964" type="line"/>
      <point x="547" y="1431" type="line"/>
      <point x="547" y="1476"/>
      <point x="604" y="1558"/>
      <point x="664" y="1558" type="qcurve" smooth="yes"/>
      <point x="723" y="1558"/>
      <point x="780" y="1476"/>
      <point x="780" y="1431" type="qcurve"/>
      <point x="673" y="964" type="line"/>
    </contour>
  </outline>
</glyph>
<glyph name="ampersand" format="2">
  <advance width="1456"/>
  <unicode hex="0026"/>
  <outline>
    <contour>
      <point x="520" y="-28" type="qcurve" smooth="yes"/>
      <point x="278" y="-28"/>
      <point x="54" y="216"/>
      <point x="59" y="374" type="qcurve" smooth="yes"/>
      <point x="63" y="490"/>
      <point x="256" y="769"/>
      <point x="530" y="904" type="qcurve"/>
      <point x="674" y="961"/>
      <point x="829" y="1131"/>
      <point x="829" y="1230" type="qcurve" smooth="yes"/>
      <point x="829" y="1346"/>
      <point x="684" y="1492"/>
      <point x="580" y="1492" type="qcurve" smooth="yes"/>
      <point x="510" y="1492"/>
      <point x="390" y="1353"/>
      <point x="390" y="1209" type="qcurve" smooth="yes"/>
      <point x="390" y="1092"/>
      <point x="512" y="942"/>
      <point x="596" y="914" type="qcurve"/>
      <point x="1038" y="268" type="line" smooth="yes"/>
      <point x="1091" y="191"/>
      <point x="1226" y="1"/>
      <point x="1243" y="1" type="qcurve" smooth="yes"/>
      <point x="1293" y="1"/>
      <point x="1396" y="76"/>
      <point x="1430" y="126" type="qcurve"/>
      <point x="1444" y="113" type="line"/>
      <point x="1401" y="42"/>
      <point x="1283" y="-36"/>
      <point x="1203" y="-37" type="qcurve" smooth="yes"/>
      <point x="1119" y="-38"/>
      <point x="1002" y="33"/>
      <point x="906" y="172" type="qcurve" smooth="yes"/>
      <point x="458" y="835" type="line"/>
      <point x="377" y="860"/>
      <point x="230" y="1056"/>
      <point x="236" y="1185" type="qcurve" smooth="yes"/>
      <point x="242" y="1316"/>
      <point x="410" y="1516"/>
      <point x="562" y="1516" type="qcurve" smooth="yes"/>
      <point x="704" y="1516"/>
      <point x="869" y="1362"/>
      <point x="869" y="1219" type="qcurve" smooth="yes"/>
      <point x="869" y="1113"/>
      <point x="682" y="948"/>
      <point x="543" y="901" type="qcurve"/>
      <point x="390" y="785"/>
      <point x="256" y="563"/>
      <point x="246" y="403" type="qcurve" smooth="yes"/>
      <point x="235" y="224"/>
      <point x="388" y="72"/>
      <point x="540" y="72" type="qcurve" smooth="yes"/>
      <point x="819" y="72"/>
      <point x="1279" y="564"/>
      <point x="1401" y="866" type="qcurve"/>
      <point x="1418" y="860" type="line"/>
      <point x="1298" y="553"/>
      <point x="805" y="-28"/>
    </contour>
    <contour>
      <point x="1002" y="803" type="line"/>
      <point x="1012" y="882"/>
      <point x="1065" y="977"/>
      <point x="1109" y="977" type="qcurve" smooth="yes"/>
      <point x="1151" y="977"/>
      <point x="1289" y="898"/>
      <point x="1324" y="898" type="qcurve" smooth="yes"/>
      <point x="1352" y="898"/>
      <point x="1391" y="902"/>
      <point x="1417" y="923" type="qcurve"/>
      <point x="1436" y="899" type="line"/>
      <point x="1391" y="802"/>
      <point x="1338" y="765"/>
      <point x="1298" y="766" type="qcurve" smooth="yes"/>
      <point x="1282" y="766"/>
      <point x="1167" y="836"/>
      <point x="1130" y="836" type="qcurve" smooth="yes"/>
      <point x="1093" y="836"/>
      <point x="1033" y="811"/>
      <point x="1011" y="790" type="qcurve"/>
    </contour>
  </outline>
</glyph>
<glyph name="parenleft" format="2">
  <advance width="585"/>
  <unicode hex="0028"/>
  <outline>
    <contour>
      <point x="68" y="521" type="qcurve" smooth="yes"/>
      <point x="68" y="816"/>
      <point x="378" y="1389"/>
      <point x="551" y="1526" type="qcurve"/>
      <point x="565" y="1510" type="line"/>
      <point x="424" y="1358"/>
      <point x="250" y="853"/>
      <point x="250" y="522" type="qcurve" smooth="yes"/>
      <point x="250" y="191"/>
      <point x="422" y="-314"/>
      <point x="565" y="-467" type="qcurve"/>
      <point x="551" y="-485" type="line"/>
      <point x="378" y="-348"/>
      <point x="68" y="213"/>
    </contour>
  </outline>
</glyph>
<glyph name="asterisk" format="2">
  <advance width="864"/>
  <unicode hex="002A"/>
  <outline>
    <contour>
      <point x="432" y="664" type="qcurve" smooth="yes"/>
      <point x="377" y="664"/>
      <point x="330" y="741"/>
      <point x="344" y="788" type="qcurve" smooth="yes"/>
      <point x="428" y="1102" type="line"/>
      <point x="427" y="1103" type="line"/>
      <point x="197" y="873" type="line" smooth="yes"/>
      <point x="169" y="844"/>
      <point x="74" y="836"/>
      <point x="45" y="888" type="qcurve" smooth="yes"/>
      <point x="15" y="939"/>
      <point x="70" y="1016"/>
      <point x="109" y="1025" type="qcurve" smooth="yes"/>
      <point x="423" y="1110" type="line"/>
      <point x="422" y="1111" type="line"/>
      <point x="109" y="1197" type="line" smooth="yes"/>
      <point x="70" y="1207"/>
      <point x="15" y="1284"/>
      <point x="45" y="1335" type="qcurve" smooth="yes"/>
      <point x="74" y="1386"/>
      <point x="169" y="1378"/>
      <point x="197" y="1349" type="qcurve" smooth="yes"/>
      <point x="427" y="1119" type="line"/>
      <point x="427" y="1120" type="line"/>
      <point x="344" y="1434" type="line" smooth="yes"/>
      <point x="330" y="1484"/>
      <point x="379" y="1558"/>
      <point x="432" y="1558" type="qcurve" smooth="yes"/>
      <point x="488" y="1558"/>
      <point x="534" y="1481"/>
      <point x="520" y="1434" type="qcurve" smooth="yes"/>
      <point x="437" y="1120" type="line"/>
      <point x="437" y="1119" type="line"/>
      <point x="668" y="1349" type="line" smooth="yes"/>
      <point x="695" y="1378"/>
      <point x="790" y="1386"/>
      <point x="819" y="1334" type="qcurve" smooth="yes"/>
      <point x="849" y="1283"/>
      <point x="796" y="1206"/>
      <point x="755" y="1197" type="qcurve" smooth="yes"/>
      <point x="441" y="1112" type="line"/>
      <point x="442" y="1111" type="line"/>
      <point x="755" y="1025" type="line" smooth="yes"/>
      <point x="796" y="1016"/>
      <point x="849" y="939"/>
      <point x="819" y="887" type="qcurve" smooth="yes"/>
      <point x="790" y="836"/>
      <point x="695" y="844"/>
      <point x="668" y="873" type="qcurve" smooth="yes"/>
      <point x="438" y="1103" type="line"/>
      <point x="437" y="1102" type="line"/>
      <point x="520" y="788" type="line" smooth="yes"/>
      <point x="533" y="741"/>
      <point x="491" y="664"/>
    </contour>
  </outline>
</glyph>
<glyph name="comma" format="2">
  <advance width="584"/>
  <unicode hex="002C"/>
  <outline>
    <contour>
      <point x="172" y="-262" type="line"/>
      <point x="226" y="-232"/>
      <point x="354" y="-94"/>
      <point x="382" y="-6" type="qcurve"/>
      <point x="280" y="-23"/>
      <point x="159" y="38"/>
      <point x="159" y="115" type="qcurve" smooth="yes"/>
      <point x="159" y="169"/>
      <point x="235" y="250"/>
      <point x="294" y="250" type="qcurve" smooth="yes"/>
      <point x="350" y="250"/>
      <point x="430" y="179"/>
      <point x="430" y="106" type="qcurve" smooth="yes"/>
      <point x="430" y="-12"/>
      <point x="279" y="-219"/>
      <point x="183" y="-277" type="qcurve"/>
    </contour>
  </outline>
</glyph>
<glyph name="hyphen" format="2">
  <advance width="717"/>
  <unicode hex="002D"/>
  <outline>
    <contour>
      <point x="80" y="621" type="line"/>
      <point x="80" y="653" type="line"/>
      <point x="359" y="652" type="line"/>
      <point x="637" y="653" type="line"/>
      <point x="637" y="621" type="line"/>
      <point x="359" y="621" type="line"/>
    </contour>
  </outline>
</glyph>
<glyph name="period" format="2">
  <advance width="501"/>
  <unicode hex="002E"/>
  <outline>
    <contour>
      <point x="115" y="114" type="qcurve" smooth="yes"/>
      <point x="115" y="168"/>
      <point x="191" y="249"/>
      <point x="251" y="249" type="qcurve" smooth="yes"/>
      <point x="310" y="249"/>
      <point x="386" y="168"/>
      <point x="386" y="114" type="qcurve" smooth="yes"/>
      <point x="386" y="60"/>
      <point x="310" y="-21"/>
      <point x="251" y="-21" type="qcurve"/>
      <point x="191" y="-21"/>
      <point x="115" y="60"/>
    </contour>
  </outline>
</glyph>
<glyph name="three" format="2">
  <advance width="902"/>
  <unicode hex="0033"/>
  <outline>
    <contour>
      <point x="3" y="143" type="qcurve"/>
      <point x="19" y="165" type="line"/>
      <point x="81" y="93"/>
      <point x="291" y="5"/>
      <point x="397" y="5" type="qcurve" smooth="yes"/>
      <point x="517" y="5"/>
      <point x="671" y="187"/>
      <point x="671" y="377" type="qcurve" smooth="yes"/>
      <point x="671" y="587"/>
      <point x="451" y="778"/>
      <point x="282" y="781" type="qcurve" smooth="yes"/>
      <point x="222" y="781" type="line"/>
      <point x="218" y="804" type="line"/>
      <point x="297" y="809" type="line" smooth="yes"/>
      <point x="461" y="819"/>
      <point x="641" y="1039"/>
      <point x="641" y="1218" type="qcurve" smooth="yes"/>
      <point x="641" y="1353"/>
      <point x="519" y="1497"/>
      <point x="420" y="1497" type="qcurve" smooth="yes"/>
      <point x="314" y="1497"/>
      <point x="147" y="1404"/>
      <point x="80" y="1321" type="qcurve"/>
      <point x="66" y="1344" type="line"/>
      <point x="136" y="1427"/>
      <point x="318" y="1524"/>
      <point x="447" y="1524" type="qcurve" smooth="yes"/>
      <point x="617" y="1524"/>
      <point x="815" y="1336"/>
      <point x="815" y="1187" type="qcurve" smooth="yes"/>
      <point x="815" y="1030"/>
      <point x="649" y="846"/>
      <point x="497" y="802" type="qcurve"/>
      <point x="496" y="795" type="line"/>
      <point x="649" y="768"/>
      <point x="848" y="555"/>
      <point x="848" y="381" type="qcurve" smooth="yes"/>
      <point x="848" y="190"/>
      <point x="601" y="-22"/>
      <point x="403" y="-22" type="qcurve" smooth="yes"/>
      <point x="288" y="-22"/>
      <point x="72" y="67"/>
    </contour>
  </outline>
</glyph>
<glyph name="four" format="2">
  <advance width="1111"/>
  <unicode hex="0034"/>
  <outline>
    <contour>
      <point x="48" y="555" type="line"/>
      <point x="711" y="1551" type="line"/>
      <point x="802" y="1514" type="line"/>
      <point x="832" y="1498" type="line"/>
      <point x="826" y="528" type="line"/>
      <point x="826" y="59" type="line"/>
      <point x="1018" y="24" type="line"/>
      <point x="1018" y="0" type="line"/>
      <point x="460" y="0" type="line"/>
      <point x="460" y="24" type="line"/>
      <point x="661" y="59" type="line"/>
      <point x="670" y="526" type="line"/>
      <point x="670" y="1432" type="line"/>
      <point x="89" y="574" type="line"/>
      <point x="95" y="564" type="line"/>
      <point x="1071" y="539" type="line"/>
      <point x="1071" y="518" type="line"/>
      <point x="68" y="514" type="line"/>
    </contour>
  </outline>
</glyph>
<glyph name="six" format="2">
  <advance width="1030"/>
  <unicode hex="0036"/>
  <outline>
    <contour>
      <point x="55" y="621" type="qcurve" smooth="yes"/>
      <point x="55" y="949"/>
      <point x="446" y="1465"/>
      <point x="772" y="1583" type="qcurve"/>
      <point x="783" y="1564" type="line"/>
      <point x="527" y="1460"/>
      <point x="226" y="1011"/>
      <point x="226" y="618" type="qcurve" smooth="yes"/>
      <point x="226" y="317"/>
      <point x="414" y="3"/>
      <point x="557" y="3" type="qcurve" smooth="yes"/>
      <point x="667" y="3"/>
      <point x="810" y="252"/>
      <point x="810" y="458" type="qcurve" smooth="yes"/>
      <point x="810" y="660"/>
      <point x="652" y="861"/>
      <point x="527" y="861" type="qcurve" smooth="yes"/>
      <point x="485" y="861"/>
      <point x="404" y="842"/>
      <point x="358" y="817" type="qcurve"/>
      <point x="353" y="835" type="line"/>
      <point x="387" y="871"/>
      <point x="513" y="928"/>
      <point x="588" y="928" type="qcurve" smooth="yes"/>
      <point x="770" y="928"/>
      <point x="991" y="688"/>
      <point x="991" y="520" type="qcurve" smooth="yes"/>
      <point x="991" y="259"/>
      <point x="743" y="-22"/>
      <point x="559" y="-22" type="qcurve" smooth="yes"/>
      <point x="339" y="-22"/>
      <point x="55" y="338"/>
    </contour>
  </outline>
</glyph>
<glyph name="seven" format="2">
  <advance width="890"/>
  <unicode hex="0037"/>
  <outline>
    <contour>
      <point x="61" y="1163" type="line"/>
      <point x="80" y="1504" type="line"/>
      <point x="910" y="1504" type="line"/>
      <point x="910" y="1418" type="line"/>
      <point x="599" y="627" type="line"/>
      <point x="421" y="-13" type="line"/>
      <point x="228" y="-13" type="line"/>
      <point x="228" y="57" type="line"/>
      <point x="521" y="654" type="line"/>
      <point x="850" y="1324" type="line"/>
      <point x="820" y="1347" type="line"/>
      <point x="122" y="1347" type="line"/>
      <point x="94" y="1163" type="line"/>
    </contour>
  </outline>
</glyph>
<glyph name="nine" format="2">
  <advance width="1063"/>
  <unicode hex="0039"/>
  <outline>
    <contour>
      <point x="51" y="1005" type="qcurve" smooth="yes"/>
      <point x="51" y="1237"/>
      <point x="297" y="1523"/>
      <point x="483" y="1523" type="qcurve" smooth="yes"/>
      <point x="707" y="1523"/>
      <point x="989" y="1161"/>
      <point x="989" y="875" type="qcurve" smooth="yes"/>
      <point x="989" y="547"/>
      <point x="595" y="33"/>
      <point x="270" y="-85" type="qcurve"/>
      <point x="258" y="-67" type="line"/>
      <point x="516" y="38"/>
      <point x="808" y="486"/>
      <point x="808" y="878" type="qcurve" smooth="yes"/>
      <point x="808" y="1179"/>
      <point x="618" y="1498"/>
      <point x="490" y="1498" type="qcurve" smooth="yes"/>
      <point x="350" y="1498"/>
      <point x="224" y="1239"/>
      <point x="224" y="1038" type="qcurve" smooth="yes"/>
      <point x="224" y="836"/>
      <point x="375" y="635"/>
      <point x="510" y="635" type="qcurve" smooth="yes"/>
      <point x="553" y="635"/>
      <point x="639" y="652"/>
      <point x="685" y="678" type="qcurve"/>
      <point x="688" y="661" type="line"/>
      <point x="654" y="623"/>
      <point x="544" y="568"/>
      <point x="457" y="568" type="qcurve" smooth="yes"/>
      <point x="273" y="568"/>
      <point x="51" y="808"/>
    </contour>
  </outline>
</glyph>
<glyph name="less" format="2">
  <advance width="970"/>
  <unicode hex="003C"/>
  <outline>
    <contour>
      <point x="198" y="634" type="qcurve"/>
      <point x="201" y="638"/>
      <point x="742" y="1066"/>
      <point x="751" y="1082" type="qcurve" smooth="yes"/>
      <point x="759" y="1099"/>
      <point x="785" y="1090"/>
      <point x="777" y="1073" type="qcurve" smooth="yes"/>
      <point x="759" y="1031"/>
      <point x="420" y="637"/>
      <point x="416" y="637" type="qcurve"/>
      <point x="420" y="637"/>
      <point x="767" y="252"/>
      <point x="785" y="211" type="qcurve" smooth="yes"/>
      <point x="793" y="194"/>
      <point x="768" y="184"/>
      <point x="759" y="200" type="qcurve" smooth="yes"/>
      <point x="750" y="218"/>
      <point x="200" y="630"/>
    </contour>
  </outline>
</glyph>
<glyph name="equal" format="2">
  <advance width="910"/>
  <unicode hex="003D"/>
  <outline>
    <contour>
      <point x="80" y="339" type="line"/>
      <point x="80" y="500" type="line"/>
      <point x="453" y="496" type="line"/>
      <point x="830" y="500" type="line"/>
      <point x="830" y="339" type="line"/>
      <point x="453" y="343" type="line"/>
    </contour>
    <contour>
      <point x="80" y="741" type="line"/>
      <point x="80" y="902" type="line"/>
      <point x="453" y="898" type="line"/>
      <point x="830" y="902" type="line"/>
      <point x="830" y="741" type="line"/>
      <point x="453" y="745" type="line"/>
    </contour>
  </outline>
</glyph>
<glyph name="A" format="2">
  <advance width="1330"/>
  <unicode hex="0041"/>
  <anchor x="532" y="0" name="bottom"/>
  <anchor x="1112" y="0" name="ogonek"/>
  <anchor x="286" y="1500" name="tonos"/>
  <anchor x="547" y="1500" name="top"/>
  <outline>
    <contour>
      <point x="28" y="0" type="line"/>
      <point x="28" y="24" type="line"/>
      <point x="146" y="59" type="line"/>
      <point x="321" y="540" type="line"/>
      <point x="647" y="1508" type="line"/>
      <point x="722" y="1508" type="line"/>
      <point x="1050" y="567" type="line"/>
      <point x="1238" y="59" type="line"/>
      <point x="1347" y="24" type="line"/>
      <point x="1347" y="0" type="line"/>
      <point x="881" y="0" type="line"/>
      <point x="881" y="24" type="line"/>
      <point x="1050" y="55" type="line"/>
      <point x="900" y="513" type="line"/>
      <point x="654" y="1204" type="line"/>
      <point x="621" y="1318" type="line"/>
      <point x="614" y="1318" type="line"/>
      <point x="576" y="1204" type="line"/>
      <point x="340" y="503" type="line"/>
      <point x="202" y="54" type="line"/>
      <point x="366" y="24" type="line"/>
      <point x="366" y="0" type="line"/>
    </contour>
    <contour>
      <point x="654" y="528" type="line"/>
      <point x="970" y="539" type="line"/>
      <point x="978" y="504" type="line"/>
      <point x="654" y="504" type="line"/>
    </contour>
    <contour>
      <point x="331" y="507" type="line"/>
      <point x="338" y="538" type="line"/>
      <point x="654" y="528" type="line"/>
      <point x="654" y="504" type="line"/>
    </contour>
  </outline>
</glyph>
<glyph name="B" format="2">
  <advance width="1126"/>
  <unicode hex="0042"/>
  <anchor x="589" y="0" name="bottom"/>
  <anchor x="589" y="1500" name="top"/>
  <outline>
    <contour>
      <point x="104" y="0" type="line"/>
      <point x="104" y="24" type="line"/>
      <point x="268" y="60" type="line"/>
      <point x="270" y="784" type="line"/>
      <point x="268" y="1439" type="line"/>
      <point x="104" y="1473" type="line"/>
      <point x="104" y="1500" type="line"/>
      <point x="617" y="1500" type="line" smooth="yes"/>
      <point x="811" y="1500"/>
      <point x="997" y="1315"/>
      <point x="997" y="1172" type="qcurve" smooth="yes"/>
      <point x="997" y="1037"/>
      <point x="877" y="855"/>
      <point x="769" y="831" type="qcurve"/>
      <point x="769" y="821" type="line"/>
      <point x="898" y="795"/>
      <point x="1077" y="603"/>
      <point x="1077" y="433" type="qcurve" smooth="yes"/>
      <point x="1077" y="246"/>
      <point x="840" y="0"/>
      <point x="631" y="0" type="qcurve" smooth="yes"/>
    </contour>
    <contour>
      <point x="436" y="51" type="line"/>
      <point x="469" y="26" type="line"/>
      <point x="589" y="26" type="line" smooth="yes"/>
      <point x="750" y="26"/>
      <point x="903" y="216"/>
      <point x="903" y="421" type="qcurve" smooth="yes"/>
      <point x="903" y="596"/>
      <point x="770" y="783"/>
      <point x="646" y="783" type="qcurve" smooth="yes"/>
      <point x="444" y="783" type="line"/>
      <point x="436" y="766" type="line"/>
    </contour>
    <contour>
      <point x="435" y="825" type="line"/>
      <point x="444" y="808" type="line"/>
      <point x="579" y="808" type="line" smooth="yes"/>
      <point x="703" y="808"/>
      <point x="829" y="986"/>
      <point x="829" y="1164" type="qcurve" smooth="yes"/>
      <point x="829" y="1325"/>
      <point x="706" y="1472"/>
      <point x="588" y="1472" type="qcurve" smooth="yes"/>
      <point x="467" y="1472" type="line"/>
      <point x="438" y="1449" type="line"/>
    </contour>
  </outline>
</glyph>
<glyph name="C" format="2">
  <advance width="1291"/>
  <unicode hex="0043"/>
  <anchor x="723" y="0" name="bottom"/>
  <anchor x="723" y="1500" name="top"/>
  <outline>
    <contour>
      <point x="57" y="703" type="qcurve" smooth="yes"/>
      <point x="57" y="1057"/>
      <point x="415" y="1520"/>
      <point x="742" y="1520" type="qcurve" smooth="yes"/>
      <point x="850" y="1520"/>
      <point x="1050" y="1467"/>
      <point x="1108" y="1422" type="qcurve"/>
      <point x="1124" y="1500" type="line"/>
      <point x="1145" y="1500" type="line"/>
      <point x="1145" y="1051" type="line"/>
      <point x="1115" y="1051" type="line"/>
      <point x="1083" y="1199" type="line" smooth="yes"/>
      <point x="1051" y="1345"/>
      <point x="880" y="1492"/>
      <point x="723" y="1492" type="qcurve" smooth="yes"/>
      <point x="520" y="1492"/>
      <point x="234" y="1122"/>
      <point x="236" y="740" type="qcurve" smooth="yes"/>
      <point x="237" y="387"/>
      <point x="513" y="1"/>
      <point x="735" y="1" type="qcurve" smooth="yes"/>
      <point x="895" y="1"/>
      <point x="1129" y="146"/>
      <point x="1211" y="280" type="qcurve"/>
      <point x="1232" y="262" type="line"/>
      <point x="1150" y="119"/>
      <point x="901" y="-30"/>
      <point x="731" y="-30" type="qcurve" smooth="yes"/>
      <point x="419" y="-30"/>
      <point x="57" y="370"/>
    </contour>
  </outline>
</glyph>
<glyph name="D" format="2">
  <advance width="1368"/>
  <unicode hex="0044"/>
  <anchor x="610" y="0" name="bottom"/>
  <anchor x="375" y="754" name="center"/>
  <anchor x="610" y="1500" name="top"/>
  <outline>
    <contour>
      <point x="62" y="0" type="line"/>
      <point x="62" y="24" type="line"/>
      <point x="226" y="59" type="line"/>
      <point x="228" y="754" type="line"/>
      <point x="226" y="1439" type="line"/>
      <point x="62" y="1473" type="line"/>
      <point x="62" y="1500" type="line"/>
      <point x="593" y="1500" type="line" smooth="yes"/>
      <point x="916" y="1500"/>
      <point x="1311" y="1119"/>
      <point x="1311" y="777" type="qcurve" smooth="yes"/>
      <point x="1311" y="410"/>
      <point x="916" y="0"/>
      <point x="556" y="0" type="qcurve" smooth="yes"/>
    </contour>
    <contour>
      <point x="394" y="41" type="line"/>
      <point x="423" y="35"/>
      <point x="552" y="26"/>
      <point x="599" y="26" type="qcurve" smooth="yes"/>
      <point x="833" y="26"/>
      <point x="1131" y="405"/>
      <point x="1133" y="761" type="qcurve" smooth="yes"/>
      <point x="1135" y="1105"/>
      <point x="834" y="1473"/>
      <point x="585" y="1473" type="qcurve" smooth="yes"/>
      <point x="542" y="1473"/>
      <point x="425" y="1461"/>
      <point x="394" y="1456" type="qcurve"/>
      <point x="392" y="754" type="line"/>
    </contour>
  </outline>
</glyph>
<glyph name="K" format="2">
  <advance width="1329"/>
  <unicode hex="004B"/>
  <anchor x="746" y="0" name="bottom"/>
  <anchor x="704" y="1500" name="top"/>
  <outline>
    <contour>
      <point x="104" y="0" type="line"/>
      <point x="104" y="24" type="line"/>
      <point x="268" y="59" type="line"/>
      <point x="270" y="754" type="line"/>
      <point x="268" y="1439" type="line"/>
      <point x="104" y="1473" type="line"/>
      <point x="104" y="1500" type="line"/>
      <point x="592" y="1500" type="line"/>
      <point x="592" y="1473" type="line"/>
      <point x="436" y="1439" type="line"/>
      <point x="434" y="754" type="line"/>
      <point x="436" y="59" type="line"/>
      <point x="600" y="24" type="line"/>
      <point x="600" y="0" type="line"/>
    </contour>
    <contour>
      <point x="389" y="514" type="line"/>
      <point x="389" y="566" type="line"/>
      <point x="1113" y="1425" type="line"/>
      <point x="917" y="1473" type="line"/>
      <point x="917" y="1500" type="line"/>
      <point x="1212" y="1500" type="line"/>
      <point x="1212" y="1473" type="line"/>
      <point x="1154" y="1425" type="line"/>
      <point x="671" y="862" type="line"/>
      <point x="639" y="827" type="line"/>
    </contour>
    <contour>
      <point x="607" y="816" type="line"/>
      <point x="715" y="946" type="line"/>
      <point x="1276" y="59" type="line"/>
      <point x="1344" y="24" type="line"/>
      <point x="1344" y="0" type="line"/>
      <point x="894" y="0" type="line"/>
      <point x="894" y="24" type="line"/>
      <point x="1081" y="59" type="line"/>
    </contour>
  </outline>
</glyph>
<glyph name="L" format="2">
  <advance width="1156"/>
  <unicode hex="004C"/>
  <anchor x="617" y="0" name="bottom"/>
  <anchor x="859" y="750" name="centerright"/>
  <anchor x="571" y="1500" name="top"/>
  <anchor x="715" y="1001" name="topright"/>
  <anchor x="351" y="750" name="center"/>
  <outline>
    <contour>
      <point x="104" y="0" type="line"/>
      <point x="104" y="24" type="line"/>
      <point x="268" y="56" type="line"/>
      <point x="270" y="754" type="line"/>
      <point x="268" y="1439" type="line"/>
      <point x="104" y="1473" type="line"/>
      <point x="104" y="1500" type="line"/>
      <point x="618" y="1500" type="line"/>
      <point x="618" y="1473" type="line"/>
      <point x="436" y="1439" type="line"/>
      <point x="434" y="754" type="line"/>
      <point x="436" y="51" type="line"/>
      <point x="476" y="24" type="line"/>
      <point x="1005" y="24" type="line"/>
      <point x="1091" y="424" type="line"/>
      <point x="1117" y="424" type="line"/>
      <point x="1066" y="0" type="line"/>
    </contour>
  </outline>
</glyph>
<glyph name="P" format="2">
  <advance width="1137"/>
  <unicode hex="0050"/>
  <anchor x="557" y="0" name="bottom"/>
  <anchor x="557" y="1500" name="top"/>
  <outline>
    <contour>
      <point x="104" y="0" type="line"/>
      <point x="104" y="24" type="line"/>
      <point x="268" y="61" type="line"/>
      <point x="270" y="754" type="line"/>
      <point x="268" y="1439" type="line"/>
      <point x="104" y="1473" type="line"/>
      <point x="104" y="1500" type="line"/>
      <point x="655" y="1500" type="line" smooth="yes"/>
      <point x="872" y="1500"/>
      <point x="1099" y="1284"/>
      <point x="1099" y="1072" type="qcurve" smooth="yes"/>
      <point x="1099" y="866"/>
      <point x="859" y="599"/>
      <point x="641" y="599" type="qcurve" smooth="yes"/>
      <point x="550" y="599"/>
      <point x="406" y="618"/>
      <point x="360" y="627" type="qcurve"/>
      <point x="361" y="654" type="line"/>
      <point x="418" y="641"/>
      <point x="554" y="626"/>
      <point x="607" y="626" type="qcurve" smooth="yes"/>
      <point x="762" y="626"/>
      <point x="917" y="862"/>
      <point x="917" y="1072" type="qcurve" smooth="yes"/>
      <point x="917" y="1273"/>
      <point x="770" y="1474"/>
      <point x="630" y="1474" type="qcurve" smooth="yes"/>
      <point x="471" y="1474" type="line"/>
      <point x="437" y="1452" type="line"/>
      <point x="434" y="764" type="line"/>
      <point x="436" y="56" type="line"/>
      <point x="616" y="24" type="line"/>
      <point x="616" y="0" type="line"/>
    </contour>
  </outline>
</glyph>
<glyph name="S" format="2">
  <advance width="1007"/>
  <unicode hex="0053"/>
  <anchor x="539" y="0" name="bottom"/>
  <anchor x="468" y="1500" name="top"/>
  <outline>
    <contour>
      <point x="101" y="0" type="line"/>
      <point x="101" y="471" type="line"/>
      <point x="129" y="471" type="line"/>
      <point x="147" y="379" type="line" smooth="yes"/>
      <point x="188" y="161"/>
      <point x="396" y="8"/>
      <point x="530" y="8" type="qcurve" smooth="yes"/>
      <point x="678" y="8"/>
      <point x="810" y="211"/>
      <point x="810" y="357" type="qcurve" smooth="yes"/>
      <point x="810" y="514"/>
      <point x="636" y="657"/>
      <point x="455" y="731" type="qcurve" smooth="yes"/>
      <point x="291" y="798"/>
      <point x="114" y="982"/>
      <point x="114" y="1136" type="qcurve" smooth="yes"/>
      <point x="114" y="1301"/>
      <point x="309" y="1520"/>
      <point x="505" y="1520" type="qcurve" smooth="yes"/>
      <point x="575" y="1520"/>
      <point x="743" y="1454"/>
      <point x="792" y="1395" type="qcurve"/>
      <point x="812" y="1487" type="line"/>
      <point x="834" y="1487" type="line"/>
      <point x="834" y="1070" type="line"/>
      <point x="806" y="1070" type="line"/>
      <point x="785" y="1203" type="line" smooth="yes"/>
      <point x="758" y="1374"/>
      <point x="601" y="1490"/>
      <point x="496" y="1490" type="qcurve" smooth="yes"/>
      <point x="378" y="1490"/>
      <point x="263" y="1336"/>
      <point x="263" y="1194" type="qcurve" smooth="yes"/>
      <point x="263" y="1065"/>
      <point x="389" y="945"/>
      <point x="569" y="873" type="qcurve" smooth="yes"/>
      <point x="741" y="804"/>
      <point x="962" y="597"/>
      <point x="962" y="416" type="qcurve" smooth="yes"/>
      <point x="962" y="223"/>
      <point x="742" y="-20"/>
      <point x="537" y="-20" type="qcurve" smooth="yes"/>
      <point x="421" y="-20"/>
      <point x="229" y="65"/>
      <point x="171" y="138" type="qcurve"/>
      <point x="124" y="0" type="line"/>
    </contour>
  </outline>
</glyph>
<glyph name="U" format="2">
  <advance width="1288"/>
  <unicode hex="0055"/>
  <anchor x="712" y="0" name="bottom"/>
  <anchor x="901" y="0" name="ogonek"/>
  <anchor x="713" y="1500" name="top"/>
  <anchor x="1522" y="1500" name="topright"/>
  <outline>
    <contour>
      <point x="62" y="1473" type="line"/>
      <point x="62" y="1500" type="line"/>
      <point x="551" y="1500" type="line"/>
      <point x="551" y="1473" type="line"/>
      <point x="387" y="1439" type="line"/>
      <point x="382" y="794" type="line"/>
      <point x="386" y="474" type="line" smooth="yes"/>
      <point x="389" y="221"/>
      <point x="549" y="0"/>
      <point x="710" y="0" type="qcurve" smooth="yes"/>
      <point x="897" y="0"/>
      <point x="1082" y="242"/>
      <point x="1082" y="494" type="qcurve" smooth="yes"/>
      <point x="1082" y="794" type="line"/>
      <point x="1082" y="1439" type="line"/>
      <point x="910" y="1473" type="line"/>
      <point x="910" y="1500" type="line"/>
      <point x="1276" y="1500" type="line"/>
      <point x="1276" y="1473" type="line"/>
      <point x="1112" y="1439" type="line"/>
      <point x="1111" y="794" type="line"/>
      <point x="1112" y="493" type="line" smooth="yes"/>
      <point x="1112" y="231"/>
      <point x="914" y="-31"/>
      <point x="713" y="-31" type="qcurve" smooth="yes"/>
      <point x="465" y="-31"/>
      <point x="216" y="239"/>
      <point x="218" y="481" type="qcurve" smooth="yes"/>
      <point x="220" y="794" type="line"/>
      <point x="218" y="1439" type="line"/>
    </contour>
  </outline>
</glyph>
<glyph name="Y" format="2">
  <advance width="1197"/>
  <unicode hex="0059"/>
  <anchor x="601" y="0" name="bottom"/>
  <anchor x="604" y="1500" name="top"/>
  <anchor x="-88" y="1500" name="tonos"/>
  <outline>
    <contour>
      <point x="342" y="0" type="line"/>
      <point x="342" y="24" type="line"/>
      <point x="516" y="59" type="line"/>
      <point x="518" y="647" type="line"/>
      <point x="343" y="992" type="line"/>
      <point x="94" y="1446" type="line"/>
      <point x="16" y="1473" type="line"/>
      <point x="16" y="1500" type="line"/>
      <point x="462" y="1500" type="line"/>
      <point x="462" y="1473" type="line"/>
      <point x="291" y="1437" type="line"/>
      <point x="478" y="1063" type="line"/>
      <point x="665" y="710" type="line"/>
      <point x="675" y="710" type="line"/>
      <point x="845" y="1034" type="line"/>
      <point x="1057" y="1444" type="line"/>
      <point x="864" y="1473" type="line"/>
      <point x="864" y="1500" type="line"/>
      <point x="1179" y="1500" type="line"/>
      <point x="1179" y="1473" type="line"/>
      <point x="1098" y="1445" type="line"/>
      <point x="872" y="1024" type="line"/>
      <point x="682" y="652" type="line"/>
      <point x="684" y="59" type="line"/>
      <point x="856" y="24" type="line"/>
      <point x="856" y="0" type="line"/>
    </contour>
  </outline>
</glyph>
<glyph name="bracketleft" format="2">
  <advance width="599"/>
  <unicode hex="005B"/>
  <outline>
    <contour>
      <point x="145" y="508" type="line"/>
      <point x="133" y="1452" type="line"/>
      <point x="114" y="1472" type="line"/>
      <point x="114" y="1500" type="line"/>
      <point x="535" y="1500" type="line"/>
      <point x="535" y="1471" type="line"/>
      <point x="303" y="1452" type="line"/>
      <point x="291" y="508" type="line"/>
      <point x="303" y="-432" type="line"/>
      <point x="535" y="-451" type="line"/>
      <point x="535" y="-480" type="line"/>
      <point x="114" y="-480" type="line"/>
      <point x="114" y="-452" type="line"/>
      <point x="133" y="-432" type="line"/>
    </contour>
  </outline>
</glyph>
<glyph name="bracketright" format="2">
  <advance width="573"/>
  <unicode hex="005D"/>
  <outline>
    <contour>
      <point x="64" y="-480" type="line"/>
      <point x="64" y="-451" type="line"/>
      <point x="296" y="-432" type="line"/>
      <point x="308" y="508" type="line"/>
      <point x="296" y="1452" type="line"/>
      <point x="64" y="1471" type="line"/>
      <point x="64" y="1500" type="line"/>
      <point x="485" y="1500" type="line"/>
      <point x="485" y="1472" type="line"/>
      <point x="466" y="1452" type="line"/>
      <point x="454" y="508" type="line"/>
      <point x="466" y="-432" type="line"/>
      <point x="485" y="-452" type="line"/>
      <point x="485" y="-480" type="line"/>
    </contour>
  </outline>
</glyph>
<glyph name="asciicircum" format="2">
  <advance width="1148"/>
  <unicode hex="005E"/>
  <outline>
    <contour>
      <point x="122" y="878" type="line"/>
      <point x="128" y="896"/>
      <point x="534" y="1501"/>
      <point x="555" y="1524" type="qcurve"/>
      <point x="574" y="1501"/>
      <point x="1017" y="899"/>
      <point x="1025" y="882" type="qcurve"/>
      <point x="1000" y="868" type="line"/>
      <point x="982" y="906"/>
      <point x="571" y="1264"/>
      <point x="556" y="1277" type="qcurve"/>
      <point x="540" y="1258"/>
      <point x="163" y="909"/>
      <point x="148" y="868" type="qcurve"/>
    </contour>
  </outline>
</glyph>
<glyph name="a" format="2">
  <advance width="980"/>
  <unicode hex="0061"/>
  <anchor x="453" y="0" name="bottom"/>
  <anchor x="807" y="0" name="ogonek"/>
  <anchor x="459" y="921" name="top"/>
  <outline>
    <contour>
      <point x="60" y="212" type="qcurve" smooth="yes"/>
      <point x="60" y="332"/>
      <point x="362" y="507"/>
      <point x="691" y="547" type="qcurve"/>
      <point x="691" y="527" type="line"/>
      <point x="466" y="486"/>
      <point x="228" y="348"/>
      <point x="228" y="198" type="qcurve" smooth="yes"/>
      <point x="229" y="108"/>
      <point x="311" y="24"/>
      <point x="378" y="24" type="qcurve" smooth="yes"/>
      <point x="445" y="24"/>
      <point x="601" y="110"/>
      <point x="627" y="163" type="qcurve"/>
      <point x="629" y="594" type="line" smooth="yes"/>
      <point x="630" y="787"/>
      <point x="523" y="913"/>
      <point x="440" y="913" type="qcurve" smooth="yes"/>
      <point x="365" y="913"/>
      <point x="265" y="834"/>
      <point x="242" y="746" type="qcurve"/>
      <point x="262" y="726"/>
      <point x="285" y="684"/>
      <point x="288" y="665" type="qcurve" smooth="yes"/>
      <point x="294" y="628"/>
      <point x="253" y="576"/>
      <point x="213" y="576" type="qcurve" smooth="yes"/>
      <point x="168" y="576"/>
      <point x="117" y="642"/>
      <point x="117" y="699" type="qcurve" smooth="yes"/>
      <point x="117" y="795"/>
      <point x="309" y="939"/>
      <point x="458" y="939" type="qcurve" smooth="yes"/>
      <point x="615" y="939"/>
      <point x="782" y="785"/>
      <point x="781" y="621" type="qcurve" smooth="yes"/>
      <point x="781" y="55" type="line"/>
      <point x="904" y="20" type="line"/>
      <point x="904" y="0" type="line"/>
      <point x="699" y="0" type="line"/>
      <point x="646" y="60" type="line"/>
      <point x="632" y="136" type="line"/>
      <point x="595" y="77"/>
      <point x="421" y="-13"/>
      <point x="313" y="-13" type="qcurve" smooth="yes"/>
      <point x="205" y="-13"/>
      <point x="60" y="118"/>
    </contour>
  </outline>
</glyph>
<glyph name="e" format="2">
  <advance width="927"/>
  <unicode hex="0065"/>
  <anchor x="513" y="0" name="bottom"/>
  <anchor x="667" y="0" name="ogonek"/>
  <anchor x="476" y="921" name="top"/>
  <outline>
    <contour>
      <point x="45" y="463" type="qcurve" smooth="yes"/>
      <point x="45" y="664"/>
      <point x="285" y="943"/>
      <point x="479" y="943" type="qcurve" smooth="yes"/>
      <point x="655" y="943"/>
      <point x="857" y="730"/>
      <point x="874" y="543" type="qcurve"/>
      <point x="874" y="516" type="line"/>
      <point x="141" y="516" type="line"/>
      <point x="142" y="538" type="line"/>
      <point x="716" y="538" type="line"/>
      <point x="695" y="722"/>
      <point x="570" y="918"/>
      <point x="470" y="918" type="qcurve" smooth="yes"/>
      <point x="348" y="918"/>
      <point x="213" y="693"/>
      <point x="214" y="483" type="qcurve" smooth="yes"/>
      <point x="215" y="244"/>
      <point x="389" y="9"/>
      <point x="533" y="9" type="qcurve" smooth="yes"/>
      <point x="635" y="9"/>
      <point x="786" y="85"/>
      <point x="826" y="143" type="qcurve"/>
      <point x="841" y="128" type="line"/>
      <point x="797" y="65"/>
      <point x="629" y="-22"/>
      <point x="511" y="-22" type="qcurve" smooth="yes"/>
      <point x="292" y="-22"/>
      <point x="45" y="228"/>
    </contour>
  </outline>
</glyph>
<glyph name="f" format="2">
  <advance width="608"/>
  <unicode hex="0066"/>
  <anchor x="327" y="0" name="bottom"/>
  <anchor x="327" y="1515" name="top"/>
  <outline>
    <contour>
      <point x="84" y="0" type="line"/>
      <point x="84" y="20" type="line"/>
      <point x="222" y="55" type="line"/>
      <point x="224" y="527" type="line"/>
      <point x="221" y="873" type="line"/>
      <point x="82" y="868" type="line"/>
      <point x="82" y="897" type="line"/>
      <point x="223" y="899" type="line"/>
      <point x="227" y="1273" type="line" smooth="yes"/>
      <point x="228" y="1382"/>
      <point x="348" y="1517"/>
      <point x="440" y="1517" type="qcurve" smooth="yes"/>
      <point x="479" y="1517"/>
      <point x="542" y="1507"/>
      <point x="568" y="1498" type="qcurve" smooth="yes"/>
      <point x="586" y="1492" type="line"/>
      <point x="581" y="1470" type="line"/>
      <point x="563" y="1475" type="line" smooth="yes"/>
      <point x="546" y="1481"/>
      <point x="515" y="1486"/>
      <point x="498" y="1486" type="qcurve" smooth="yes"/>
      <point x="436" y="1486"/>
      <point x="371" y="1384"/>
      <point x="372" y="1289" type="qcurve" smooth="yes"/>
      <point x="374" y="900" type="line"/>
      <point x="567" y="900" type="line"/>
      <point x="567" y="874" type="line"/>
      <point x="374" y="874" type="line"/>
      <point x="376" y="527" type="line"/>
      <point x="382" y="55" type="line"/>
      <point x="539" y="20" type="line"/>
      <point x="539" y="0" type="line"/>
    </contour>
  </outline>
</glyph>
<glyph name="g" format="2">
  <advance width="983"/>
  <unicode hex="0067"/>
  <anchor x="512" y="-416" name="bottom"/>
  <anchor x="472" y="921" name="top"/>
  <outline>
    <contour>
      <point x="14" y="-262" type="qcurve" smooth="yes"/>
      <point x="14" y="-181"/>
      <point x="126" y="-84"/>
      <point x="259" y="-57" type="qcurve"/>
      <point x="264" y="-59" type="line"/>
      <point x="216" y="-84"/>
      <point x="157" y="-162"/>
      <point x="157" y="-237" type="qcurve" smooth="yes"/>
      <point x="157" y="-339"/>
      <point x="323" y="-472"/>
      <point x="519" y="-472" type="qcurve" smooth="yes"/>
      <point x="684" y="-472"/>
      <point x="904" y="-368"/>
      <point x="904" y="-268" type="qcurve" smooth="yes"/>
      <point x="904" y="-184"/>
      <point x="730" y="-129"/>
      <point x="497" y="-118" type="qcurve" smooth="yes"/>
      <point x="308" y="-108"/>
      <point x="84" y="-22"/>
      <point x="84" y="78" type="qcurve" smooth="yes"/>
      <point x="84" y="155"/>
      <point x="240" y="229"/>
      <point x="318" y="250" type="qcurve"/>
      <point x="325" y="239" type="line"/>
      <point x="264" y="216"/>
      <point x="189" y="165"/>
      <point x="189" y="121" type="qcurve" smooth="yes"/>
      <point x="189" y="73"/>
      <point x="342" y="37"/>
      <point x="530" y="29" type="qcurve" smooth="yes"/>
      <point x="780" y="20"/>
      <point x="977" y="-85"/>
      <point x="977" y="-195" type="qcurve" smooth="yes"/>
      <point x="977" y="-320"/>
      <point x="741" y="-498"/>
      <point x="481" y="-498" type="qcurve" smooth="yes"/>
      <point x="240" y="-498"/>
      <point x="14" y="-361"/>
    </contour>
    <contour>
      <point x="82" y="558" type="qcurve" smooth="yes"/>
      <point x="82" y="725"/>
      <point x="294" y="943"/>
      <point x="466" y="943" type="qcurve" smooth="yes"/>
      <point x="639" y="943"/>
      <point x="853" y="741"/>
      <point x="853" y="562" type="qcurve" smooth="yes"/>
      <point x="853" y="395"/>
      <point x="641" y="154"/>
      <point x="471" y="154" type="qcurve" smooth="yes"/>
      <point x="298" y="154"/>
      <point x="82" y="376"/>
    </contour>
    <contour>
      <point x="245" y="563" type="qcurve" smooth="yes"/>
      <point x="245" y="379"/>
      <point x="367" y="177"/>
      <point x="474" y="177" type="qcurve" smooth="yes"/>
      <point x="573" y="177"/>
      <point x="688" y="363"/>
      <point x="688" y="552" type="qcurve" smooth="yes"/>
      <point x="688" y="723"/>
      <point x="568" y="918"/>
      <point x="461" y="918" type="qcurve" smooth="yes"/>
      <point x="363" y="918"/>
      <point x="245" y="742"/>
    </contour>
    <contour>
      <point x="662" y="902" type="line"/>
      <point x="569" y="921" type="line"/>
      <point x="979" y="921" type="line"/>
      <point x="979" y="844" type="line"/>
    </contour>
  </outline>
</glyph>
<glyph name="h" format="2">
  <advance width="1076"/>
  <unicode hex="0068"/>
  <anchor x="525" y="0" name="bottom"/>
  <anchor x="285" y="1190" name="center"/>
  <anchor x="242" y="1512" name="top"/>
  <outline>
    <contour>
      <point x="39" y="0" type="line"/>
      <point x="39" y="20" type="line"/>
      <point x="156" y="55" type="line"/>
      <point x="158" y="447" type="line"/>
      <point x="156" y="1425" type="line"/>
      <point x="19" y="1455" type="line"/>
      <point x="19" y="1482" type="line"/>
      <point x="255" y="1512" type="line"/>
      <point x="287" y="1512" type="line"/>
      <point x="315" y="1480" type="line"/>
      <point x="314" y="773" type="line"/>
      <point x="364" y="845"/>
      <point x="534" y="942"/>
      <point x="626" y="942" type="qcurve" smooth="yes"/>
      <point x="765" y="942"/>
      <point x="905" y="793"/>
      <point x="905" y="663" type="qcurve" smooth="yes"/>
      <point x="905" y="589"/>
      <point x="900" y="447"/>
      <point x="900" y="447" type="qcurve"/>
      <point x="904" y="55" type="line"/>
      <point x="1026" y="20" type="line"/>
      <point x="1026" y="0" type="line"/>
      <point x="615" y="0" type="line"/>
      <point x="615" y="20" type="line"/>
      <point x="746" y="55" type="line"/>
      <point x="748" y="447" type="line"/>
      <point x="748" y="717" type="line" smooth="yes"/>
      <point x="748" y="789"/>
      <point x="658" y="892"/>
      <point x="576" y="892" type="qcurve" smooth="yes"/>
      <point x="504" y="892"/>
      <point x="359" y="814"/>
      <point x="313" y="739" type="qcurve"/>
      <point x="313" y="530" type="line"/>
      <point x="315" y="55" type="line"/>
      <point x="429" y="20" type="line"/>
      <point x="429" y="0" type="line"/>
    </contour>
  </outline>
</glyph>
<glyph name="k" format="2">
  <advance width="1106"/>
  <unicode hex="006B"/>
  <anchor x="584" y="0" name="bottom"/>
  <anchor x="554" y="1512" name="top"/>
  <outline>
    <contour>
      <point x="88" y="0" type="line"/>
      <point x="88" y="20" type="line"/>
      <point x="205" y="55" type="line"/>
      <point x="207" y="527" type="line"/>
      <point x="205" y="1425" type="line"/>
      <point x="69" y="1455" type="line"/>
      <point x="69" y="1482" type="line"/>
      <point x="304" y="1512" type="line"/>
      <point x="336" y="1512" type="line"/>
      <point x="364" y="1480" type="line"/>
      <point x="362" y="508" type="line"/>
      <point x="364" y="55" type="line"/>
      <point x="478" y="20" type="line"/>
      <point x="478" y="0" type="line"/>
    </contour>
    <contour>
      <point x="313" y="383" type="line"/>
      <point x="309" y="411" type="line"/>
      <point x="835" y="869" type="line"/>
      <point x="639" y="899" type="line"/>
      <point x="639" y="921" type="line"/>
      <point x="923" y="921" type="line"/>
      <point x="923" y="899" type="line"/>
      <point x="870" y="864" type="line"/>
    </contour>
    <contour>
      <point x="489" y="563" type="line"/>
      <point x="596" y="658" type="line"/>
      <point x="1011" y="55" type="line"/>
      <point x="1065" y="20" type="line"/>
      <point x="1065" y="0" type="line"/>
      <point x="790" y="0" type="line"/>
      <point x="781" y="19" type="line"/>
      <point x="840" y="50" type="line"/>
    </contour>
  </outline>
</glyph>
<glyph name="l" format="2">
  <advance width="527"/>
  <unicode hex="006C"/>
  <anchor x="262" y="0" name="bottom"/>
  <anchor x="262" y="730" name="center"/>
  <anchor x="262" y="1512" name="top"/>
  <anchor x="318" y="980" name="topright"/>
  <anchor x="686" y="668" name="centerright"/>
  <outline>
    <contour>
      <point x="56" y="0" type="line"/>
      <point x="56" y="20" type="line"/>
      <point x="189" y="55" type="line"/>
      <point x="191" y="527" type="line"/>
      <point x="189" y="1425" type="line"/>
      <point x="36" y="1455" type="line"/>
      <point x="36" y="1478" type="line"/>
      <point x="288" y="1512" type="line"/>
      <point x="320" y="1512" type="line"/>
      <point x="348" y="1480" type="line"/>
      <point x="346" y="527" type="line"/>
      <point x="348" y="55" type="line"/>
      <point x="478" y="20" type="line"/>
      <point x="478" y="0" type="line"/>
    </contour>
  </outline>
</glyph>
<glyph name="v" format="2">
  <advance width="862"/>
  <unicode hex="0076"/>
  <anchor x="481" y="0" name="bottom"/>
  <anchor x="481" y="921" name="top"/>
  <outline>
    <contour>
      <point x="11" y="899" type="line"/>
      <point x="11" y="921" type="line"/>
      <point x="379" y="921" type="line"/>
      <point x="379" y="899" type="line"/>
      <point x="245" y="861" type="line"/>
      <point x="380" y="487" type="line"/>
      <point x="452" y="297" type="line"/>
      <point x="486" y="195" type="line"/>
      <point x="496" y="195" type="line"/>
      <point x="531" y="297" type="line"/>
      <point x="606" y="494" type="line"/>
      <point x="737" y="868" type="line"/>
      <point x="600" y="899" type="line"/>
      <point x="600" y="921" type="line"/>
      <point x="866" y="921" type="line"/>
      <point x="866" y="899" type="line"/>
      <point x="769" y="864" type="line"/>
      <point x="623" y="460" type="line"/>
      <point x="454" y="-8" type="line"/>
      <point x="424" y="-8" type="line"/>
      <point x="253" y="431" type="line"/>
      <point x="81" y="864" type="line"/>
    </contour>
  </outline>
</glyph>
<glyph name="asciitilde" format="2">
  <advance width="970"/>
  <unicode hex="007E"/>
  <outline>
    <contour>
      <point x="27" y="601" type="line"/>
      <point x="85" y="694"/>
      <point x="250" y="801"/>
      <point x="332" y="801" type="qcurve"/>
      <point x="753" y="643" type="line"/>
      <point x="807" y="643"/>
      <point x="886" y="722"/>
      <point x="916" y="776" type="qcurve"/>
      <point x="943" y="761" type="line"/>
      <point x="897" y="657"/>
      <point x="765" y="521"/>
      <point x="642" y="521" type="qcurve"/>
      <point x="197" y="694" type="line"/>
      <point x="169" y="694"/>
      <point x="99" y="641"/>
      <point x="48" y="583" type="qcurve"/>
    </contour>
  </outline>
</glyph>
<glyph name="exclamdown" format="2">
  <advance width="604"/>
  <unicode hex="00A1"/>
  <outline>
    <contour>
      <point x="438" y="1212" type="qcurve" smooth="yes"/>
      <point x="438" y="1158"/>
      <point x="361" y="1077"/>
      <point x="302" y="1077" type="qcurve" smooth="yes"/>
      <point x="243" y="1077"/>
      <point x="167" y="1158"/>
      <point x="167" y="1212" type="qcurve" smooth="yes"/>
      <point x="167" y="1266"/>
      <point x="243" y="1347"/>
      <point x="302" y="1347" type="qcurve" smooth="yes"/>
      <point x="361" y="1347"/>
      <point x="438" y="1266"/>
    </contour>
    <contour>
      <point x="390" y="-93" type="line" smooth="yes"/>
      <point x="393" y="-161"/>
      <point x="355" y="-248"/>
      <point x="304" y="-249" type="qcurve" smooth="yes"/>
      <point x="252" y="-250"/>
      <point x="211" y="-163"/>
      <point x="214" y="-94" type="qcurve" smooth="yes"/>
      <point x="225" y="193" type="line"/>
      <point x="292" y="501" type="line"/>
      <point x="292" y="891" type="line"/>
      <point x="314" y="891" type="line"/>
      <point x="314" y="501" type="line"/>
      <point x="379" y="193" type="line"/>
    </contour>
  </outline>
</glyph>
<glyph name="yen" format="2">
  <advance width="1182"/>
  <unicode hex="00A5"/>
  <outline>
    <contour>
      <point x="139" y="631" type="line"/>
      <point x="133" y="659" type="line"/>
      <point x="1048" y="659" type="line"/>
      <point x="1041" y="631" type="line"/>
    </contour>
    <contour>
      <point x="510" y="663" type="line"/>
      <point x="343" y="993" type="line"/>
      <point x="145" y="1360" type="line"/>
      <point x="22" y="1386" type="line"/>
      <point x="22" y="1500" type="line"/>
      <point x="458" y="1500" type="line"/>
      <point x="458" y="1386" type="line"/>
      <point x="340" y="1351" type="line"/>
      <point x="484" y="1064" type="line"/>
      <point x="663" y="715" type="line"/>
      <point x="815" y="1009" type="line"/>
      <point x="996" y="1358" type="line"/>
      <point x="854" y="1386" type="line"/>
      <point x="854" y="1500" type="line"/>
      <point x="1158" y="1500" type="line"/>
      <point x="1158" y="1386" type="line"/>
      <point x="1031" y="1359" type="line"/>
      <point x="845" y="1002" type="line"/>
      <point x="675" y="667" type="line"/>
      <point x="676" y="135" type="line"/>
      <point x="848" y="100" type="line"/>
      <point x="848" y="0" type="line"/>
      <point x="334" y="0" type="line"/>
      <point x="334" y="100" type="line"/>
      <point x="508" y="135" type="line"/>
    </contour>
    <contour>
      <point x="199" y="331" type="line"/>
      <point x="193" y="359" type="line"/>
      <point x="988" y="359" type="line"/>
      <point x="981" y="331" type="line"/>
    </contour>
  </outline>
</glyph>
<glyph name="section" format="2">
  <advance width="818"/>
  <unicode hex="00A7"/>
  <outline>
    <contour>
      <point x="732" y="134" type="qcurve" smooth="yes"/>
      <point x="732" y="-35"/>
      <point x="558" y="-253"/>
      <point x="385" y="-253" type="qcurve" smooth="yes"/>
      <point x="310" y="-253"/>
      <point x="153" y="-185"/>
      <point x="107" y="-135" type="qcurve"/>
      <point x="66" y="-235" type="line"/>
      <point x="45" y="-235" type="line"/>
      <point x="45" y="196" type="line"/>
      <point x="68" y="196" type="line"/>
      <point x="86" y="103" type="line" smooth="yes"/>
      <point x="122" y="-80"/>
      <point x="297" y="-227"/>
      <point x="388" y="-227" type="qcurve" smooth="yes"/>
      <point x="516" y="-227"/>
      <point x="643" y="-51"/>
      <point x="643" y="82" type="qcurve" smooth="yes"/>
      <point x="643" y="206"/>
      <point x="488" y="345"/>
      <point x="344" y="407" type="qcurve" smooth="yes"/>
      <point x="227" y="459"/>
      <point x="119" y="628"/>
      <point x="119" y="733" type="qcurve" smooth="yes"/>
      <point x="119" y="829"/>
      <point x="193" y="954"/>
      <point x="273" y="1001" type="qcurve"/>
      <point x="215" y="1032"/>
      <point x="148" y="1152"/>
      <point x="148" y="1217" type="qcurve" smooth="yes"/>
      <point x="148" y="1350"/>
      <point x="282" y="1512"/>
      <point x="407" y="1512" type="qcurve" smooth="yes"/>
      <point x="480" y="1512"/>
      <point x="585" y="1472"/>
      <point x="621" y="1449" type="qcurve"/>
      <point x="635" y="1480" type="line"/>
      <point x="655" y="1480" type="line"/>
      <point x="655" y="1184" type="line"/>
      <point x="631" y="1184" type="line"/>
      <point x="610" y="1297" type="line" smooth="yes"/>
      <point x="594" y="1385"/>
      <point x="494" y="1487"/>
      <point x="412" y="1487" type="qcurve" smooth="yes"/>
      <point x="330" y="1487"/>
      <point x="240" y="1370"/>
      <point x="240" y="1303" type="qcurve" smooth="yes"/>
      <point x="240" y="1239"/>
      <point x="307" y="1144"/>
      <point x="411" y="1105" type="qcurve" smooth="yes"/>
      <point x="596" y="1040"/>
      <point x="702" y="909"/>
      <point x="702" y="798" type="qcurve" smooth="yes"/>
      <point x="702" y="686"/>
      <point x="584" y="553"/>
      <point x="472" y="518" type="qcurve"/>
      <point x="607" y="449"/>
      <point x="732" y="275"/>
    </contour>
    <contour>
      <point x="184" y="808" type="qcurve" smooth="yes"/>
      <point x="184" y="712"/>
      <point x="326" y="594"/>
      <point x="460" y="532" type="qcurve"/>
      <point x="541" y="563"/>
      <point x="623" y="667"/>
      <point x="623" y="739" type="qcurve" smooth="yes"/>
      <point x="623" y="808"/>
      <point x="523" y="896"/>
      <point x="441" y="931" type="qcurve" smooth="yes"/>
      <point x="390" y="950"/>
      <point x="326" y="969"/>
      <point x="286" y="986" type="qcurve"/>
      <point x="241" y="961"/>
      <point x="184" y="877"/>
    </contour>
  </outline>
</glyph>
<glyph name="copyright" format="2">
  <advance width="2048"/>
  <unicode hex="00A9"/>
  <outline>
    <contour>
      <point x="549" y="662" type="qcurve" smooth="yes"/>
      <point x="549" y="901"/>
      <point x="821" y="1209"/>
      <point x="1056" y="1209" type="qcurve" smooth="yes"/>
      <point x="1122" y="1209"/>
      <point x="1248" y="1176"/>
      <point x="1280" y="1152" type="qcurve"/>
      <point x="1312" y="1206" type="line"/>
      <point x="1331" y="1200" type="line"/>
      <point x="1347" y="838" type="line"/>
      <point x="1326" y="834" type="line"/>
      <point x="1277" y="1019" type="line"/>
      <point x="1231" y="1101"/>
      <point x="1121" y="1184"/>
      <point x="1060" y="1184" type="qcurve" smooth="yes"/>
      <point x="911" y="1184"/>
      <point x="729" y="898"/>
      <point x="729" y="672" type="qcurve" smooth="yes"/>
      <point x="729" y="436"/>
      <point x="930" y="194"/>
      <point x="1066" y="194" type="qcurve" smooth="yes"/>
      <point x="1177" y="194"/>
      <point x="1399" y="314"/>
      <point x="1456" y="398" type="qcurve"/>
      <point x="1470" y="380" type="line"/>
      <point x="1408" y="287"/>
      <point x="1170" y="165"/>
      <point x="1060" y="165" type="qcurve" smooth="yes"/>
      <point x="829" y="165"/>
      <point x="549" y="433"/>
    </contour>
    <contour>
      <point x="101" y="685" type="qcurve" smooth="yes"/>
      <point x="101" y="1061"/>
      <point x="622" y="1570"/>
      <point x="1026" y="1570" type="qcurve" smooth="yes"/>
      <point x="1428" y="1570"/>
      <point x="1947" y="1087"/>
      <point x="1947" y="706" type="qcurve" smooth="yes"/>
      <point x="1947" y="288"/>
      <point x="1435" y="-242"/>
      <point x="1038" y="-242" type="qcurve" smooth="yes"/>
      <point x="629" y="-242"/>
      <point x="101" y="276"/>
    </contour>
    <contour>
      <point x="135" y="684" type="qcurve" smooth="yes"/>
      <point x="135" y="287"/>
      <point x="649" y="-215"/>
      <point x="1041" y="-215" type="qcurve" smooth="yes"/>
      <point x="1425" y="-215"/>
      <point x="1913" y="305"/>
      <point x="1913" y="705" type="qcurve" smooth="yes"/>
      <point x="1913" y="1066"/>
      <point x="1419" y="1543"/>
      <point x="1023" y="1543" type="qcurve" smooth="yes"/>
      <point x="629" y="1543"/>
      <point x="135" y="1046"/>
    </contour>
  </outline>
</glyph>
<glyph name="threesuperior" format="2">
  <advance width="717"/>
  <unicode hex="00B3"/>
  <outline>
    <contour>
      <point x="32" y="739" type="qcurve"/>
      <point x="83" y="832" type="line"/>
      <point x="142" y="789"/>
      <point x="251" y="755"/>
      <point x="332" y="755" type="qcurve" smooth="yes"/>
      <point x="411" y="755"/>
      <point x="504" y="825"/>
      <point x="504" y="908" type="qcurve" smooth="yes"/>
      <point x="504" y="989"/>
      <point x="369" y="1059"/>
      <point x="238" y="1059" type="qcurve" smooth="yes"/>
      <point x="207" y="1059" type="line"/>
      <point x="191" y="1154" type="line"/>
      <point x="254" y="1157" type="line" smooth="yes"/>
      <point x="374" y="1163"/>
      <point x="479" y="1240"/>
      <point x="479" y="1310" type="qcurve" smooth="yes"/>
      <point x="479" y="1364"/>
      <point x="415" y="1416"/>
      <point x="347" y="1416" type="qcurve" smooth="yes"/>
      <point x="274" y="1416"/>
      <point x="173" y="1381"/>
      <point x="117" y="1347" type="qcurve"/>
      <point x="76" y="1422" type="line"/>
      <point x="131" y="1468"/>
      <point x="270" y="1520"/>
      <point x="367" y="1520" type="qcurve" smooth="yes"/>
      <point x="495" y="1520"/>
      <point x="634" y="1418"/>
      <point x="634" y="1337" type="qcurve" smooth="yes"/>
      <point x="634" y="1252"/>
      <point x="518" y="1142"/>
      <point x="404" y="1118" type="qcurve"/>
      <point x="404" y="1114" type="line"/>
      <point x="523" y="1111"/>
      <point x="659" y="1001"/>
      <point x="659" y="905" type="qcurve" smooth="yes"/>
      <point x="659" y="783"/>
      <point x="483" y="649"/>
      <point x="333" y="649" type="qcurve" smooth="yes"/>
      <point x="247" y="649"/>
      <point x="84" y="697"/>
    </contour>
  </outline>
</glyph>
<glyph name="periodcentered" format="2">
  <advance width="567"/>
  <unicode hex="00B7"/>
  <outline>
    <contour>
      <point x="148" y="674" type="qcurve" smooth="yes"/>
      <point x="148" y="729"/>
      <point x="224" y="810"/>
      <point x="284" y="810" type="qcurve" smooth="yes"/>
      <point x="343" y="810"/>
      <point x="419" y="729"/>
      <point x="419" y="674" type="qcurve" smooth="yes"/>
      <point x="419" y="620"/>
      <point x="343" y="539"/>
      <point x="284" y="539" type="qcurve" smooth="yes"/>
      <point x="224" y="539"/>
      <point x="148" y="620"/>
    </contour>
  </outline>
</glyph>
<glyph name="ordmasculine" format="2">
  <advance width="959"/>
  <unicode hex="00BA"/>
  <outline>
    <contour>
      <point x="72" y="1094" type="qcurve" smooth="yes"/>
      <point x="72" y="1280"/>
      <point x="291" y="1542"/>
      <point x="478" y="1542" type="qcurve" smooth="yes"/>
      <point x="665" y="1542"/>
      <point x="887" y="1297"/>
      <point x="887" y="1099" type="qcurve" smooth="yes"/>
      <point x="887" y="914"/>
      <point x="669" y="646"/>
      <point x="482" y="646" type="qcurve" smooth="yes"/>
      <point x="295" y="646"/>
      <point x="72" y="894"/>
    </contour>
    <contour>
      <point x="238" y="1111" type="qcurve" smooth="yes"/>
      <point x="238" y="927"/>
      <point x="370" y="667"/>
      <point x="476" y="667" type="qcurve" smooth="yes"/>
      <point x="589" y="667"/>
      <point x="715" y="904"/>
      <point x="715" y="1098" type="qcurve" smooth="yes"/>
      <point x="715" y="1281"/>
      <point x="583" y="1520"/>
      <point x="478" y="1520" type="qcurve" smooth="yes"/>
      <point x="363" y="1520"/>
      <point x="237" y="1302"/>
    </contour>
  </outline>
</glyph>
<glyph name="questiondown" format="2">
  <advance width="858"/>
  <unicode hex="00BF"/>
  <outline>
    <contour>
      <point x="627" y="1213" type="qcurve" smooth="yes"/>
      <point x="627" y="1159"/>
      <point x="551" y="1078"/>
      <point x="491" y="1078" type="qcurve" smooth="yes"/>
      <point x="432" y="1078"/>
      <point x="356" y="1159"/>
      <point x="356" y="1213" type="qcurve" smooth="yes"/>
      <point x="356" y="1267"/>
      <point x="432" y="1348"/>
      <point x="491" y="1348" type="qcurve" smooth="yes"/>
      <point x="551" y="1348"/>
      <point x="627" y="1267"/>
    </contour>
    <contour>
      <point x="825" y="89" type="qcurve" smooth="yes"/>
      <point x="825" y="-52"/>
      <point x="611" y="-214"/>
      <point x="426" y="-214" type="qcurve" smooth="yes"/>
      <point x="245" y="-214"/>
      <point x="20" y="-18"/>
      <point x="20" y="163" type="qcurve" smooth="yes"/>
      <point x="20" y="346"/>
      <point x="230" y="502"/>
      <point x="307" y="542" type="qcurve" smooth="yes"/>
      <point x="375" y="577"/>
      <point x="489" y="722"/>
      <point x="490" y="804" type="qcurve" smooth="yes"/>
      <point x="490" y="891" type="line"/>
      <point x="513" y="891" type="line"/>
      <point x="519" y="807" type="line" smooth="yes"/>
      <point x="524" y="731"/>
      <point x="450" y="587"/>
      <point x="350" y="522" type="qcurve" smooth="yes"/>
      <point x="270" y="469"/>
      <point x="195" y="326"/>
      <point x="195" y="148" type="qcurve" smooth="yes"/>
      <point x="195" y="-29"/>
      <point x="338" y="-189"/>
      <point x="455" y="-189" type="qcurve" smooth="yes"/>
      <point x="565" y="-189"/>
      <point x="689" y="-86"/>
      <point x="689" y="5" type="qcurve" smooth="yes"/>
      <point x="689" y="65"/>
      <point x="575" y="118"/>
      <point x="573" y="164" type="qcurve" smooth="yes"/>
      <point x="571" y="202"/>
      <point x="628" y="262"/>
      <point x="685" y="262" type="qcurve" smooth="yes"/>
      <point x="747" y="262"/>
      <point x="825" y="174"/>
    </contour>
  </outline>
</glyph>
<glyph name="multiply" format="2">
  <advance width="970"/>
  <unicode hex="00D7"/>
  <outline>
    <contour>
      <point x="202" y="334" type="line"/>
      <point x="180" y="355" type="line"/>
      <point x="762" y="937" type="line"/>
      <point x="783" y="915" type="line"/>
    </contour>
    <contour>
      <point x="764" y="330" type="line"/>
      <point x="183" y="911" type="line"/>
      <point x="206" y="934" type="line"/>
      <point x="787" y="353" type="line"/>
    </contour>
  </outline>
</glyph>
<glyph name="germandbls" format="2">
  <advance width="1221"/>
  <unicode hex="00DF"/>
  <outline>
    <contour>
      <point x="931" y="1256" type="qcurve" smooth="yes"/>
      <point x="931" y="1147"/>
      <point x="831" y="1038"/>
      <point x="749" y="997" type="qcurve" smooth="yes"/>
      <point x="672" y="961"/>
      <point x="598" y="889"/>
      <point x="598" y="827" type="qcurve" smooth="yes"/>
      <point x="598" y="753"/>
      <point x="726" y="661"/>
      <point x="875" y="616" type="qcurve" smooth="yes"/>
      <point x="1024" y="569"/>
      <point x="1173" y="429"/>
      <point x="1173" y="286" type="qcurve" smooth="yes"/>
      <point x="1173" y="160"/>
      <point x="990" y="-23"/>
      <point x="853" y="-23" type="qcurve" smooth="yes"/>
      <point x="759" y="-23"/>
      <point x="636" y="31"/>
      <point x="583" y="73" type="qcurve"/>
      <point x="544" y="0" type="line"/>
      <point x="521" y="0" type="line"/>
      <point x="521" y="345" type="line"/>
      <point x="548" y="345" type="line"/>
      <point x="558" y="280" type="line" smooth="yes"/>
      <point x="582" y="136"/>
      <point x="752" y="2"/>
      <point x="854" y="2" type="qcurve" smooth="yes"/>
      <point x="938" y="2"/>
      <point x="1070" y="104"/>
      <point x="1070" y="212" type="qcurve" smooth="yes"/>
      <point x="1070" y="321"/>
      <point x="940" y="426"/>
      <point x="800" y="475" type="qcurve" smooth="yes"/>
      <point x="651" y="528"/>
      <point x="541" y="653"/>
      <point x="541" y="760" type="qcurve" smooth="yes"/>
      <point x="541" y="869"/>
      <point x="645" y="982"/>
      <point x="724" y="1019" type="qcurve" smooth="yes"/>
      <point x="795" y="1052"/>
      <point x="902" y="1156"/>
      <point x="902" y="1247" type="qcurve" smooth="yes"/>
      <point x="902" y="1348"/>
      <point x="775" y="1475"/>
      <point x="650" y="1475" type="qcurve" smooth="yes"/>
      <point x="519" y="1475"/>
      <point x="371" y="1284"/>
      <point x="372" y="1109" type="qcurve"/>
      <point x="376" y="527" type="line"/>
      <point x="389" y="45" type="line"/>
      <point x="364" y="0" type="line"/>
      <point x="84" y="0" type="line"/>
      <point x="84" y="20" type="line"/>
      <point x="222" y="55" type="line"/>
      <point x="224" y="527" type="line"/>
      <point x="226" y="1086" type="line" smooth="yes"/>
      <point x="227" y="1269"/>
      <point x="473" y="1500"/>
      <point x="655" y="1500" type="qcurve" smooth="yes"/>
      <point x="791" y="1500"/>
      <point x="931" y="1357"/>
    </contour>
  </outline>
</glyph>
<glyph name="ae" format="2">
  <advance width="1520"/>
  <unicode hex="00E6"/>
  <anchor x="776" y="921" name="top"/>
  <outline>
    <contour>
      <point x="82" y="225" type="qcurve" smooth="yes"/>
      <point x="82" y="350"/>
      <point x="375" y="501"/>
      <point x="721" y="548" type="qcurve"/>
      <point x="726" y="527" type="line"/>
      <point x="496" y="498"/>
      <point x="250" y="353"/>
      <point x="250" y="224" type="qcurve" smooth="yes"/>
      <point x="250" y="122"/>
      <point x="325" y="15"/>
      <point x="401" y="15" type="qcurve" smooth="yes"/>
      <point x="481" y="15"/>
      <point x="669" y="139"/>
      <point x="714" y="190" type="qcurve"/>
      <point x="686" y="233"/>
      <point x="654" y="356"/>
      <point x="654" y="445" type="qcurve" smooth="yes"/>
      <point x="654" y="554" type="line" smooth="yes"/>
      <point x="654" y="776"/>
      <point x="556" y="911"/>
      <point x="473" y="911" type="qcurve" smooth="yes"/>
      <point x="394" y="911"/>
      <point x="268" y="860"/>
      <point x="218" y="804" type="qcurve"/>
      <point x="245" y="776"/>
      <point x="306" y="699"/>
      <point x="311" y="671" type="qcurve" smooth="yes"/>
      <point x="318" y="631"/>
      <point x="275" y="575"/>
      <point x="235" y="575" type="qcurve" smooth="yes"/>
      <point x="193" y="575"/>
      <point x="142" y="640"/>
      <point x="142" y="701" type="qcurve" smooth="yes"/>
      <point x="142" y="802"/>
      <point x="338" y="937"/>
      <point x="483" y="937" type="qcurve" smooth="yes"/>
      <point x="604" y="937"/>
      <point x="734" y="847"/>
      <point x="758" y="781" type="qcurve"/>
      <point x="764" y="781" type="line"/>
      <point x="797" y="840"/>
      <point x="967" y="936"/>
      <point x="1082" y="936" type="qcurve" smooth="yes"/>
      <point x="1257" y="936"/>
      <point x="1451" y="726"/>
      <point x="1468" y="538" type="qcurve"/>
      <point x="1468" y="503" type="line"/>
      <point x="732" y="503" type="line"/>
      <point x="732" y="526" type="line"/>
      <point x="1309" y="526" type="line"/>
      <point x="1295" y="714"/>
      <point x="1163" y="909"/>
      <point x="1064" y="909" type="qcurve" smooth="yes"/>
      <point x="941" y="909"/>
      <point x="804" y="636"/>
      <point x="805" y="416" type="qcurve" smooth="yes"/>
      <point x="806" y="220"/>
      <point x="977" y="9"/>
      <point x="1136" y="9" type="qcurve" smooth="yes"/>
      <point x="1224" y="9"/>
      <point x="1375" y="77"/>
      <point x="1418" y="136" type="qcurve"/>
      <point x="1433" y="116" type="line"/>
      <point x="1391" y="58"/>
      <point x="1232" y="-22"/>
      <point x="1112" y="-22" type="qcurve" smooth="yes"/>
      <point x="956" y="-22"/>
      <point x="772" y="90"/>
      <point x="723" y="170" type="qcurve"/>
      <point x="671" y="109"/>
      <point x="482" y="-17"/>
      <point x="350" y="-17" type="qcurve" smooth="yes"/>
      <point x="214" y="-17"/>
      <point x="82" y="125"/>
    </contour>
  </outline>
</glyph>
<glyph name="eth" format="2">
  <advance width="1117"/>
  <unicode hex="00F0"/>
  <outline>
    <contour>
      <point x="48" y="490" type="qcurve" smooth="yes"/>
      <point x="48" y="707"/>
      <point x="327" y="1004"/>
      <point x="554" y="1004" type="qcurve" smooth="yes"/>
      <point x="781" y="1004"/>
      <point x="998" y="721"/>
      <point x="1008" y="496" type="qcurve"/>
      <point x="897" y="496" type="line"/>
      <point x="917" y="661"/>
      <point x="731" y="888"/>
      <point x="554" y="888" type="qcurve" smooth="yes"/>
      <point x="390" y="888"/>
      <point x="215" y="690"/>
      <point x="216" y="510" type="qcurve" smooth="yes"/>
      <point x="217" y="329"/>
      <point x="401" y="87"/>
      <point x="552" y="88" type="qcurve" smooth="yes"/>
      <point x="725" y="89"/>
      <point x="903" y="363"/>
      <point x="903" y="621" type="qcurve" smooth="yes"/>
      <point x="903" y="981"/>
      <point x="548" y="1387"/>
      <point x="250" y="1486" type="qcurve"/>
      <point x="286" y="1584" type="line"/>
      <point x="672" y="1474"/>
      <point x="1070" y="952"/>
      <point x="1070" y="624" type="qcurve" smooth="yes"/>
      <point x="1070" y="325"/>
      <point x="803" y="-22"/>
      <point x="559" y="-22" type="qcurve" smooth="yes"/>
      <point x="331" y="-22"/>
      <point x="48" y="257"/>
    </contour>
    <contour>
      <point x="394" y="1214" type="line"/>
      <point x="860" y="1534" type="line"/>
      <point x="927" y="1445" type="line"/>
      <point x="461" y="1125" type="line"/>
    </contour>
  </outline>
</glyph>
<glyph name="idotless" format="2">
  <advance width="628"/>
  <unicode hex="0131"/>
  <anchor x="315" y="0" name="bottom"/>
  <anchor x="314" y="910" name="top"/>
  <anchor x="502" y="0" name="ogonek"/>
  <outline>
    <contour>
      <point x="107" y="0" type="line"/>
      <point x="107" y="20" type="line"/>
      <point x="245" y="55" type="line"/>
      <point x="247" y="527" type="line"/>
      <point x="240" y="834" type="line"/>
      <point x="102" y="864" type="line"/>
      <point x="102" y="891" type="line"/>
      <point x="338" y="921" type="line"/>
      <point x="385" y="921" type="line"/>
      <point x="408" y="882" type="line"/>
      <point x="402" y="527" type="line"/>
      <point x="404" y="55" type="line"/>
      <point x="542" y="20" type="line"/>
      <point x="542" y="0" type="line"/>
    </contour>
  </outline>
</glyph>
<glyph name="kgreenlandic" format="2">
  <advance width="1062"/>
  <unicode hex="0138"/>
  <outline>
    <contour>
      <point x="58" y="0" type="line"/>
      <point x="58" y="20" type="line"/>
      <point x="172" y="55" type="line"/>
      <point x="174" y="485" type="line"/>
      <point x="172" y="866" type="line"/>
      <point x="58" y="901" type="line"/>
      <point x="58" y="921" type="line"/>
      <point x="445" y="921" type="line"/>
      <point x="445" y="901" type="line"/>
      <point x="331" y="866" type="line"/>
      <point x="329" y="467" type="line"/>
      <point x="331" y="55" type="line"/>
      <point x="444" y="20" type="line"/>
      <point x="444" y="0" type="line"/>
    </contour>
    <contour>
      <point x="553" y="601" type="line"/>
      <point x="553" y="645" type="line"/>
      <point x="825" y="861" type="line"/>
      <point x="657" y="901" type="line"/>
      <point x="657" y="921" type="line"/>
      <point x="901" y="921" type="line"/>
      <point x="901" y="901" type="line"/>
      <point x="854" y="856" type="line"/>
    </contour>
    <contour>
      <point x="390" y="545" type="line"/>
      <point x="566" y="567" type="line"/>
      <point x="960" y="55" type="line"/>
      <point x="1010" y="20" type="line"/>
      <point x="1010" y="0" type="line"/>
      <point x="681" y="0" type="line"/>
      <point x="680" y="20" type="line"/>
      <point x="771" y="51" type="line"/>
    </contour>
  </outline>
</glyph>
<glyph name="Schwa" format="2">
  <advance width="1422"/>
  <unicode hex="018F"/>
  <outline>
    <contour>
      <point x="64" y="1199" type="line"/>
      <point x="159" y="1353"/>
      <point x="446" y="1519"/>
      <point x="659" y="1519" type="qcurve" smooth="yes"/>
      <point x="986" y="1519"/>
      <point x="1342" y="1094"/>
      <point x="1342" y="789" type="qcurve" smooth="yes"/>
      <point x="1342" y="445"/>
      <point x="966" y="-30"/>
      <point x="682" y="-30" type="qcurve" smooth="yes"/>
      <point x="412" y="-30"/>
      <point x="104" y="281"/>
      <point x="104" y="578" type="qcurve" smooth="yes"/>
      <point x="104" y="686" type="line"/>
      <point x="1036" y="686" type="line"/>
      <point x="1112" y="554" type="line"/>
      <point x="658" y="562" type="line"/>
      <point x="287" y="556" type="line"/>
      <point x="287" y="481" type="line" smooth="yes"/>
      <point x="287" y="315"/>
      <point x="492" y="97"/>
      <point x="691" y="97" type="qcurve" smooth="yes"/>
      <point x="901" y="97"/>
      <point x="1166" y="462"/>
      <point x="1164" y="749" type="qcurve" smooth="yes"/>
      <point x="1162" y="1047"/>
      <point x="853" y="1375"/>
      <point x="643" y="1375" type="qcurve" smooth="yes"/>
      <point x="463" y="1375"/>
      <point x="217" y="1233"/>
      <point x="157" y="1126" type="qcurve"/>
    </contour>
  </outline>
</glyph>
<glyph name="schwa" format="2">
  <advance width="1028"/>
  <unicode hex="0259"/>
  <outline>
    <contour>
      <point x="964" y="500" type="qcurve" smooth="yes"/>
      <point x="964" y="283"/>
      <point x="705" y="-22"/>
      <point x="497" y="-22" type="qcurve" smooth="yes"/>
      <point x="308" y="-22"/>
      <point x="91" y="206"/>
      <point x="72" y="412" type="qcurve"/>
      <point x="72" y="472" type="line"/>
      <point x="434" y="472" type="line"/>
      <point x="511" y="376" type="line"/>
      <point x="229" y="376" type="line"/>
      <point x="247" y="237"/>
      <point x="394" y="92"/>
      <point x="506" y="92" type="qcurve" smooth="yes"/>
      <point x="644" y="92"/>
      <point x="796" y="300"/>
      <point x="795" y="480" type="qcurve" smooth="yes"/>
      <point x="794" y="681"/>
      <point x="596" y="892"/>
      <point x="435" y="892" type="qcurve" smooth="yes"/>
      <point x="336" y="892"/>
      <point x="204" y="849"/>
      <point x="159" y="812" type="qcurve"/>
      <point x="108" y="872" type="line"/>
      <point x="154" y="935"/>
      <point x="337" y="1022"/>
      <point x="485" y="1022" type="qcurve" smooth="yes"/>
      <point x="690" y="1022"/>
      <point x="964" y="751"/>
    </contour>
  </outline>
</glyph>
<glyph name="hookabovecomb" format="2">
  <advance width="307"/>
  <unicode hex="0309"/>
  <anchor x="154" y="1000" name="_top"/>
  <anchor x="154" y="1597" name="top"/>
  <outline>
    <contour>
      <point x="38" y="1150" type="line"/>
      <point x="38" y="1233" type="line"/>
      <point x="117" y="1321" type="line"/>
      <point x="134" y="1315"/>
      <point x="166" y="1310"/>
      <point x="180" y="1310" type="qcurve" smooth="yes"/>
      <point x="221" y="1310"/>
      <point x="272" y="1354"/>
      <point x="272" y="1396" type="qcurve" smooth="yes"/>
      <point x="272" y="1436"/>
      <point x="217" y="1478"/>
      <point x="171" y="1478" type="qcurve" smooth="yes"/>
      <point x="124" y="1478"/>
      <point x="27" y="1454"/>
      <point x="-12" y="1435" type="qcurve"/>
      <point x="-56" y="1539" type="line"/>
      <point x="4" y="1565"/>
      <point x="117" y="1597"/>
      <point x="168" y="1597" type="qcurve" smooth="yes"/>
      <point x="276" y="1597"/>
      <point x="414" y="1492"/>
      <point x="414" y="1389" type="qcurve" smooth="yes"/>
      <point x="414" y="1304"/>
      <point x="320" y="1197"/>
      <point x="254" y="1197" type="qcurve" smooth="yes"/>
      <point x="229" y="1197"/>
      <point x="181" y="1206"/>
      <point x="165" y="1210" type="qcurve"/>
      <point x="165" y="1150" type="line"/>
    </contour>
  </outline>
</glyph>
<glyph name="ringcomb" format="2">
  <unicode hex="030A"/>
  <anchor x="0" y="1000" name="_top"/>
  <anchor x="0" y="1565" name="top"/>
  <outline>
    <contour>
      <point x="-194" y="1347" type="qcurve" smooth="yes"/>
      <point x="-194" y="1427"/>
      <point x="-81" y="1532"/>
      <point x="0" y="1532" type="qcurve" smooth="yes"/>
      <point x="80" y="1532"/>
      <point x="194" y="1422"/>
      <point x="194" y="1347" type="qcurve" smooth="yes"/>
      <point x="194" y="1268"/>
      <point x="81" y="1162"/>
      <point x="0" y="1162" type="qcurve" smooth="yes"/>
      <point x="-81" y="1162"/>
      <point x="-194" y="1269"/>
    </contour>
    <contour>
      <point x="-167" y="1347" type="qcurve" smooth="yes"/>
      <point x="-167" y="1280"/>
      <point x="-70" y="1188"/>
      <point x="0" y="1188" type="qcurve" smooth="yes"/>
      <point x="72" y="1188"/>
      <point x="167" y="1279"/>
      <point x="167" y="1347" type="qcurve" smooth="yes"/>
      <point x="167" y="1410"/>
      <point x="70" y="1506"/>
      <point x="0" y="1506" type="qcurve" smooth="yes"/>
      <point x="-72" y="1506"/>
      <point x="-167" y="1417"/>
    </contour>
  </outline>
</glyph>
<glyph name="Gamma" format="2">
  <advance width="1124"/>
  <unicode hex="0393"/>
  <anchor x="654" y="1500" name="top"/>
  <outline>
    <contour>
      <point x="82" y="0" type="line"/>
      <point x="82" y="100" type="line"/>
      <point x="290" y="137" type="line"/>
      <point x="292" y="760" type="line"/>
      <point x="290" y="1352" type="line"/>
      <point x="82" y="1386" type="line"/>
      <point x="82" y="1500" type="line"/>
      <point x="1074" y="1500" type="line"/>
      <point x="1074" y="1124" type="line"/>
      <point x="952" y="1124" type="line"/>
      <point x="915" y="1474" type="line"/>
      <point x="488" y="1474" type="line"/>
      <point x="458" y="1454" type="line"/>
      <point x="456" y="760" type="line"/>
      <point x="458" y="132" type="line"/>
      <point x="686" y="100" type="line"/>
      <point x="686" y="0" type="line"/>
    </contour>
  </outline>
</glyph>
<glyph name="Delta" format="2">
  <advance width="1296"/>
  <unicode hex="0394"/>
  <outline>
    <contour>
      <point x="137" y="0" type="line"/>
      <point x="137" y="28" type="line"/>
      <point x="300" y="525" type="line"/>
      <point x="535" y="1508" type="line"/>
      <point x="715" y="1508" type="line"/>
      <point x="979" y="546" type="line"/>
      <point x="1168" y="29" type="line"/>
      <point x="1168" y="0" type="line"/>
    </contour>
    <contour>
      <point x="181" y="24" type="line"/>
      <point x="608" y="22" type="line"/>
      <point x="966" y="24" type="line"/>
      <point x="974" y="30" type="line"/>
      <point x="833" y="412" type="line"/>
      <point x="639" y="1016" type="line"/>
      <point x="572" y="1313" type="line"/>
      <point x="563" y="1313" type="line"/>
      <point x="502" y="1000" type="line"/>
      <point x="258" y="325" type="line"/>
      <point x="173" y="30" type="line"/>
    </contour>
  </outline>
</glyph>
<glyph name="Sigma" format="2">
  <advance width="1069"/>
  <unicode hex="03A3"/>
  <outline>
    <contour>
      <point x="55" y="0" type="line"/>
      <point x="45" y="27" type="line"/>
      <point x="461" y="641" type="line"/>
      <point x="461" y="651" type="line"/>
      <point x="47" y="1415" type="line"/>
      <point x="47" y="1500" type="line"/>
      <point x="957" y="1500" type="line"/>
      <point x="957" y="1097" type="line"/>
      <point x="930" y="1097" type="line"/>
      <point x="894" y="1474" type="line"/>
      <point x="205" y="1474" type="line"/>
      <point x="196" y="1466" type="line"/>
      <point x="615" y="723" type="line"/>
      <point x="615" y="775" type="line"/>
      <point x="78" y="30" type="line"/>
      <point x="86" y="24" type="line"/>
      <point x="897" y="24" type="line"/>
      <point x="978" y="380" type="line"/>
      <point x="1006" y="380" type="line"/>
      <point x="959" y="0" type="line"/>
    </contour>
  </outline>
</glyph>
<glyph name="Psi" format="2">
  <advance width="1728"/>
  <unicode hex="03A8"/>
  <outline>
    <contour>
      <point x="607" y="0" type="line"/>
      <point x="607" y="24" type="line"/>
      <point x="780" y="59" type="line"/>
      <point x="781" y="511" type="line"/>
      <point x="785" y="511" type="line"/>
      <point x="785" y="811" type="line"/>
      <point x="780" y="1439" type="line"/>
      <point x="639" y="1473" type="line"/>
      <point x="639" y="1500" type="line"/>
      <point x="1088" y="1500" type="line"/>
      <point x="1088" y="1473" type="line"/>
      <point x="948" y="1439" type="line"/>
      <point x="942" y="811" type="line"/>
      <point x="942" y="511" type="line"/>
      <point x="947" y="511" type="line"/>
      <point x="948" y="59" type="line"/>
      <point x="1120" y="24" type="line"/>
      <point x="1120" y="0" type="line"/>
    </contour>
    <contour>
      <point x="864" y="499" type="qcurve"/>
      <point x="515" y="499"/>
      <point x="288" y="736"/>
      <point x="262" y="1007" type="qcurve" smooth="yes"/>
      <point x="224" y="1439" type="line"/>
      <point x="100" y="1473" type="line"/>
      <point x="100" y="1500" type="line"/>
      <point x="355" y="1500" type="line"/>
      <point x="388" y="1477" type="line"/>
      <point x="428" y="1013" type="line" smooth="yes"/>
      <point x="453" y="719"/>
      <point x="644" y="525"/>
      <point x="864" y="525" type="qcurve"/>
      <point x="1085" y="525"/>
      <point x="1273" y="722"/>
      <point x="1300" y="1013" type="qcurve" smooth="yes"/>
      <point x="1340" y="1477" type="line"/>
      <point x="1373" y="1500" type="line"/>
      <point x="1628" y="1500" type="line"/>
      <point x="1628" y="1473" type="line"/>
      <point x="1503" y="1439" type="line"/>
      <point x="1466" y="1007" type="line" smooth="yes"/>
      <point x="1442" y="734"/>
      <point x="1211" y="499"/>
    </contour>
  </outline>
</glyph>
<glyph name="beta" format="2">
  <advance width="1071"/>
  <unicode hex="03B2"/>
  <outline>
    <contour>
      <point x="177" y="-480" type="line"/>
      <point x="153" y="-445" type="line"/>
      <point x="162" y="141" type="line"/>
      <point x="162" y="395" type="line"/>
      <point x="161" y="1078" type="line" smooth="yes"/>
      <point x="160" y="1291"/>
      <point x="362" y="1537"/>
      <point x="543" y="1537" type="qcurve" smooth="yes"/>
      <point x="712" y="1537"/>
      <point x="902" y="1337"/>
      <point x="902" y="1186" type="qcurve"/>
      <point x="902" y="1096"/>
      <point x="814" y="910"/>
      <point x="722" y="860" type="qcurve"/>
      <point x="722" y="853" type="line"/>
      <point x="857" y="804"/>
      <point x="1003" y="600"/>
      <point x="1003" y="453" type="qcurve"/>
      <point x="1003" y="263"/>
      <point x="776" y="-12"/>
      <point x="563" y="-12" type="qcurve"/>
      <point x="483" y="-12"/>
      <point x="352" y="54"/>
      <point x="316" y="89" type="qcurve"/>
      <point x="323" y="-460" type="line"/>
    </contour>
    <contour>
      <point x="564" y="16" type="qcurve"/>
      <point x="685" y="16"/>
      <point x="832" y="241"/>
      <point x="832" y="453" type="qcurve"/>
      <point x="832" y="598"/>
      <point x="726" y="798"/>
      <point x="620" y="842" type="qcurve"/>
      <point x="398" y="829" type="line"/>
      <point x="392" y="838" type="line"/>
      <point x="404" y="875" type="line"/>
      <point x="620" y="869" type="line"/>
      <point x="703" y="926"/>
      <point x="756" y="1101"/>
      <point x="756" y="1186" type="qcurve"/>
      <point x="756" y="1321"/>
      <point x="640" y="1511"/>
      <point x="543" y="1511" type="qcurve" smooth="yes"/>
      <point x="441" y="1511"/>
      <point x="316" y="1299"/>
      <point x="316" y="1077" type="qcurve" smooth="yes"/>
      <point x="317" y="122" type="line"/>
      <point x="359" y="78"/>
      <point x="487" y="16"/>
    </contour>
  </outline>
</glyph>
<glyph name="iota" format="2">
  <advance width="563"/>
  <unicode hex="03B9"/>
  <anchor x="245" y="1000" name="GRKtop"/>
  <outline>
    <contour>
      <point x="311" y="-8" type="line"/>
      <point x="234" y="-6"/>
      <point x="158" y="87"/>
      <point x="158" y="163" type="qcurve"/>
      <point x="158" y="326" type="line"/>
      <point x="151" y="979" type="line"/>
      <point x="309" y="1000" type="line"/>
      <point x="332" y="966" type="line"/>
      <point x="311" y="270" type="line"/>
      <point x="311" y="170"/>
      <point x="365" y="109"/>
      <point x="409" y="109" type="qcurve"/>
      <point x="483" y="109" type="line"/>
      <point x="483" y="29" type="line"/>
    </contour>
  </outline>
</glyph>
<glyph name="kappa" format="2">
  <advance width="1032"/>
  <unicode hex="03BA"/>
  <outline>
    <contour>
      <point x="175" y="0" type="line"/>
      <point x="152" y="34" type="line"/>
      <point x="157" y="424" type="line"/>
      <point x="151" y="979" type="line"/>
      <point x="309" y="1000" type="line"/>
      <point x="332" y="966" type="line"/>
      <point x="316" y="426" type="line"/>
      <point x="322" y="20" type="line"/>
    </contour>
    <contour>
      <point x="232" y="208" type="line"/>
      <point x="232" y="245" type="line"/>
      <point x="614" y="783" type="line" smooth="yes"/>
      <point x="687" y="886"/>
      <point x="826" y="1008"/>
      <point x="924" y="1010" type="qcurve"/>
      <point x="947" y="976" type="line"/>
      <point x="933" y="843" type="line"/>
      <point x="822" y="843"/>
      <point x="661" y="805"/>
      <point x="624" y="754" type="qcurve" smooth="yes"/>
    </contour>
    <contour>
      <point x="819" y="-8" type="line"/>
      <point x="763" y="-6"/>
      <point x="691" y="36"/>
      <point x="664" y="85" type="qcurve" smooth="yes"/>
      <point x="431" y="502" type="line"/>
      <point x="597" y="516" type="line"/>
      <point x="774" y="189" type="line" smooth="yes"/>
      <point x="802" y="137"/>
      <point x="854" y="108"/>
      <point x="913" y="108" type="qcurve" smooth="yes"/>
      <point x="987" y="108" type="line"/>
      <point x="987" y="28" type="line"/>
    </contour>
  </outline>
</glyph>
<glyph name="xi" format="2">
  <advance width="841"/>
  <unicode hex="03BE"/>
  <outline>
    <contour>
      <point x="650" y="-313" type="line"/>
      <point x="606" y="-75" type="line" smooth="yes"/>
      <point x="599" y="-39"/>
      <point x="579" y="43"/>
      <point x="549" y="46" type="qcurve" smooth="yes"/>
      <point x="493" y="52" type="line" smooth="yes"/>
      <point x="295" y="73"/>
      <point x="61" y="268"/>
      <point x="61" y="424" type="qcurve"/>
      <point x="61" y="554"/>
      <point x="198" y="759"/>
      <point x="353" y="812" type="qcurve"/>
      <point x="353" y="819" type="line"/>
      <point x="241" y="858"/>
      <point x="123" y="991"/>
      <point x="123" y="1095" type="qcurve" smooth="yes"/>
      <point x="123" y="1177"/>
      <point x="213" y="1302"/>
      <point x="291" y="1333" type="qcurve"/>
      <point x="262" y="1356" type="line"/>
      <point x="103" y="1346" type="line"/>
      <point x="78" y="1380" type="line"/>
      <point x="91" y="1512" type="line"/>
      <point x="800" y="1500" type="line"/>
      <point x="800" y="1473" type="line"/>
      <point x="720" y="1455" type="line" smooth="yes"/>
      <point x="484" y="1408"/>
      <point x="291" y="1247"/>
      <point x="291" y="1111" type="qcurve"/>
      <point x="291" y="1019"/>
      <point x="372" y="852"/>
      <point x="449" y="826" type="qcurve"/>
      <point x="719" y="909" type="line"/>
      <point x="743" y="875" type="line"/>
      <point x="697" y="724" type="line"/>
      <point x="449" y="799" type="line"/>
      <point x="352" y="761"/>
      <point x="228" y="579"/>
      <point x="228" y="424" type="qcurve"/>
      <point x="228" y="273"/>
      <point x="385" y="93"/>
      <point x="508" y="82" type="qcurve" smooth="yes"/>
      <point x="645" y="71" type="line" smooth="yes"/>
      <point x="721" y="65"/>
      <point x="766" y="39"/>
      <point x="768" y="5" type="qcurve"/>
      <point x="730" y="-313" type="line"/>
    </contour>
  </outline>
</glyph>
<glyph name="pi" format="2">
  <advance width="1159"/>
  <unicode hex="03C0"/>
  <outline>
    <contour>
      <point x="20" y="967" type="line"/>
      <point x="20" y="986" type="line"/>
      <point x="166" y="1000" type="line"/>
      <point x="1079" y="1010" type="line"/>
      <point x="1102" y="976" type="line"/>
      <point x="1088" y="844" type="line"/>
    </contour>
    <contour>
      <point x="227" y="0" type="line"/>
      <point x="203" y="34" type="line"/>
      <point x="267" y="470" type="line"/>
      <point x="335" y="971" type="line"/>
      <point x="365" y="971" type="line"/>
      <point x="367" y="470" type="line"/>
      <point x="373" y="20" type="line"/>
    </contour>
    <contour>
      <point x="891" y="-8" type="line"/>
      <point x="815" y="-7"/>
      <point x="719" y="98"/>
      <point x="725" y="232" type="qcurve" smooth="yes"/>
      <point x="800" y="933" type="line"/>
      <point x="835" y="933" type="line"/>
      <point x="883" y="265" type="line" smooth="yes"/>
      <point x="884" y="176"/>
      <point x="943" y="108"/>
      <point x="993" y="108" type="qcurve"/>
      <point x="1061" y="108" type="line"/>
      <point x="1061" y="28" type="line"/>
    </contour>
  </outline>
</glyph>
<glyph name="sigma" format="2">
  <advance width="1072"/>
  <unicode hex="03C3"/>
  <outline>
    <contour>
      <point x="481" y="-22" type="qcurve"/>
      <point x="300" y="-22"/>
      <point x="64" y="246"/>
      <point x="64" y="470" type="qcurve"/>
      <point x="64" y="709"/>
      <point x="337" y="991"/>
      <point x="652" y="1000" type="qcurve" smooth="yes"/>
      <point x="985" y="1010" type="line"/>
      <point x="1009" y="976" type="line"/>
      <point x="996" y="843" type="line"/>
      <point x="752" y="968" type="line"/>
      <point x="752" y="962" type="line"/>
      <point x="815" y="892"/>
      <point x="913" y="683"/>
      <point x="913" y="517" type="qcurve"/>
      <point x="913" y="260"/>
      <point x="687" y="-22"/>
    </contour>
    <contour>
      <point x="481" y="3" type="qcurve"/>
      <point x="608" y="3"/>
      <point x="739" y="261"/>
      <point x="739" y="492" type="qcurve" smooth="yes"/>
      <point x="739" y="667"/>
      <point x="674" y="896"/>
      <point x="619" y="966" type="qcurve"/>
      <point x="585" y="964" type="line" smooth="yes"/>
      <point x="400" y="955"/>
      <point x="232" y="713"/>
      <point x="232" y="492" type="qcurve" smooth="yes"/>
      <point x="232" y="258"/>
      <point x="364" y="3"/>
    </contour>
  </outline>
</glyph>
<glyph name="chi" format="2">
  <advance width="969"/>
  <unicode hex="03C7"/>
  <outline>
    <contour>
      <point x="72" y="-480" type="line"/>
      <point x="48" y="-446" type="line"/>
      <point x="364" y="37" type="line"/>
      <point x="457" y="238" type="line"/>
      <point x="191" y="806" type="line" smooth="yes"/>
      <point x="174" y="841"/>
      <point x="130" y="870"/>
      <point x="81" y="879" type="qcurve" smooth="yes"/>
      <point x="10" y="891" type="line"/>
      <point x="10" y="971" type="line"/>
      <point x="176" y="1008" type="line"/>
      <point x="225" y="1008"/>
      <point x="290" y="964"/>
      <point x="309" y="918" type="qcurve" smooth="yes"/>
      <point x="490" y="497" type="line"/>
      <point x="532" y="383" type="line"/>
      <point x="538" y="383" type="line"/>
      <point x="613" y="534" type="line"/>
      <point x="768" y="980" type="line"/>
      <point x="918" y="1000" type="line"/>
      <point x="941" y="966" type="line"/>
      <point x="633" y="516" type="line"/>
      <point x="608" y="244" type="line"/>
      <point x="850" y="-293" type="line"/>
      <point x="873" y="-340"/>
      <point x="917" y="-373"/>
      <point x="987" y="-373" type="qcurve"/>
      <point x="1029" y="-373" type="line"/>
      <point x="1029" y="-453" type="line"/>
      <point x="864" y="-488" type="line"/>
      <point x="809" y="-488"/>
      <point x="745" y="-443"/>
      <point x="724" y="-391" type="qcurve" smooth="yes"/>
      <point x="531" y="70" type="line"/>
      <point x="478" y="212" type="line"/>
      <point x="471" y="213" type="line"/>
      <point x="385" y="22" type="line"/>
      <point x="222" y="-460" type="line"/>
    </contour>
  </outline>
</glyph>
<glyph name="omega" format="2">
  <advance width="1360"/>
  <unicode hex="03C9"/>
  <anchor x="681" y="1000" name="GRKtop"/>
  <outline>
    <contour>
      <point x="426" y="-22" type="qcurve"/>
      <point x="261" y="-22"/>
      <point x="69" y="249"/>
      <point x="69" y="445" type="qcurve"/>
      <point x="69" y="652"/>
      <point x="250" y="931"/>
      <point x="396" y="1025" type="qcurve"/>
      <point x="412" y="1011" type="line"/>
      <point x="318" y="919"/>
      <point x="237" y="648"/>
      <point x="237" y="445" type="qcurve"/>
      <point x="237" y="251"/>
      <point x="340" y="7"/>
      <point x="428" y="7" type="qcurve"/>
      <point x="517" y="7"/>
      <point x="634" y="156"/>
      <point x="648" y="284" type="qcurve"/>
      <point x="589" y="691" type="line"/>
      <point x="738" y="737" type="line"/>
      <point x="772" y="714" type="line"/>
      <point x="706" y="284" type="line"/>
      <point x="717" y="161"/>
      <point x="835" y="7"/>
      <point x="925" y="7" type="qcurve" smooth="yes"/>
      <point x="1013" y="7"/>
      <point x="1118" y="251"/>
      <point x="1118" y="444" type="qcurve" smooth="yes"/>
      <point x="1118" y="649"/>
      <point x="1040" y="914"/>
      <point x="941" y="1012" type="qcurve"/>
      <point x="968" y="1029" type="line"/>
      <point x="1117" y="927"/>
      <point x="1291" y="652"/>
      <point x="1291" y="444" type="qcurve"/>
      <point x="1291" y="249"/>
      <point x="1093" y="-22"/>
      <point x="926" y="-22" type="qcurve"/>
      <point x="826" y="-22"/>
      <point x="703" y="133"/>
      <point x="683" y="268" type="qcurve"/>
      <point x="670" y="268" type="line"/>
      <point x="650" y="135"/>
      <point x="529" y="-22"/>
    </contour>
  </outline>
</glyph>
<glyph name="Dje" format="2">
  <advance width="1611"/>
  <unicode hex="0402"/>
  <guideline x="568" y="625" angle="90.0" identifier="YDADns81zF"/>
  <outline>
    <contour>
      <point x="1045" y="852" type="qcurve" smooth="yes"/>
      <point x="900" y="852"/>
      <point x="719" y="804"/>
      <point x="618" y="765" type="qcurve"/>
      <point x="618" y="799" type="line"/>
      <point x="718" y="834"/>
      <point x="908" y="881"/>
      <point x="1047" y="881" type="qcurve" smooth="yes"/>
      <point x="1295" y="881"/>
      <point x="1551" y="638"/>
      <point x="1551" y="438" type="qcurve" smooth="yes"/>
      <point x="1551" y="247"/>
      <point x="1345" y="0"/>
      <point x="1159" y="0" type="qcurve"/>
      <point x="1159" y="22" type="line"/>
      <point x="1263" y="31"/>
      <point x="1371" y="250"/>
      <point x="1371" y="423" type="qcurve" smooth="yes"/>
      <point x="1371" y="624"/>
      <point x="1196" y="852"/>
    </contour>
    <contour>
      <point x="40" y="1118" type="line"/>
      <point x="40" y="1500" type="line"/>
      <point x="1236" y="1500" type="line"/>
      <point x="1236" y="1158" type="line"/>
      <point x="1126" y="1158" type="line"/>
      <point x="1091" y="1474" type="line"/>
      <point x="721" y="1474" type="line"/>
      <point x="702" y="1454" type="line"/>
      <point x="700" y="754" type="line"/>
      <point x="702" y="136" type="line"/>
      <point x="919" y="100" type="line"/>
      <point x="919" y="0" type="line"/>
      <point x="315" y="0" type="line"/>
      <point x="315" y="100" type="line"/>
      <point x="534" y="136" type="line"/>
      <point x="536" y="754" type="line"/>
      <point x="534" y="1454" type="line"/>
      <point x="525" y="1474" type="line"/>
      <point x="185" y="1474" type="line"/>
      <point x="150" y="1118" type="line"/>
    </contour>
  </outline>
</glyph>
<glyph name="Ieukran" format="2">
  <advance width="1328"/>
  <unicode hex="0404"/>
  <outline>
    <contour>
      <point x="80" y="700" type="qcurve" smooth="yes"/>
      <point x="80" y="1044"/>
      <point x="444" y="1520"/>
      <point x="754" y="1520" type="qcurve" smooth="yes"/>
      <point x="877" y="1520"/>
      <point x="1064" y="1460"/>
      <point x="1114" y="1422" type="qcurve"/>
      <point x="1144" y="1500" type="line"/>
      <point x="1165" y="1500" type="line"/>
      <point x="1165" y="1108" type="line"/>
      <point x="1136" y="1108" type="line"/>
      <point x="1104" y="1216" type="line" smooth="yes"/>
      <point x="1063" y="1351"/>
      <point x="909" y="1492"/>
      <point x="778" y="1492" type="qcurve" smooth="yes"/>
      <point x="540" y="1492"/>
      <point x="256" y="1107"/>
      <point x="258" y="731" type="qcurve" smooth="yes"/>
      <point x="260" y="383"/>
      <point x="545" y="1"/>
      <point x="770" y="1" type="qcurve" smooth="yes"/>
      <point x="911" y="1"/>
      <point x="1180" y="138"/>
      <point x="1267" y="264" type="qcurve"/>
      <point x="1288" y="245" type="line"/>
      <point x="1198" y="109"/>
      <point x="924" y="-30"/>
      <point x="769" y="-30" type="qcurve" smooth="yes"/>
      <point x="449" y="-30"/>
      <point x="80" y="371"/>
    </contour>
    <contour>
      <point x="180" y="751" type="line"/>
      <point x="180" y="774" type="line"/>
      <point x="806" y="781" type="line"/>
      <point x="837" y="943" type="line"/>
      <point x="865" y="943" type="line"/>
      <point x="865" y="587" type="line"/>
      <point x="837" y="587" type="line"/>
      <point x="806" y="750" type="line"/>
    </contour>
  </outline>
</glyph>
<glyph name="Lje" format="2">
  <advance width="1891"/>
  <unicode hex="0409"/>
  <outline>
    <contour>
      <point x="1659" y="481" type="qcurve" smooth="yes"/>
      <point x="1659" y="675"/>
      <point x="1494" y="875"/>
      <point x="1354" y="876" type="qcurve" smooth="yes"/>
      <point x="1169" y="876" type="line"/>
      <point x="1160" y="858" type="line"/>
      <point x="1161" y="52" type="line"/>
      <point x="1195" y="24" type="line"/>
      <point x="1352" y="24" type="line" smooth="yes"/>
      <point x="1501" y="24"/>
      <point x="1659" y="270"/>
    </contour>
    <contour>
      <point x="1160" y="1439" type="line"/>
      <point x="1159" y="915" type="line"/>
      <point x="1168" y="901" type="line"/>
      <point x="1412" y="901" type="line" smooth="yes"/>
      <point x="1622" y="901"/>
      <point x="1841" y="685"/>
      <point x="1841" y="473" type="qcurve" smooth="yes"/>
      <point x="1841" y="267"/>
      <point x="1609" y="0"/>
      <point x="1398" y="0" type="qcurve" smooth="yes"/>
      <point x="828" y="0" type="line"/>
      <point x="828" y="24" type="line"/>
      <point x="992" y="59" type="line"/>
      <point x="994" y="736" type="line"/>
      <point x="991" y="1446" type="line"/>
      <point x="951" y="1474" type="line"/>
      <point x="580" y="1474" type="line"/>
      <point x="540" y="1446" type="line"/>
      <point x="481" y="754" type="line" smooth="yes"/>
      <point x="443" y="308"/>
      <point x="314" y="-17"/>
      <point x="139" y="-17" type="qcurve" smooth="yes"/>
      <point x="115" y="-17"/>
      <point x="79" y="-10"/>
      <point x="50" y="0" type="qcurve"/>
      <point x="50" y="166" type="line"/>
      <point x="74" y="158"/>
      <point x="114" y="153"/>
      <point x="135" y="153" type="qcurve" smooth="yes"/>
      <point x="275" y="153"/>
      <point x="430" y="459"/>
      <point x="452" y="754" type="qcurve" smooth="yes"/>
      <point x="511" y="1439" type="line"/>
      <point x="290" y="1473" type="line"/>
      <point x="290" y="1500" type="line"/>
      <point x="1324" y="1500" type="line"/>
      <point x="1324" y="1473" type="line"/>
    </contour>
  </outline>
</glyph>
<glyph name="Nje" format="2">
  <advance width="1983"/>
  <unicode hex="040A"/>
  <outline>
    <contour>
      <point x="126" y="0" type="line"/>
      <point x="126" y="24" type="line"/>
      <point x="290" y="59" type="line"/>
      <point x="292" y="754" type="line"/>
      <point x="290" y="1439" type="line"/>
      <point x="126" y="1473" type="line"/>
      <point x="126" y="1500" type="line"/>
      <point x="622" y="1500" type="line"/>
      <point x="622" y="1473" type="line"/>
      <point x="458" y="1439" type="line"/>
      <point x="456" y="754" type="line"/>
      <point x="458" y="59" type="line"/>
      <point x="622" y="24" type="line"/>
      <point x="622" y="0" type="line"/>
    </contour>
    <contour>
      <point x="374" y="848" type="line"/>
      <point x="374" y="874" type="line"/>
      <point x="735" y="873" type="line"/>
      <point x="1169" y="874" type="line"/>
      <point x="1169" y="848" type="line"/>
      <point x="735" y="848" type="line"/>
    </contour>
    <contour>
      <point x="1751" y="473" type="qcurve" smooth="yes"/>
      <point x="1751" y="668"/>
      <point x="1586" y="855"/>
      <point x="1447" y="856" type="qcurve" smooth="yes"/>
      <point x="1262" y="856" type="line"/>
      <point x="1253" y="838" type="line"/>
      <point x="1253" y="47" type="line"/>
      <point x="1287" y="24" type="line"/>
      <point x="1445" y="24" type="line" smooth="yes"/>
      <point x="1594" y="24"/>
      <point x="1751" y="259"/>
    </contour>
    <contour>
      <point x="921" y="0" type="line"/>
      <point x="921" y="24" type="line"/>
      <point x="1085" y="59" type="line"/>
      <point x="1087" y="736" type="line"/>
      <point x="1085" y="1439" type="line"/>
      <point x="921" y="1473" type="line"/>
      <point x="921" y="1500" type="line"/>
      <point x="1417" y="1500" type="line"/>
      <point x="1417" y="1473" type="line"/>
      <point x="1253" y="1439" type="line"/>
      <point x="1252" y="895" type="line"/>
      <point x="1261" y="881" type="line"/>
      <point x="1503" y="881" type="line" smooth="yes"/>
      <point x="1712" y="881"/>
      <point x="1933" y="675"/>
      <point x="1933" y="463" type="qcurve" smooth="yes"/>
      <point x="1933" y="257"/>
      <point x="1699" y="0"/>
      <point x="1489" y="0" type="qcurve" smooth="yes"/>
    </contour>
  </outline>
</glyph>
<glyph name="Tshe" format="2">
  <advance width="1656"/>
  <unicode hex="040B"/>
  <outline>
    <contour>
      <point x="1542" y="24" type="line"/>
      <point x="1542" y="0" type="line"/>
      <point x="1209" y="0" type="line"/>
      <point x="1210" y="386" type="line" smooth="yes"/>
      <point x="1211" y="674"/>
      <point x="1069" y="851"/>
      <point x="942" y="851" type="qcurve" smooth="yes"/>
      <point x="815" y="851"/>
      <point x="656" y="810"/>
      <point x="568" y="777" type="qcurve"/>
      <point x="568" y="799" type="line"/>
      <point x="658" y="834"/>
      <point x="829" y="881"/>
      <point x="954" y="881" type="qcurve" smooth="yes"/>
      <point x="1160" y="881"/>
      <point x="1378" y="642"/>
      <point x="1378" y="379" type="qcurve" smooth="yes"/>
      <point x="1378" y="59" type="line"/>
    </contour>
    <contour>
      <point x="87" y="1092" type="line"/>
      <point x="87" y="1500" type="line"/>
      <point x="1084" y="1500" type="line"/>
      <point x="1084" y="1127" type="line"/>
      <point x="1056" y="1127" type="line"/>
      <point x="1025" y="1474" type="line"/>
      <point x="671" y="1474" type="line"/>
      <point x="652" y="1454" type="line"/>
      <point x="650" y="754" type="line"/>
      <point x="652" y="60" type="line"/>
      <point x="825" y="24" type="line"/>
      <point x="825" y="0" type="line"/>
      <point x="311" y="0" type="line"/>
      <point x="311" y="24" type="line"/>
      <point x="484" y="60" type="line"/>
      <point x="486" y="754" type="line"/>
      <point x="484" y="1454" type="line"/>
      <point x="475" y="1474" type="line"/>
      <point x="146" y="1474" type="line"/>
      <point x="115" y="1092" type="line"/>
    </contour>
  </outline>
</glyph>
<glyph name="Dzhe" format="2">
  <advance width="1595"/>
  <unicode hex="040F"/>
  <outline>
    <contour>
      <point x="860" y="0" type="line"/>
      <point x="817" y="-297" type="line"/>
      <point x="778" y="-297" type="line"/>
      <point x="735" y="0" type="line"/>
      <point x="126" y="0" type="line"/>
      <point x="126" y="24" type="line"/>
      <point x="290" y="59" type="line"/>
      <point x="292" y="736" type="line"/>
      <point x="290" y="1439" type="line"/>
      <point x="126" y="1473" type="line"/>
      <point x="126" y="1500" type="line"/>
      <point x="622" y="1500" type="line"/>
      <point x="622" y="1473" type="line"/>
      <point x="458" y="1439" type="line"/>
      <point x="456" y="736" type="line"/>
      <point x="458" y="52" type="line"/>
      <point x="498" y="24" type="line"/>
      <point x="1097" y="24" type="line"/>
      <point x="1137" y="52" type="line"/>
      <point x="1139" y="736" type="line"/>
      <point x="1137" y="1439" type="line"/>
      <point x="973" y="1473" type="line"/>
      <point x="973" y="1500" type="line"/>
      <point x="1469" y="1500" type="line"/>
      <point x="1469" y="1473" type="line"/>
      <point x="1305" y="1439" type="line"/>
      <point x="1303" y="736" type="line"/>
      <point x="1305" y="59" type="line"/>
      <point x="1469" y="24" type="line"/>
      <point x="1469" y="0" type="line"/>
    </contour>
  </outline>
</glyph>
<glyph name="Zhe" format="2">
  <advance width="2040"/>
  <unicode hex="0416"/>
  <guideline x="480" y="796" angle="90.0" identifier="vQLQteAbfW"/>
  <anchor x="1054" y="0" name="bottom"/>
  <anchor x="1054" y="1500" name="top"/>
  <outline>
    <contour>
      <point x="729" y="0" type="line"/>
      <point x="729" y="100" type="line"/>
      <point x="937" y="135" type="line"/>
      <point x="939" y="754" type="line"/>
      <point x="937" y="1352" type="line"/>
      <point x="739" y="1386" type="line"/>
      <point x="739" y="1500" type="line"/>
      <point x="1303" y="1500" type="line"/>
      <point x="1303" y="1386" type="line"/>
      <point x="1105" y="1352" type="line"/>
      <point x="1103" y="754" type="line"/>
      <point x="1105" y="135" type="line"/>
      <point x="1313" y="100" type="line"/>
      <point x="1313" y="0" type="line"/>
    </contour>
    <contour>
      <point x="1021" y="740" type="line"/>
      <point x="1021" y="769" type="line"/>
      <point x="1287" y="768" type="line"/>
      <point x="1712" y="1338" type="line"/>
      <point x="1531" y="1386" type="line"/>
      <point x="1531" y="1500" type="line"/>
      <point x="1945" y="1500" type="line"/>
      <point x="1945" y="1386" type="line"/>
      <point x="1751" y="1338" type="line"/>
      <point x="1303" y="745" type="line"/>
      <point x="1258" y="740" type="line"/>
    </contour>
    <contour>
      <point x="1267" y="751" type="line"/>
      <point x="1372" y="859" type="line"/>
      <point x="1916" y="137" type="line"/>
      <point x="2075" y="100" type="line"/>
      <point x="2075" y="0" type="line"/>
      <point x="1556" y="0" type="line"/>
      <point x="1556" y="100" type="line"/>
      <point x="1724" y="135" type="line"/>
    </contour>
    <contour>
      <point x="1021" y="740" type="line"/>
      <point x="785" y="740" type="line"/>
      <point x="736" y="745" type="line"/>
      <point x="291" y="1338" type="line"/>
      <point x="98" y="1386" type="line"/>
      <point x="98" y="1500" type="line"/>
      <point x="519" y="1500" type="line"/>
      <point x="519" y="1386" type="line"/>
      <point x="330" y="1338" type="line"/>
      <point x="754" y="768" type="line"/>
      <point x="1021" y="769" type="line"/>
    </contour>
    <contour>
      <point x="774" y="752" type="line"/>
      <point x="316" y="135" type="line"/>
      <point x="484" y="100" type="line"/>
      <point x="484" y="0" type="line"/>
      <point x="-35" y="0" type="line"/>
      <point x="-35" y="100" type="line"/>
      <point x="125" y="135" type="line"/>
      <point x="666" y="860" type="line"/>
    </contour>
  </outline>
</glyph>
<glyph name="Ze" format="2">
  <advance width="1184"/>
  <unicode hex="0417"/>
  <anchor x="633" y="0" name="bottom"/>
  <outline>
    <contour>
      <point x="629" y="-3" type="qcurve" smooth="yes"/>
      <point x="754" y="-3"/>
      <point x="941" y="235"/>
      <point x="935" y="431" type="qcurve" smooth="yes"/>
      <point x="930" y="604"/>
      <point x="813" y="784"/>
      <point x="640" y="784" type="qcurve" smooth="yes"/>
      <point x="492" y="784" type="line"/>
      <point x="492" y="812" type="line"/>
      <point x="637" y="812" type="line" smooth="yes"/>
      <point x="756" y="812"/>
      <point x="878" y="988"/>
      <point x="878" y="1155" type="qcurve" smooth="yes"/>
      <point x="878" y="1284"/>
      <point x="764" y="1491"/>
      <point x="638" y="1491" type="qcurve" smooth="yes"/>
      <point x="504" y="1491"/>
      <point x="337" y="1344"/>
      <point x="296" y="1182" type="qcurve" smooth="yes"/>
      <point x="277" y="1100" type="line"/>
      <point x="249" y="1100" type="line"/>
      <point x="249" y="1500" type="line"/>
      <point x="269" y="1500" type="line"/>
      <point x="303" y="1422" type="line"/>
      <point x="361" y="1460"/>
      <point x="544" y="1520"/>
      <point x="661" y="1520" type="qcurve" smooth="yes"/>
      <point x="853" y="1520"/>
      <point x="1046" y="1320"/>
      <point x="1046" y="1157" type="qcurve" smooth="yes"/>
      <point x="1046" y="1023"/>
      <point x="928" y="826"/>
      <point x="827" y="801" type="qcurve"/>
      <point x="827" y="794" type="line"/>
      <point x="945" y="770"/>
      <point x="1109" y="589"/>
      <point x="1109" y="428" type="qcurve" smooth="yes"/>
      <point x="1109" y="230"/>
      <point x="862" y="-31"/>
      <point x="640" y="-31" type="qcurve" smooth="yes"/>
      <point x="515" y="-31"/>
      <point x="332" y="24"/>
      <point x="273" y="67" type="qcurve"/>
      <point x="239" y="-11" type="line"/>
      <point x="218" y="-11" type="line"/>
      <point x="218" y="398" type="line"/>
      <point x="247" y="398" type="line"/>
      <point x="268" y="308" type="line" smooth="yes"/>
      <point x="296" y="201"/>
      <point x="475" y="-3"/>
    </contour>
  </outline>
</glyph>
<glyph name="Ucyr" format="2">
  <advance width="1216"/>
  <unicode hex="0423"/>
  <anchor x="629" y="0" name="bottom"/>
  <anchor x="632" y="1500" name="top"/>
  <outline>
    <contour>
      <point x="594" y="295" type="line"/>
      <point x="556" y="216"/>
      <point x="514" y="152" type="qcurve" smooth="yes"/>
      <point x="428" y="21"/>
      <point x="267" y="21" type="qcurve" smooth="yes"/>
      <point x="231" y="21"/>
      <point x="190" y="29"/>
      <point x="166" y="37" type="qcurve"/>
      <point x="166" y="0" type="line"/>
      <point x="190" y="-8"/>
      <point x="235" y="-17"/>
      <point x="268" y="-17" type="qcurve" smooth="yes"/>
      <point x="422" y="-17"/>
      <point x="593" y="196"/>
      <point x="678" y="406" type="qcurve" smooth="yes"/>
      <point x="896" y="941" type="line"/>
      <point x="1113" y="1446" type="line"/>
      <point x="1210" y="1467" type="line"/>
      <point x="1210" y="1500" type="line"/>
      <point x="881" y="1500" type="line"/>
      <point x="881" y="1467" type="line"/>
      <point x="1073" y="1445" type="line"/>
      <point x="870" y="950" type="line"/>
      <point x="734" y="609" type="line"/>
      <point x="684" y="475" type="line"/>
      <point x="674" y="475" type="line"/>
      <point x="625" y="608" type="line"/>
      <point x="478" y="963" type="line"/>
      <point x="289" y="1438" type="line"/>
      <point x="451" y="1465" type="line"/>
      <point x="451" y="1500" type="line"/>
      <point x="4" y="1500" type="line"/>
      <point x="4" y="1467" type="line"/>
      <point x="90" y="1447" type="line"/>
      <point x="336" y="891" type="line"/>
      <point x="594" y="295" type="line"/>
    </contour>
  </outline>
</glyph>
<glyph name="Tse" format="2">
  <advance width="1595"/>
  <unicode hex="0426"/>
  <outline>
    <contour>
      <point x="1139" y="754" type="line"/>
      <point x="1137" y="1439" type="line"/>
      <point x="973" y="1473" type="line"/>
      <point x="973" y="1500" type="line"/>
      <point x="1469" y="1500" type="line"/>
      <point x="1469" y="1473" type="line"/>
      <point x="1305" y="1439" type="line"/>
      <point x="1303" y="754" type="line"/>
      <point x="1305" y="107" type="line"/>
      <point x="1430" y="107" type="line"/>
      <point x="1439" y="-297" type="line"/>
      <point x="1405" y="-297" type="line"/>
      <point x="1344" y="0" type="line"/>
      <point x="126" y="0" type="line"/>
      <point x="126" y="24" type="line"/>
      <point x="290" y="62" type="line"/>
      <point x="292" y="754" type="line"/>
      <point x="290" y="1439" type="line"/>
      <point x="126" y="1473" type="line"/>
      <point x="126" y="1500" type="line"/>
      <point x="622" y="1500" type="line"/>
      <point x="622" y="1473" type="line"/>
      <point x="458" y="1439" type="line"/>
      <point x="456" y="754" type="line"/>
      <point x="458" y="52" type="line"/>
      <point x="498" y="24" type="line"/>
      <point x="1097" y="24" type="line"/>
      <point x="1137" y="52" type="line"/>
    </contour>
  </outline>
</glyph>
<glyph name="Che" format="2">
  <advance width="1554"/>
  <unicode hex="0427"/>
  <outline>
    <contour>
      <point x="916" y="0" type="line"/>
      <point x="916" y="24" type="line"/>
      <point x="1096" y="59" type="line"/>
      <point x="1098" y="754" type="line"/>
      <point x="1096" y="1439" type="line"/>
      <point x="932" y="1473" type="line"/>
      <point x="932" y="1500" type="line"/>
      <point x="1428" y="1500" type="line"/>
      <point x="1428" y="1473" type="line"/>
      <point x="1264" y="1439" type="line"/>
      <point x="1262" y="754" type="line"/>
      <point x="1264" y="59" type="line"/>
      <point x="1428" y="24" type="line"/>
      <point x="1428" y="0" type="line"/>
    </contour>
    <contour>
      <point x="94" y="1473" type="line"/>
      <point x="94" y="1500" type="line"/>
      <point x="590" y="1500" type="line"/>
      <point x="590" y="1473" type="line"/>
      <point x="427" y="1439" type="line"/>
      <point x="426" y="1016" type="line" smooth="yes"/>
      <point x="426" y="821"/>
      <point x="604" y="666"/>
      <point x="798" y="666" type="qcurve" smooth="yes"/>
      <point x="902" y="666"/>
      <point x="1075" y="703"/>
      <point x="1168" y="740" type="qcurve"/>
      <point x="1168" y="712" type="line"/>
      <point x="1071" y="676"/>
      <point x="893" y="637"/>
      <point x="756" y="637" type="qcurve" smooth="yes"/>
      <point x="519" y="637"/>
      <point x="258" y="854"/>
      <point x="258" y="1081" type="qcurve" smooth="yes"/>
      <point x="258" y="1439" type="line"/>
    </contour>
  </outline>
</glyph>
<glyph name="Shcha" format="2">
  <advance width="2146"/>
  <unicode hex="0429"/>
  <outline>
    <contour>
      <point x="1895" y="0" type="line"/>
      <point x="126" y="0" type="line"/>
      <point x="126" y="24" type="line"/>
      <point x="290" y="59" type="line"/>
      <point x="292" y="746" type="line"/>
      <point x="290" y="1439" type="line"/>
      <point x="126" y="1473" type="line"/>
      <point x="126" y="1500" type="line"/>
      <point x="622" y="1500" type="line"/>
      <point x="622" y="1473" type="line"/>
      <point x="458" y="1439" type="line"/>
      <point x="456" y="746" type="line"/>
      <point x="458" y="52" type="line"/>
      <point x="498" y="24" type="line"/>
      <point x="949" y="24" type="line"/>
      <point x="989" y="52" type="line"/>
      <point x="991" y="754" type="line"/>
      <point x="989" y="1439" type="line"/>
      <point x="817" y="1472" type="line"/>
      <point x="817" y="1500" type="line"/>
      <point x="1329" y="1500" type="line"/>
      <point x="1329" y="1472" type="line"/>
      <point x="1157" y="1439" type="line"/>
      <point x="1155" y="754" type="line"/>
      <point x="1157" y="52" type="line"/>
      <point x="1197" y="24" type="line"/>
      <point x="1648" y="24" type="line"/>
      <point x="1688" y="52" type="line"/>
      <point x="1690" y="746" type="line"/>
      <point x="1688" y="1439" type="line"/>
      <point x="1524" y="1473" type="line"/>
      <point x="1524" y="1500" type="line"/>
      <point x="2020" y="1500" type="line"/>
      <point x="2020" y="1473" type="line"/>
      <point x="1856" y="1439" type="line"/>
      <point x="1854" y="746" type="line"/>
      <point x="1856" y="108" type="line"/>
      <point x="1981" y="108" type="line"/>
      <point x="1990" y="-297" type="line"/>
      <point x="1956" y="-297" type="line"/>
    </contour>
  </outline>
</glyph>
<glyph name="ve" format="2">
  <advance width="1018"/>
  <unicode hex="0432"/>
  <guideline x="302" y="625" angle="90.0" identifier="FqbstdQzDn"/>
  <guideline x="953" y="554" angle="90.0" identifier="zbbKiP68t3"/>
  <outline>
    <contour>
      <point x="80" y="1000" type="line"/>
      <point x="574" y="1000" type="line" smooth="yes"/>
      <point x="734" y="1000"/>
      <point x="891" y="878"/>
      <point x="891" y="773" type="qcurve" smooth="yes"/>
      <point x="891" y="686"/>
      <point x="803" y="565"/>
      <point x="724" y="545" type="qcurve"/>
      <point x="724" y="541" type="line"/>
      <point x="821" y="522"/>
      <point x="953" y="398"/>
      <point x="953" y="286" type="qcurve" smooth="yes"/>
      <point x="953" y="149"/>
      <point x="752" y="0"/>
      <point x="578" y="0" type="qcurve" smooth="yes"/>
      <point x="80" y="0" type="line"/>
      <point x="80" y="80" type="line"/>
      <point x="232" y="115" type="line"/>
      <point x="234" y="500" type="line"/>
      <point x="232" y="885" type="line"/>
      <point x="80" y="920" type="line"/>
    </contour>
    <contour>
      <point x="391" y="100" type="line"/>
      <point x="577" y="100" type="line" smooth="yes"/>
      <point x="684" y="100"/>
      <point x="795" y="195"/>
      <point x="795" y="290" type="qcurve" smooth="yes"/>
      <point x="795" y="379"/>
      <point x="693" y="474"/>
      <point x="597" y="474" type="qcurve" smooth="yes"/>
      <point x="312" y="474" type="line"/>
      <point x="312" y="574" type="line"/>
      <point x="546" y="574" type="line" smooth="yes"/>
      <point x="641" y="574"/>
      <point x="737" y="663"/>
      <point x="737" y="744" type="qcurve" smooth="yes"/>
      <point x="737" y="828"/>
      <point x="643" y="900"/>
      <point x="553" y="900" type="qcurve" smooth="yes"/>
      <point x="391" y="900" type="line"/>
      <point x="389" y="500" type="line"/>
    </contour>
  </outline>
</glyph>
<glyph name="ka" format="2">
  <advance width="1155"/>
  <unicode hex="043A"/>
  <guideline x="241" y="553" angle="90.0" identifier="lmgRx0QBdK"/>
  <guideline x="786" y="880" angle="0.0" identifier="nFoPGEsufr"/>
  <anchor x="601" y="0" name="bottom"/>
  <anchor x="601" y="1000" name="top"/>
  <outline>
    <contour>
      <point x="526" y="488" type="line"/>
      <point x="622" y="583" type="line"/>
      <point x="1017" y="115" type="line"/>
      <point x="1136" y="80" type="line"/>
      <point x="1136" y="0" type="line"/>
      <point x="847" y="0" type="line"/>
      <point x="835" y="79" type="line"/>
      <point x="845" y="111" type="line"/>
    </contour>
    <contour>
      <point x="307" y="567" type="line"/>
      <point x="531" y="564" type="line"/>
      <point x="827" y="880" type="line"/>
      <point x="660" y="920" type="line"/>
      <point x="660" y="1000" type="line"/>
      <point x="1106" y="1000" type="line"/>
      <point x="1106" y="921" type="line"/>
      <point x="948" y="875" type="line"/>
      <point x="555" y="464" type="line"/>
      <point x="307" y="462" type="line"/>
    </contour>
    <contour>
      <point x="230" y="500" type="line"/>
      <point x="228" y="885" type="line"/>
      <point x="80" y="920" type="line"/>
      <point x="80" y="1000" type="line"/>
      <point x="525" y="1000" type="line"/>
      <point x="525" y="920" type="line"/>
      <point x="387" y="885" type="line"/>
      <point x="385" y="500" type="line"/>
      <point x="387" y="115" type="line"/>
      <point x="525" y="80" type="line"/>
      <point x="525" y="0" type="line"/>
      <point x="80" y="0" type="line"/>
      <point x="80" y="80" type="line"/>
      <point x="228" y="115" type="line"/>
    </contour>
  </outline>
</glyph>
<glyph name="em" format="2">
  <advance width="1628"/>
  <unicode hex="043C"/>
  <guideline x="1285" y="878" angle="0.0" identifier="6e2z48lNZ1"/>
  <outline>
    <contour>
      <point x="451" y="1000" type="line"/>
      <point x="652" y="535" type="line"/>
      <point x="814" y="178" type="line"/>
      <point x="978" y="538" type="line"/>
      <point x="1179" y="1000" type="line"/>
      <point x="1548" y="1000" type="line"/>
      <point x="1548" y="920" type="line"/>
      <point x="1400" y="885" type="line"/>
      <point x="1398" y="501" type="line"/>
      <point x="1400" y="115" type="line"/>
      <point x="1548" y="80" type="line"/>
      <point x="1548" y="0" type="line"/>
      <point x="1103" y="0" type="line"/>
      <point x="1103" y="80" type="line"/>
      <point x="1241" y="115" type="line"/>
      <point x="1243" y="501" type="line"/>
      <point x="1241" y="859" type="line"/>
      <point x="1074" y="493" type="line"/>
      <point x="858" y="-5" type="line"/>
      <point x="730" y="-5" type="line"/>
      <point x="521" y="478" type="line"/>
      <point x="346" y="866" type="line"/>
      <point x="343" y="501" type="line"/>
      <point x="346" y="115" type="line"/>
      <point x="484" y="80" type="line"/>
      <point x="484" y="0" type="line"/>
      <point x="80" y="0" type="line"/>
      <point x="80" y="80" type="line"/>
      <point x="228" y="115" type="line"/>
      <point x="231" y="501" type="line"/>
      <point x="228" y="885" type="line"/>
      <point x="80" y="920" type="line"/>
      <point x="80" y="1000" type="line"/>
    </contour>
  </outline>
</glyph>
<glyph name="en" format="2">
  <advance width="1254"/>
  <unicode hex="043D"/>
  <guideline x="302" y="625" angle="90.0" identifier="jHuxcyi1x5"/>
  <guideline x="953" y="554" angle="90.0" identifier="b1mHk7wgTR"/>
  <guideline x="627" y="553" angle="90.0" identifier="m4aYe0x4PZ"/>
  <outline>
    <contour>
      <point x="307" y="574" type="line"/>
      <point x="626" y="571" type="line"/>
      <point x="946" y="574" type="line"/>
      <point x="946" y="469" type="line"/>
      <point x="626" y="471" type="line"/>
      <point x="307" y="469" type="line"/>
    </contour>
    <contour>
      <point x="230" y="500" type="line"/>
      <point x="228" y="885" type="line"/>
      <point x="80" y="920" type="line"/>
      <point x="80" y="1000" type="line"/>
      <point x="525" y="1000" type="line"/>
      <point x="525" y="920" type="line"/>
      <point x="387" y="885" type="line"/>
      <point x="385" y="500" type="line"/>
      <point x="387" y="115" type="line"/>
      <point x="525" y="80" type="line"/>
      <point x="525" y="0" type="line"/>
      <point x="80" y="0" type="line"/>
      <point x="80" y="80" type="line"/>
      <point x="228" y="115" type="line"/>
    </contour>
    <contour>
      <point x="1024" y="500" type="line"/>
      <point x="1026" y="115" type="line"/>
      <point x="1174" y="80" type="line"/>
      <point x="1174" y="0" type="line"/>
      <point x="729" y="0" type="line"/>
      <point x="729" y="80" type="line"/>
      <point x="867" y="115" type="line"/>
      <point x="869" y="500" type="line"/>
      <point x="867" y="885" type="line"/>
      <point x="729" y="920" type="line"/>
      <point x="729" y="1000" type="line"/>
      <point x="1174" y="1000" type="line"/>
      <point x="1174" y="920" type="line"/>
      <point x="1026" y="885" type="line"/>
    </contour>
  </outline>
</glyph>
<glyph name="pe" format="2">
  <advance width="1183"/>
  <unicode hex="043F"/>
  <outline>
    <contour>
      <point x="230" y="460" type="line"/>
      <point x="228" y="866" type="line"/>
      <point x="106" y="901" type="line"/>
      <point x="106" y="921" type="line"/>
      <point x="1077" y="921" type="line"/>
      <point x="1077" y="901" type="line"/>
      <point x="955" y="866" type="line"/>
      <point x="953" y="460" type="line"/>
      <point x="955" y="55" type="line"/>
      <point x="1077" y="20" type="line"/>
      <point x="1077" y="0" type="line"/>
      <point x="682" y="0" type="line"/>
      <point x="682" y="20" type="line"/>
      <point x="796" y="55" type="line"/>
      <point x="798" y="460" type="line"/>
      <point x="796" y="897" type="line"/>
      <point x="387" y="897" type="line"/>
      <point x="385" y="460" type="line"/>
      <point x="387" y="55" type="line"/>
      <point x="501" y="20" type="line"/>
      <point x="501" y="0" type="line"/>
      <point x="106" y="0" type="line"/>
      <point x="106" y="20" type="line"/>
      <point x="228" y="55" type="line"/>
    </contour>
  </outline>
</glyph>
<glyph name="ef" format="2">
  <advance width="1352"/>
  <unicode hex="0444"/>
  <outline>
    <contour>
      <point x="450" y="-480" type="line"/>
      <point x="450" y="-400" type="line"/>
      <point x="597" y="-365" type="line"/>
      <point x="598" y="32" type="line"/>
      <point x="601" y="47" type="line"/>
      <point x="602" y="527" type="line"/>
      <point x="601" y="964" type="line"/>
      <point x="598" y="978" type="line"/>
      <point x="597" y="1376" type="line"/>
      <point x="407" y="1406" type="line"/>
      <point x="407" y="1500" type="line"/>
      <point x="696" y="1534" type="line"/>
      <point x="728" y="1534" type="line"/>
      <point x="756" y="1502" type="line"/>
      <point x="755" y="976" type="line"/>
      <point x="751" y="961" type="line"/>
      <point x="750" y="527" type="line"/>
      <point x="751" y="44" type="line"/>
      <point x="755" y="26" type="line"/>
      <point x="755" y="-365" type="line"/>
      <point x="902" y="-400" type="line"/>
      <point x="902" y="-480" type="line"/>
    </contour>
    <contour>
      <point x="64" y="475" type="qcurve" smooth="yes"/>
      <point x="64" y="727"/>
      <point x="396" y="1023"/>
      <point x="682" y="1023" type="qcurve"/>
      <point x="682" y="917" type="line"/>
      <point x="456" y="917"/>
      <point x="233" y="695"/>
      <point x="233" y="491" type="qcurve" smooth="yes"/>
      <point x="233" y="302"/>
      <point x="453" y="89"/>
      <point x="682" y="89" type="qcurve"/>
      <point x="682" y="-23" type="line"/>
      <point x="378" y="-15"/>
      <point x="64" y="259"/>
    </contour>
    <contour>
      <point x="1288" y="525" type="qcurve" smooth="yes"/>
      <point x="1288" y="273"/>
      <point x="952" y="-23"/>
      <point x="682" y="-23" type="qcurve"/>
      <point x="682" y="89" type="line"/>
      <point x="890" y="89"/>
      <point x="1119" y="311"/>
      <point x="1119" y="515" type="qcurve" smooth="yes"/>
      <point x="1119" y="704"/>
      <point x="907" y="917"/>
      <point x="682" y="917" type="qcurve"/>
      <point x="682" y="1023" type="line"/>
      <point x="981" y="1015"/>
      <point x="1288" y="741"/>
    </contour>
  </outline>
</glyph>
<glyph name="sha" format="2">
  <advance width="1731"/>
  <unicode hex="0448"/>
  <outline>
    <contour>
      <point x="230" y="459" type="line"/>
      <point x="228" y="866" type="line"/>
      <point x="106" y="901" type="line"/>
      <point x="106" y="921" type="line"/>
      <point x="501" y="921" type="line"/>
      <point x="501" y="901" type="line"/>
      <point x="387" y="866" type="line"/>
      <point x="385" y="459" type="line"/>
      <point x="387" y="24" type="line"/>
      <point x="786" y="24" type="line"/>
      <point x="788" y="459" type="line"/>
      <point x="785" y="866" type="line"/>
      <point x="672" y="901" type="line"/>
      <point x="672" y="921" type="line"/>
      <point x="1057" y="921" type="line"/>
      <point x="1057" y="901" type="line"/>
      <point x="944" y="866" type="line"/>
      <point x="943" y="459" type="line"/>
      <point x="945" y="24" type="line"/>
      <point x="1345" y="24" type="line"/>
      <point x="1347" y="459" type="line"/>
      <point x="1345" y="866" type="line"/>
      <point x="1231" y="901" type="line"/>
      <point x="1231" y="921" type="line"/>
      <point x="1625" y="921" type="line"/>
      <point x="1625" y="901" type="line"/>
      <point x="1503" y="866" type="line"/>
      <point x="1501" y="459" type="line"/>
      <point x="1503" y="55" type="line"/>
      <point x="1625" y="20" type="line"/>
      <point x="1625" y="0" type="line"/>
      <point x="106" y="0" type="line"/>
      <point x="106" y="20" type="line"/>
      <point x="228" y="55" type="line"/>
    </contour>
  </outline>
</glyph>
<glyph name="shcha" format="2">
  <advance width="1863"/>
  <unicode hex="0449"/>
  <outline>
    <contour>
      <point x="1623" y="105" type="line"/>
      <point x="1783" y="105" type="line"/>
      <point x="1793" y="-318" type="line"/>
      <point x="1701" y="-318" type="line"/>
      <point x="1612" y="0" type="line"/>
      <point x="80" y="0" type="line"/>
      <point x="80" y="80" type="line"/>
      <point x="228" y="115" type="line"/>
      <point x="230" y="500" type="line"/>
      <point x="228" y="885" type="line"/>
      <point x="80" y="920" type="line"/>
      <point x="80" y="1000" type="line"/>
      <point x="525" y="1000" type="line"/>
      <point x="525" y="920" type="line"/>
      <point x="387" y="885" type="line"/>
      <point x="385" y="500" type="line"/>
      <point x="387" y="105" type="line"/>
      <point x="846" y="105" type="line"/>
      <point x="848" y="500" type="line"/>
      <point x="845" y="885" type="line"/>
      <point x="708" y="920" type="line"/>
      <point x="708" y="1000" type="line"/>
      <point x="1141" y="1000" type="line"/>
      <point x="1141" y="920" type="line"/>
      <point x="1004" y="885" type="line"/>
      <point x="1003" y="500" type="line"/>
      <point x="1005" y="105" type="line"/>
      <point x="1464" y="105" type="line"/>
      <point x="1466" y="500" type="line"/>
      <point x="1464" y="885" type="line"/>
      <point x="1326" y="920" type="line"/>
      <point x="1326" y="1000" type="line"/>
      <point x="1771" y="1000" type="line"/>
      <point x="1771" y="920" type="line"/>
      <point x="1623" y="885" type="line"/>
      <point x="1621" y="500" type="line"/>
    </contour>
  </outline>
</glyph>
<glyph name="hard" format="2">
  <advance width="1141"/>
  <unicode hex="044A"/>
  <outline>
    <contour>
      <point x="670" y="921" type="line"/>
      <point x="670" y="901" type="line"/>
      <point x="548" y="866" type="line"/>
      <point x="546" y="500" type="line"/>
      <point x="548" y="24" type="line"/>
      <point x="706" y="24" type="line" smooth="yes"/>
      <point x="818" y="24"/>
      <point x="908" y="176"/>
      <point x="908" y="293" type="qcurve" smooth="yes"/>
      <point x="908" y="406"/>
      <point x="818" y="552"/>
      <point x="706" y="552" type="qcurve" smooth="yes"/>
      <point x="468" y="552" type="line"/>
      <point x="468" y="576" type="line"/>
      <point x="713" y="576" type="line" smooth="yes"/>
      <point x="890" y="576"/>
      <point x="1081" y="422"/>
      <point x="1081" y="292" type="qcurve" smooth="yes"/>
      <point x="1081" y="160"/>
      <point x="890" y="0"/>
      <point x="713" y="0" type="qcurve" smooth="yes"/>
      <point x="267" y="0" type="line"/>
      <point x="267" y="20" type="line"/>
      <point x="389" y="55" type="line"/>
      <point x="391" y="500" type="line"/>
      <point x="389" y="897" type="line"/>
      <point x="162" y="897" type="line"/>
      <point x="137" y="764" type="line"/>
      <point x="83" y="764" type="line"/>
      <point x="83" y="921" type="line"/>
    </contour>
  </outline>
</glyph>
<glyph name="yeru" format="2">
  <advance width="1488"/>
  <unicode hex="044B"/>
  <outline>
    <contour>
      <point x="387" y="24" type="line"/>
      <point x="546" y="24" type="line" smooth="yes"/>
      <point x="657" y="24"/>
      <point x="747" y="177"/>
      <point x="747" y="293" type="qcurve" smooth="yes"/>
      <point x="747" y="406"/>
      <point x="657" y="552"/>
      <point x="546" y="552" type="qcurve" smooth="yes"/>
      <point x="307" y="552" type="line"/>
      <point x="307" y="576" type="line"/>
      <point x="551" y="576" type="line" smooth="yes"/>
      <point x="728" y="576"/>
      <point x="921" y="422"/>
      <point x="921" y="292" type="qcurve" smooth="yes"/>
      <point x="921" y="160"/>
      <point x="728" y="0"/>
      <point x="551" y="0" type="qcurve" smooth="yes"/>
      <point x="106" y="0" type="line"/>
      <point x="106" y="20" type="line"/>
      <point x="228" y="55" type="line"/>
      <point x="230" y="461" type="line"/>
      <point x="228" y="866" type="line"/>
      <point x="106" y="901" type="line"/>
      <point x="106" y="921" type="line"/>
      <point x="509" y="921" type="line"/>
      <point x="509" y="901" type="line"/>
      <point x="387" y="866" type="line"/>
      <point x="385" y="461" type="line"/>
    </contour>
    <contour>
      <point x="1258" y="500" type="line"/>
      <point x="1260" y="55" type="line"/>
      <point x="1382" y="20" type="line"/>
      <point x="1382" y="0" type="line"/>
      <point x="979" y="0" type="line"/>
      <point x="979" y="20" type="line"/>
      <point x="1101" y="55" type="line"/>
      <point x="1103" y="500" type="line"/>
      <point x="1101" y="865" type="line"/>
      <point x="979" y="900" type="line"/>
      <point x="979" y="920" type="line"/>
      <point x="1382" y="920" type="line"/>
      <point x="1382" y="900" type="line"/>
      <point x="1260" y="865" type="line"/>
    </contour>
  </outline>
</glyph>
<glyph name="soft" format="2">
  <advance width="1039"/>
  <unicode hex="044C"/>
  <guideline x="302" y="625" angle="90.0" identifier="A4qVwRmZ22"/>
  <guideline x="953" y="554" angle="90.0" identifier="h0tFJgBRAh"/>
  <guideline x="627" y="553" angle="90.0" identifier="x6MEKzPxp5"/>
  <guideline x="329" y="565" angle="0.0" identifier="Iz6BEWeM15"/>
  <outline>
    <contour>
      <point x="386" y="105" type="line"/>
      <point x="579" y="105" type="line" smooth="yes"/>
      <point x="704" y="105"/>
      <point x="805" y="224"/>
      <point x="805" y="314" type="qcurve" smooth="yes"/>
      <point x="805" y="402"/>
      <point x="704" y="516"/>
      <point x="579" y="516" type="qcurve" smooth="yes"/>
      <point x="306" y="516" type="line"/>
      <point x="306" y="621" type="line"/>
      <point x="576" y="621" type="line" smooth="yes"/>
      <point x="770" y="621"/>
      <point x="979" y="455"/>
      <point x="979" y="314" type="qcurve" smooth="yes"/>
      <point x="979" y="172"/>
      <point x="770" y="0"/>
      <point x="576" y="0" type="qcurve" smooth="yes"/>
      <point x="79" y="0" type="line"/>
      <point x="79" y="80" type="line"/>
      <point x="227" y="115" type="line"/>
      <point x="229" y="500" type="line"/>
      <point x="227" y="885" type="line"/>
      <point x="79" y="920" type="line"/>
      <point x="79" y="1000" type="line"/>
      <point x="534" y="1000" type="line"/>
      <point x="534" y="920" type="line"/>
      <point x="386" y="885" type="line"/>
      <point x="384" y="500" type="line"/>
    </contour>
  </outline>
</glyph>
<glyph name="yu" format="2">
  <advance width="1653"/>
  <unicode hex="044E"/>
  <guideline x="302" y="625" angle="90.0" identifier="jHuxcyi1x5"/>
  <guideline x="953" y="554" angle="90.0" identifier="b1mHk7wgTR"/>
  <guideline x="627" y="553" angle="90.0" identifier="m4aYe0x4PZ"/>
  <anchor x="767" y="0" name="bottom"/>
  <anchor x="793" y="1000" name="top"/>
  <outline>
    <contour>
      <point x="307" y="574" type="line"/>
      <point x="678" y="571" type="line"/>
      <point x="678" y="471" type="line"/>
      <point x="307" y="469" type="line"/>
    </contour>
    <contour>
      <point x="230" y="500" type="line"/>
      <point x="228" y="885" type="line"/>
      <point x="80" y="920" type="line"/>
      <point x="80" y="1000" type="line"/>
      <point x="525" y="1000" type="line"/>
      <point x="525" y="920" type="line"/>
      <point x="387" y="885" type="line"/>
      <point x="385" y="500" type="line"/>
      <point x="387" y="115" type="line"/>
      <point x="525" y="80" type="line"/>
      <point x="525" y="0" type="line"/>
      <point x="80" y="0" type="line"/>
      <point x="80" y="80" type="line"/>
      <point x="228" y="115" type="line"/>
    </contour>
    <contour>
      <point x="594" y="500" type="qcurve" smooth="yes"/>
      <point x="594" y="717"/>
      <point x="867" y="1022"/>
      <point x="1090" y="1022" type="qcurve" smooth="yes"/>
      <point x="1313" y="1022"/>
      <point x="1589" y="737"/>
      <point x="1589" y="506" type="qcurve" smooth="yes"/>
      <point x="1589" y="290"/>
      <point x="1318" y="-22"/>
      <point x="1096" y="-22" type="qcurve" smooth="yes"/>
      <point x="872" y="-22"/>
      <point x="594" y="267"/>
    </contour>
    <contour>
      <point x="762" y="520" type="qcurve" smooth="yes"/>
      <point x="763" y="339"/>
      <point x="941" y="88"/>
      <point x="1088" y="88" type="qcurve" smooth="yes"/>
      <point x="1245" y="88"/>
      <point x="1416" y="317"/>
      <point x="1416" y="506" type="qcurve" smooth="yes"/>
      <point x="1416" y="680"/>
      <point x="1237" y="906"/>
      <point x="1090" y="906" type="qcurve" smooth="yes"/>
      <point x="931" y="906"/>
      <point x="761" y="700"/>
    </contour>
  </outline>
</glyph>
<glyph name="ieukran" format="2">
  <advance width="1008"/>
  <unicode hex="0454"/>
  <guideline x="180" y="548" angle="90.0" identifier="n4jm0tBg3Y"/>
  <outline>
    <contour>
      <point x="148" y="550" type="line"/>
      <point x="628" y="553" type="line"/>
      <point x="628" y="448" type="line"/>
      <point x="148" y="450" type="line"/>
    </contour>
    <contour>
      <point x="64" y="489" type="qcurve" smooth="yes"/>
      <point x="64" y="724"/>
      <point x="321" y="1022"/>
      <point x="527" y="1022" type="qcurve" smooth="yes"/>
      <point x="615" y="1022"/>
      <point x="738" y="982"/>
      <point x="769" y="956" type="qcurve"/>
      <point x="792" y="1006" type="line"/>
      <point x="887" y="1006" type="line"/>
      <point x="887" y="664" type="line"/>
      <point x="790" y="664" type="line"/>
      <point x="773" y="725" type="line" smooth="yes"/>
      <point x="750" y="806"/>
      <point x="641" y="911"/>
      <point x="540" y="911" type="qcurve" smooth="yes"/>
      <point x="401" y="911"/>
      <point x="232" y="721"/>
      <point x="232" y="507" type="qcurve" smooth="yes"/>
      <point x="232" y="305"/>
      <point x="424" y="108"/>
      <point x="583" y="108" type="qcurve" smooth="yes"/>
      <point x="693" y="108"/>
      <point x="848" y="177"/>
      <point x="903" y="228" type="qcurve"/>
      <point x="954" y="168" type="line"/>
      <point x="902" y="94"/>
      <point x="708" y="-22"/>
      <point x="554" y="-22" type="qcurve" smooth="yes"/>
      <point x="348" y="-22"/>
      <point x="64" y="246"/>
    </contour>
  </outline>
</glyph>
<glyph name="dzhe" format="2">
  <advance width="1183"/>
  <unicode hex="045F"/>
  <outline>
    <contour>
      <point x="657" y="0" type="line"/>
      <point x="637" y="-117" type="line"/>
      <point x="545" y="-117" type="line"/>
      <point x="526" y="0" type="line"/>
    </contour>
    <contour>
      <point x="230" y="460" type="line"/>
      <point x="228" y="866" type="line"/>
      <point x="106" y="901" type="line"/>
      <point x="106" y="921" type="line"/>
      <point x="501" y="921" type="line"/>
      <point x="501" y="901" type="line"/>
      <point x="387" y="866" type="line"/>
      <point x="385" y="460" type="line"/>
      <point x="387" y="24" type="line"/>
      <point x="796" y="24" type="line"/>
      <point x="798" y="460" type="line"/>
      <point x="796" y="866" type="line"/>
      <point x="682" y="901" type="line"/>
      <point x="682" y="921" type="line"/>
      <point x="1077" y="921" type="line"/>
      <point x="1077" y="901" type="line"/>
      <point x="955" y="866" type="line"/>
      <point x="953" y="460" type="line"/>
      <point x="955" y="55" type="line"/>
      <point x="1077" y="20" type="line"/>
      <point x="1077" y="0" type="line"/>
      <point x="106" y="0" type="line"/>
      <point x="106" y="20" type="line"/>
      <point x="228" y="55" type="line"/>
    </contour>
  </outline>
</glyph>
<glyph name="gheup" format="2">
  <advance width="857"/>
  <unicode hex="0491"/>
  <outline>
    <contour>
      <point x="794" y="897" type="line"/>
      <point x="387" y="897" type="line"/>
      <point x="385" y="459" type="line"/>
      <point x="387" y="55" type="line"/>
      <point x="525" y="20" type="line"/>
      <point x="525" y="0" type="line"/>
      <point x="106" y="0" type="line"/>
      <point x="106" y="20" type="line"/>
      <point x="228" y="55" type="line"/>
      <point x="230" y="459" type="line"/>
      <point x="228" y="866" type="line"/>
      <point x="106" y="901" type="line"/>
      <point x="106" y="921" type="line"/>
      <point x="723" y="921" type="line"/>
      <point x="740" y="1007" type="line"/>
      <point x="794" y="1007" type="line"/>
    </contour>
  </outline>
</glyph>
<glyph name="kaverticalstrokecyr" format="2">
  <advance width="1234"/>
  <unicode hex="049D"/>
  <outline>
    <contour>
      <point x="230" y="459" type="line"/>
      <point x="228" y="866" type="line"/>
      <point x="106" y="901" type="line"/>
      <point x="106" y="921" type="line"/>
      <point x="501" y="921" type="line"/>
      <point x="501" y="901" type="line"/>
      <point x="387" y="866" type="line"/>
      <point x="385" y="459" type="line"/>
      <point x="387" y="55" type="line"/>
      <point x="501" y="20" type="line"/>
      <point x="501" y="0" type="line"/>
      <point x="106" y="0" type="line"/>
      <point x="106" y="20" type="line"/>
      <point x="228" y="55" type="line"/>
    </contour>
    <contour>
      <point x="572" y="450" type="line"/>
      <point x="669" y="450" type="line"/>
      <point x="971" y="861" type="line"/>
      <point x="818" y="901" type="line"/>
      <point x="818" y="921" type="line"/>
      <point x="1102" y="921" type="line"/>
      <point x="1102" y="901" type="line"/>
      <point x="1024" y="856" type="line"/>
      <point x="692" y="436" type="line"/>
      <point x="685" y="427" type="line"/>
      <point x="572" y="426" type="line"/>
    </contour>
    <contour>
      <point x="669" y="437" type="line"/>
      <point x="762" y="560" type="line"/>
      <point x="1144" y="55" type="line"/>
      <point x="1193" y="20" type="line"/>
      <point x="1193" y="0" type="line"/>
      <point x="917" y="0" type="line"/>
      <point x="916" y="20" type="line"/>
      <point x="963" y="50" type="line"/>
    </contour>
    <contour>
      <point x="586" y="186" type="line"/>
      <point x="560" y="186" type="line"/>
      <point x="560" y="751" type="line"/>
      <point x="586" y="751" type="line"/>
    </contour>
  </outline>
</glyph>
<glyph name="Kabashkircyr" format="2">
  <advance width="1527"/>
  <unicode hex="04A0"/>
  <outline>
    <contour>
      <point x="566" y="738" type="line"/>
      <point x="566" y="766" type="line"/>
      <point x="790" y="765" type="line"/>
      <point x="1276" y="1425" type="line"/>
      <point x="1043" y="1473" type="line"/>
      <point x="1043" y="1500" type="line"/>
      <point x="1435" y="1500" type="line"/>
      <point x="1435" y="1473" type="line"/>
      <point x="1315" y="1425" type="line"/>
      <point x="833" y="771" type="line"/>
      <point x="802" y="738" type="line"/>
    </contour>
    <contour>
      <point x="796" y="748" type="line"/>
      <point x="901" y="874" type="line"/>
      <point x="1466" y="59" type="line"/>
      <point x="1530" y="24" type="line"/>
      <point x="1530" y="0" type="line"/>
      <point x="1081" y="0" type="line"/>
      <point x="1081" y="24" type="line"/>
      <point x="1274" y="59" type="line"/>
    </contour>
    <contour>
      <point x="481" y="1474" type="line"/>
      <point x="146" y="1474" type="line"/>
      <point x="107" y="1125" type="line"/>
      <point x="79" y="1125" type="line"/>
      <point x="79" y="1500" type="line"/>
      <point x="805" y="1500" type="line"/>
      <point x="805" y="1473" type="line"/>
      <point x="649" y="1439" type="line"/>
      <point x="647" y="754" type="line"/>
      <point x="649" y="59" type="line"/>
      <point x="813" y="24" type="line"/>
      <point x="813" y="0" type="line"/>
      <point x="317" y="0" type="line"/>
      <point x="317" y="24" type="line"/>
      <point x="481" y="59" type="line"/>
      <point x="483" y="754" type="line"/>
    </contour>
  </outline>
</glyph>
<glyph name="Endescender" format="2">
  <advance width="1612"/>
  <unicode hex="04A2"/>
  <outline>
    <contour>
      <point x="1156" y="755" type="line"/>
      <point x="1154" y="1439" type="line"/>
      <point x="990" y="1473" type="line"/>
      <point x="990" y="1500" type="line"/>
      <point x="1486" y="1500" type="line"/>
      <point x="1486" y="1473" type="line"/>
      <point x="1322" y="1439" type="line"/>
      <point x="1320" y="755" type="line"/>
      <point x="1322" y="108" type="line"/>
      <point x="1447" y="108" type="line"/>
      <point x="1456" y="-297" type="line"/>
      <point x="1422" y="-297" type="line"/>
      <point x="1362" y="0" type="line"/>
      <point x="990" y="0" type="line"/>
      <point x="990" y="24" type="line"/>
      <point x="1154" y="59" type="line"/>
    </contour>
    <contour>
      <point x="126" y="0" type="line"/>
      <point x="126" y="24" type="line"/>
      <point x="290" y="59" type="line"/>
      <point x="292" y="755" type="line"/>
      <point x="290" y="1439" type="line"/>
      <point x="126" y="1473" type="line"/>
      <point x="126" y="1500" type="line"/>
      <point x="622" y="1500" type="line"/>
      <point x="622" y="1473" type="line"/>
      <point x="458" y="1439" type="line"/>
      <point x="456" y="755" type="line"/>
      <point x="458" y="59" type="line"/>
      <point x="622" y="24" type="line"/>
      <point x="622" y="0" type="line"/>
    </contour>
    <contour>
      <point x="374" y="771" type="line"/>
      <point x="374" y="803" type="line"/>
      <point x="754" y="799" type="line"/>
      <point x="1237" y="803" type="line"/>
      <point x="1237" y="771" type="line"/>
      <point x="754" y="771" type="line"/>
    </contour>
  </outline>
</glyph>
<glyph name="Tedescender-cy" format="2">
  <advance width="1175"/>
  <unicode hex="04AC"/>
  <outline>
    <contour>
      <point x="671" y="108" type="line"/>
      <point x="805" y="108" type="line"/>
      <point x="814" y="-297" type="line"/>
      <point x="780" y="-297" type="line"/>
      <point x="720" y="0" type="line"/>
      <point x="331" y="0" type="line"/>
      <point x="331" y="24" type="line"/>
      <point x="503" y="60" type="line"/>
      <point x="505" y="754" type="line"/>
      <point x="503" y="1454" type="line"/>
      <point x="494" y="1474" type="line"/>
      <point x="185" y="1474" type="line"/>
      <point x="154" y="1092" type="line"/>
      <point x="40" y="1092" type="line"/>
      <point x="40" y="1500" type="line"/>
      <point x="1135" y="1500" type="line"/>
      <point x="1135" y="1092" type="line"/>
      <point x="1021" y="1092" type="line"/>
      <point x="990" y="1474" type="line"/>
      <point x="690" y="1474" type="line"/>
      <point x="671" y="1454" type="line"/>
      <point x="669" y="754" type="line"/>
    </contour>
  </outline>
</glyph>
<glyph name="tedescender-cy" format="2">
  <advance width="1035"/>
  <unicode hex="04AD"/>
  <guideline x="302" y="625" angle="90.0" identifier="0glbwjr6f1"/>
  <guideline x="953" y="554" angle="90.0" identifier="41A0uQDzZV"/>
  <guideline x="627" y="553" angle="90.0" identifier="rA3XBl1QkZ"/>
  <outline>
    <contour>
      <point x="598" y="105" type="line"/>
      <point x="758" y="105" type="line"/>
      <point x="768" y="-318" type="line"/>
      <point x="676" y="-318" type="line"/>
      <point x="587" y="0" type="line"/>
      <point x="290" y="0" type="line"/>
      <point x="290" y="80" type="line"/>
      <point x="438" y="115" type="line"/>
      <point x="440" y="500" type="line"/>
      <point x="438" y="895" type="line"/>
      <point x="206" y="895" type="line"/>
      <point x="160" y="662" type="line"/>
      <point x="60" y="662" type="line"/>
      <point x="60" y="1000" type="line"/>
      <point x="975" y="1000" type="line"/>
      <point x="975" y="662" type="line"/>
      <point x="875" y="662" type="line"/>
      <point x="829" y="895" type="line"/>
      <point x="597" y="895" type="line"/>
      <point x="595" y="500" type="line"/>
    </contour>
  </outline>
</glyph>
<glyph name="ustraight" format="2">
  <advance width="1016"/>
  <unicode hex="04AF"/>
  <outline>
    <contour>
      <point x="-10" y="910" type="line"/>
      <point x="-10" y="1000" type="line"/>
      <point x="403" y="1000" type="line"/>
      <point x="403" y="910" type="line"/>
      <point x="270" y="873" type="line"/>
      <point x="397" y="477" type="line"/>
      <point x="518" y="131" type="line"/>
      <point x="643" y="482" type="line"/>
      <point x="767" y="880" type="line"/>
      <point x="630" y="910" type="line"/>
      <point x="630" y="1000" type="line"/>
      <point x="1046" y="1000" type="line"/>
      <point x="1046" y="910" type="line"/>
      <point x="898" y="875" type="line"/>
      <point x="745" y="441" type="line"/>
      <point x="585" y="-1" type="line"/>
      <point x="586" y="-365" type="line"/>
      <point x="734" y="-400" type="line"/>
      <point x="734" y="-480" type="line"/>
      <point x="279" y="-480" type="line"/>
      <point x="279" y="-400" type="line"/>
      <point x="427" y="-365" type="line"/>
      <point x="428" y="0" type="line"/>
      <point x="269" y="427" type="line"/>
      <point x="108" y="875" type="line"/>
    </contour>
  </outline>
</glyph>
<glyph name="Ustraightstroke" format="2">
  <advance width="1173"/>
  <unicode hex="04B0"/>
  <outline>
    <contour>
      <point x="205" y="596" type="line"/>
      <point x="205" y="627" type="line"/>
      <point x="971" y="627" type="line"/>
      <point x="971" y="596" type="line"/>
    </contour>
    <contour>
      <point x="330" y="0" type="line"/>
      <point x="330" y="24" type="line"/>
      <point x="504" y="59" type="line"/>
      <point x="506" y="647" type="line"/>
      <point x="331" y="992" type="line"/>
      <point x="82" y="1446" type="line"/>
      <point x="4" y="1473" type="line"/>
      <point x="4" y="1500" type="line"/>
      <point x="450" y="1500" type="line"/>
      <point x="450" y="1473" type="line"/>
      <point x="279" y="1437" type="line"/>
      <point x="466" y="1063" type="line"/>
      <point x="653" y="710" type="line"/>
      <point x="663" y="710" type="line"/>
      <point x="833" y="1034" type="line"/>
      <point x="1045" y="1444" type="line"/>
      <point x="852" y="1473" type="line"/>
      <point x="852" y="1500" type="line"/>
      <point x="1167" y="1500" type="line"/>
      <point x="1167" y="1473" type="line"/>
      <point x="1086" y="1445" type="line"/>
      <point x="860" y="1024" type="line"/>
      <point x="670" y="652" type="line"/>
      <point x="672" y="59" type="line"/>
      <point x="844" y="24" type="line"/>
      <point x="844" y="0" type="line"/>
    </contour>
  </outline>
</glyph>
<glyph name="Hadescender" format="2">
  <advance width="1267"/>
  <unicode hex="04B2"/>
  <outline>
    <contour>
      <point x="1057" y="108" type="line"/>
      <point x="1226" y="108" type="line"/>
      <point x="1235" y="-297" type="line"/>
      <point x="1201" y="-297" type="line"/>
      <point x="1140" y="0" type="line"/>
      <point x="1057" y="0" type="line"/>
    </contour>
    <contour>
      <point x="16" y="0" type="line"/>
      <point x="16" y="24" type="line"/>
      <point x="98" y="59" type="line"/>
      <point x="548" y="779" type="line"/>
      <point x="132" y="1442" type="line"/>
      <point x="67" y="1473" type="line"/>
      <point x="67" y="1500" type="line"/>
      <point x="517" y="1500" type="line"/>
      <point x="517" y="1473" type="line"/>
      <point x="323" y="1440" type="line"/>
      <point x="613" y="987" type="line"/>
      <point x="674" y="886" type="line"/>
      <point x="684" y="886" type="line"/>
      <point x="745" y="990" type="line"/>
      <point x="1044" y="1447" type="line"/>
      <point x="848" y="1473" type="line"/>
      <point x="848" y="1500" type="line"/>
      <point x="1161" y="1500" type="line"/>
      <point x="1161" y="1473" type="line"/>
      <point x="1077" y="1442" type="line"/>
      <point x="695" y="839" type="line"/>
      <point x="1047" y="251" type="line"/>
      <point x="1047" y="0" type="line"/>
      <point x="801" y="0" type="line"/>
      <point x="801" y="24" type="line"/>
      <point x="988" y="59" type="line"/>
      <point x="627" y="639" type="line"/>
      <point x="570" y="736" type="line"/>
      <point x="560" y="736" type="line"/>
      <point x="502" y="638" type="line"/>
      <point x="131" y="54" type="line"/>
      <point x="319" y="24" type="line"/>
      <point x="319" y="0" type="line"/>
    </contour>
  </outline>
</glyph>
<glyph name="Chedescender-cy" format="2">
  <advance width="1554"/>
  <unicode hex="04B6"/>
  <outline>
    <contour>
      <point x="94" y="1473" type="line"/>
      <point x="94" y="1500" type="line"/>
      <point x="590" y="1500" type="line"/>
      <point x="590" y="1473" type="line"/>
      <point x="427" y="1439" type="line"/>
      <point x="426" y="1024" type="line" smooth="yes"/>
      <point x="426" y="829"/>
      <point x="604" y="668"/>
      <point x="798" y="668" type="qcurve" smooth="yes"/>
      <point x="902" y="668"/>
      <point x="1075" y="711"/>
      <point x="1168" y="748" type="qcurve"/>
      <point x="1168" y="721" type="line"/>
      <point x="1072" y="681"/>
      <point x="893" y="639"/>
      <point x="756" y="639" type="qcurve" smooth="yes"/>
      <point x="519" y="639"/>
      <point x="258" y="854"/>
      <point x="258" y="1131" type="qcurve" smooth="yes"/>
      <point x="258" y="1439" type="line"/>
    </contour>
    <contour>
      <point x="1264" y="108" type="line"/>
      <point x="1392" y="108" type="line"/>
      <point x="1401" y="-297" type="line"/>
      <point x="1367" y="-297" type="line"/>
      <point x="1307" y="0" type="line"/>
      <point x="916" y="0" type="line"/>
      <point x="916" y="24" type="line"/>
      <point x="1096" y="59" type="line"/>
      <point x="1098" y="754" type="line"/>
      <point x="1096" y="1439" type="line"/>
      <point x="932" y="1473" type="line"/>
      <point x="932" y="1500" type="line"/>
      <point x="1428" y="1500" type="line"/>
      <point x="1428" y="1473" type="line"/>
      <point x="1264" y="1439" type="line"/>
      <point x="1262" y="754" type="line"/>
      <point x="1264" y="108" type="line"/>
    </contour>
  </outline>
</glyph>
<glyph name="chedescender-cy" format="2">
  <advance width="1176"/>
  <unicode hex="04B7"/>
  <outline>
    <contour>
      <point x="367" y="580" type="line" smooth="yes"/>
      <point x="368" y="470"/>
      <point x="467" y="380"/>
      <point x="581" y="380" type="qcurve" smooth="yes"/>
      <point x="658" y="380"/>
      <point x="786" y="412"/>
      <point x="857" y="445" type="qcurve"/>
      <point x="857" y="423" type="line"/>
      <point x="787" y="389"/>
      <point x="643" y="357"/>
      <point x="545" y="357" type="qcurve" smooth="yes"/>
      <point x="388" y="357"/>
      <point x="213" y="508"/>
      <point x="211" y="657" type="qcurve" smooth="yes"/>
      <point x="209" y="866" type="line"/>
      <point x="76" y="901" type="line"/>
      <point x="76" y="921" type="line"/>
      <point x="482" y="921" type="line"/>
      <point x="482" y="901" type="line"/>
      <point x="368" y="866" type="line"/>
    </contour>
    <contour>
      <point x="944" y="0" type="line"/>
      <point x="647" y="0" type="line"/>
      <point x="647" y="20" type="line"/>
      <point x="778" y="55" type="line"/>
      <point x="780" y="387" type="line"/>
      <point x="778" y="866" type="line"/>
      <point x="664" y="901" type="line"/>
      <point x="664" y="921" type="line"/>
      <point x="1058" y="921" type="line"/>
      <point x="1058" y="901" type="line"/>
      <point x="936" y="866" type="line"/>
      <point x="934" y="464" type="line"/>
      <point x="936" y="105" type="line"/>
      <point x="1046" y="105" type="line"/>
      <point x="1051" y="-117" type="line"/>
      <point x="976" y="-117" type="line"/>
    </contour>
  </outline>
</glyph>
<glyph name="Shha" format="2">
  <advance width="1560"/>
  <unicode hex="04BA"/>
  <outline>
    <contour>
      <point x="622" y="1500" type="line"/>
      <point x="622" y="1473" type="line"/>
      <point x="458" y="1438" type="line"/>
      <point x="456" y="726" type="line"/>
      <point x="458" y="59" type="line"/>
      <point x="622" y="25" type="line"/>
      <point x="622" y="0" type="line"/>
      <point x="126" y="0" type="line"/>
      <point x="126" y="25" type="line"/>
      <point x="290" y="59" type="line"/>
      <point x="292" y="746" type="line"/>
      <point x="290" y="1438" type="line"/>
      <point x="126" y="1473" type="line"/>
      <point x="126" y="1500" type="line"/>
    </contour>
    <contour>
      <point x="1466" y="25" type="line"/>
      <point x="1466" y="0" type="line"/>
      <point x="970" y="0" type="line"/>
      <point x="970" y="25" type="line"/>
      <point x="1133" y="59" type="line"/>
      <point x="1134" y="509" type="line" smooth="yes"/>
      <point x="1134" y="704"/>
      <point x="952" y="865"/>
      <point x="752" y="865" type="qcurve" smooth="yes"/>
      <point x="645" y="865"/>
      <point x="470" y="822"/>
      <point x="374" y="785" type="qcurve"/>
      <point x="374" y="812" type="line"/>
      <point x="472" y="852"/>
      <point x="656" y="894"/>
      <point x="796" y="894" type="qcurve" smooth="yes"/>
      <point x="1038" y="894"/>
      <point x="1302" y="679"/>
      <point x="1302" y="419" type="qcurve" smooth="yes"/>
      <point x="1302" y="59" type="line"/>
    </contour>
  </outline>
</glyph>
<glyph name="obarcyr" format="2">
  <advance width="1056"/>
  <unicode hex="04E9"/>
  <outline>
    <contour>
      <point x="64" y="459" type="qcurve" smooth="yes"/>
      <point x="64" y="659"/>
      <point x="319" y="942"/>
      <point x="526" y="942" type="qcurve" smooth="yes"/>
      <point x="734" y="942"/>
      <point x="992" y="677"/>
      <point x="992" y="464" type="qcurve" smooth="yes"/>
      <point x="992" y="265"/>
      <point x="738" y="-22"/>
      <point x="531" y="-22" type="qcurve" smooth="yes"/>
      <point x="323" y="-22"/>
      <point x="64" y="244"/>
    </contour>
    <contour>
      <point x="231" y="478" type="qcurve" smooth="yes"/>
      <point x="232" y="315"/>
      <point x="393" y="88"/>
      <point x="524" y="88" type="qcurve" smooth="yes"/>
      <point x="668" y="88"/>
      <point x="824" y="295"/>
      <point x="824" y="465" type="qcurve" smooth="yes"/>
      <point x="824" y="622"/>
      <point x="661" y="826"/>
      <point x="526" y="826" type="qcurve" smooth="yes"/>
      <point x="383" y="826"/>
      <point x="230" y="640"/>
    </contour>
    <contour>
      <point x="148" y="532" type="line"/>
      <point x="526" y="529" type="line"/>
      <point x="907" y="532" type="line"/>
      <point x="907" y="427" type="line"/>
      <point x="526" y="429" type="line"/>
      <point x="148" y="427" type="line"/>
    </contour>
  </outline>
</glyph>
<glyph name="Hastroke-cy" format="2">
  <advance width="1255"/>
  <unicode hex="04FE"/>
  <outline>
    <contour>
      <point x="230" y="735" type="line"/>
      <point x="230" y="881" type="line"/>
      <point x="627" y="878" type="line"/>
      <point x="1011" y="881" type="line"/>
      <point x="1011" y="735" type="line"/>
      <point x="620" y="738" type="line"/>
    </contour>
    <contour>
      <point x="16" y="0" type="line"/>
      <point x="16" y="24" type="line"/>
      <point x="98" y="59" type="line"/>
      <point x="548" y="779" type="line"/>
      <point x="133" y="1442" type="line"/>
      <point x="67" y="1473" type="line"/>
      <point x="67" y="1500" type="line"/>
      <point x="517" y="1500" type="line"/>
      <point x="517" y="1473" type="line"/>
      <point x="323" y="1440" type="line"/>
      <point x="613" y="987" type="line"/>
      <point x="674" y="886" type="line"/>
      <point x="684" y="886" type="line"/>
      <point x="745" y="990" type="line"/>
      <point x="1045" y="1447" type="line"/>
      <point x="848" y="1473" type="line"/>
      <point x="848" y="1500" type="line"/>
      <point x="1161" y="1500" type="line"/>
      <point x="1161" y="1473" type="line"/>
      <point x="1078" y="1442" type="line"/>
      <point x="695" y="839" type="line"/>
      <point x="1179" y="59" type="line"/>
      <point x="1259" y="24" type="line"/>
      <point x="1259" y="0" type="line"/>
      <point x="801" y="0" type="line"/>
      <point x="801" y="24" type="line"/>
      <point x="990" y="59" type="line"/>
      <point x="627" y="639" type="line"/>
      <point x="570" y="736" type="line"/>
      <point x="560" y="736" type="line"/>
      <point x="502" y="638" type="line"/>
      <point x="130" y="54" type="line"/>
      <point x="319" y="24" type="line"/>
      <point x="319" y="0" type="line"/>
    </contour>
  </outline>
</glyph>
<glyph name="quoteleft" format="2">
  <advance width="593"/>
  <unicode hex="2018"/>
  <outline>
    <contour>
      <point x="437" y="1541" type="line"/>
      <point x="360" y="1499"/>
      <point x="228" y="1362"/>
      <point x="207" y="1271" type="qcurve"/>
      <point x="323" y="1307"/>
      <point x="449" y="1236"/>
      <point x="449" y="1163" type="qcurve" smooth="yes"/>
      <point x="449" y="1109"/>
      <point x="373" y="1036"/>
      <point x="314" y="1036" type="qcurve" smooth="yes"/>
      <point x="258" y="1036"/>
      <point x="168" y="1126"/>
      <point x="168" y="1199" type="qcurve" smooth="yes"/>
      <point x="168" y="1317"/>
      <point x="323" y="1506"/>
      <point x="425" y="1555" type="qcurve"/>
    </contour>
  </outline>
</glyph>
<glyph name="guilsinglleft" format="2">
  <advance width="847"/>
  <unicode hex="2039"/>
  <outline>
    <contour>
      <point x="25" y="624" type="line"/>
      <point x="116" y="674"/>
      <point x="591" y="935"/>
      <point x="757" y="1026" type="qcurve" smooth="yes"/>
      <point x="773" y="1035"/>
      <point x="790" y="1015"/>
      <point x="776" y="1004" type="qcurve" smooth="yes"/>
      <point x="651" y="902"/>
      <point x="304" y="644"/>
      <point x="262" y="612" type="qcurve"/>
      <point x="304" y="578"/>
      <point x="651" y="315"/>
      <point x="781" y="206" type="qcurve" smooth="yes"/>
      <point x="795" y="196"/>
      <point x="781" y="175"/>
      <point x="765" y="183" type="qcurve" smooth="yes"/>
      <point x="595" y="268"/>
      <point x="115" y="534"/>
      <point x="25" y="584" type="qcurve"/>
    </contour>
  </outline>
</glyph>
<glyph name="guilsinglright" format="2">
  <advance width="847"/>
  <unicode hex="203A"/>
  <outline>
    <contour>
      <point x="824" y="588" type="line"/>
      <point x="733" y="538"/>
      <point x="258" y="277"/>
      <point x="92" y="186" type="qcurve" smooth="yes"/>
      <point x="77" y="177"/>
      <point x="59" y="197"/>
      <point x="73" y="208" type="qcurve" smooth="yes"/>
      <point x="199" y="310"/>
      <point x="546" y="568"/>
      <point x="588" y="600" type="qcurve"/>
      <point x="546" y="634"/>
      <point x="198" y="897"/>
      <point x="68" y="1006" type="qcurve" smooth="yes"/>
      <point x="55" y="1016"/>
      <point x="69" y="1037"/>
      <point x="85" y="1029" type="qcurve" smooth="yes"/>
      <point x="255" y="944"/>
      <point x="735" y="678"/>
      <point x="824" y="628" type="qcurve"/>
    </contour>
  </outline>
</glyph>
<glyph name="trademark" format="2">
  <advance width="1821"/>
  <unicode hex="2122"/>
  <outline>
    <contour>
      <point x="79" y="1195" type="line"/>
      <point x="79" y="1500" type="line"/>
      <point x="799" y="1500" type="line"/>
      <point x="799" y="1195" type="line"/>
      <point x="775" y="1195" type="line"/>
      <point x="740" y="1474" type="line"/>
      <point x="543" y="1474" type="line"/>
      <point x="514" y="1454" type="line"/>
      <point x="512" y="1054" type="line"/>
      <point x="512" y="832" type="line"/>
      <point x="613" y="796" type="line"/>
      <point x="613" y="700" type="line"/>
      <point x="264" y="700" type="line"/>
      <point x="264" y="796" type="line"/>
      <point x="366" y="832" type="line"/>
      <point x="366" y="1054" type="line"/>
      <point x="364" y="1454" type="line"/>
      <point x="345" y="1474" type="line"/>
      <point x="137" y="1474" type="line"/>
      <point x="102" y="1195" type="line"/>
    </contour>
    <contour>
      <point x="897" y="702" type="line"/>
      <point x="897" y="795" type="line"/>
      <point x="990" y="830" type="line"/>
      <point x="992" y="1056" type="line"/>
      <point x="990" y="1358" type="line"/>
      <point x="897" y="1392" type="line"/>
      <point x="897" y="1500" type="line"/>
      <point x="1104" y="1500" type="line"/>
      <point x="1323" y="874" type="line"/>
      <point x="1548" y="1500" type="line"/>
      <point x="1747" y="1500" type="line"/>
      <point x="1747" y="1392" type="line"/>
      <point x="1662" y="1358" type="line"/>
      <point x="1660" y="1054" type="line"/>
      <point x="1662" y="828" type="line"/>
      <point x="1747" y="793" type="line"/>
      <point x="1747" y="700" type="line"/>
      <point x="1439" y="700" type="line"/>
      <point x="1439" y="793" type="line"/>
      <point x="1516" y="828" type="line"/>
      <point x="1518" y="1054" type="line"/>
      <point x="1516" y="1338" type="line"/>
      <point x="1281" y="692" type="line"/>
      <point x="1255" y="692" type="line"/>
      <point x="1013" y="1350" type="line"/>
      <point x="1013" y="1056" type="line"/>
      <point x="1013" y="830" type="line"/>
      <point x="1106" y="795" type="line"/>
      <point x="1106" y="702" type="line"/>
    </contour>
  </outline>
</glyph>
<glyph name="f_f_i" format="2">
  <advance width="1865"/>
  <unicode hex="FB03"/>
  <outline>
    <contour>
      <point x="84" y="0" type="line"/>
      <point x="84" y="20" type="line"/>
      <point x="222" y="55" type="line"/>
      <point x="224" y="527" type="line"/>
      <point x="221" y="873" type="line"/>
      <point x="61" y="875" type="line"/>
      <point x="58" y="897" type="line"/>
      <point x="223" y="915" type="line"/>
      <point x="226" y="1176" type="line" smooth="yes"/>
      <point x="228" y="1321"/>
      <point x="373" y="1466"/>
      <point x="471" y="1466" type="qcurve" smooth="yes"/>
      <point x="523" y="1466"/>
      <point x="602" y="1453"/>
      <point x="631" y="1446" type="qcurve" smooth="yes"/>
      <point x="655" y="1440" type="line"/>
      <point x="651" y="1415" type="line"/>
      <point x="624" y="1423" type="line" smooth="yes"/>
      <point x="607" y="1428"/>
      <point x="564" y="1436"/>
      <point x="537" y="1436" type="qcurve" smooth="yes"/>
      <point x="458" y="1436"/>
      <point x="371" y="1344"/>
      <point x="372" y="1223" type="qcurve" smooth="yes"/>
      <point x="374" y="915" type="line"/>
      <point x="843" y="915" type="line"/>
      <point x="846" y="1245" type="line" smooth="yes"/>
      <point x="847" y="1394"/>
      <point x="1015" y="1518"/>
      <point x="1112" y="1517" type="qcurve" smooth="yes"/>
      <point x="1185" y="1516"/>
      <point x="1277" y="1492"/>
      <point x="1308" y="1477" type="qcurve" smooth="yes"/>
      <point x="1330" y="1467" type="line"/>
      <point x="1324" y="1443" type="line"/>
      <point x="1296" y="1456" type="line" smooth="yes"/>
      <point x="1266" y="1469"/>
      <point x="1183" y="1489"/>
      <point x="1141" y="1489" type="qcurve" smooth="yes"/>
      <point x="1083" y="1489"/>
      <point x="991" y="1416"/>
      <point x="992" y="1292" type="qcurve" smooth="yes"/>
      <point x="994" y="916" type="line"/>
      <point x="1576" y="931" type="line"/>
      <point x="1623" y="931" type="line"/>
      <point x="1646" y="892" type="line"/>
      <point x="1639" y="527" type="line"/>
      <point x="1641" y="55" type="line"/>
      <point x="1780" y="20" type="line"/>
      <point x="1780" y="0" type="line"/>
      <point x="1352" y="0" type="line"/>
      <point x="1352" y="20" type="line"/>
      <point x="1482" y="55" type="line"/>
      <point x="1484" y="527" type="line"/>
      <point x="1477" y="875" type="line"/>
      <point x="1450" y="896" type="line"/>
      <point x="994" y="885" type="line"/>
      <point x="996" y="527" type="line"/>
      <point x="1010" y="55" type="line"/>
      <point x="1146" y="20" type="line"/>
      <point x="1146" y="0" type="line"/>
      <point x="720" y="0" type="line"/>
      <point x="720" y="20" type="line"/>
      <point x="842" y="55" type="line"/>
      <point x="844" y="527" type="line"/>
      <point x="841" y="874" type="line"/>
      <point x="374" y="890" type="line"/>
      <point x="376" y="527" type="line"/>
      <point x="390" y="55" type="line"/>
      <point x="517" y="20" type="line"/>
      <point x="517" y="0" type="line"/>
    </contour>
    <contour>
      <point x="1437" y="1251" type="qcurve" smooth="yes"/>
      <point x="1437" y="1306"/>
      <point x="1498" y="1367"/>
      <point x="1556" y="1367" type="qcurve" smooth="yes"/>
      <point x="1610" y="1367"/>
      <point x="1675" y="1303"/>
      <point x="1675" y="1251" type="qcurve" smooth="yes"/>
      <point x="1675" y="1195"/>
      <point x="1613" y="1135"/>
      <point x="1556" y="1135" type="qcurve" smooth="yes"/>
      <point x="1502" y="1135"/>
      <point x="1437" y="1199"/>
    </contour>
  </outline>
</glyph>
<glyph name="f_f_l" format="2">
  <advance width="1858"/>
  <unicode hex="FB04"/>
  <outline>
    <contour>
      <point x="84" y="0" type="line"/>
      <point x="84" y="20" type="line"/>
      <point x="222" y="55" type="line"/>
      <point x="224" y="527" type="line"/>
      <point x="221" y="872" type="line"/>
      <point x="62" y="875" type="line"/>
      <point x="58" y="896" type="line"/>
      <point x="223" y="914" type="line"/>
      <point x="226" y="1176" type="line" smooth="yes"/>
      <point x="228" y="1321"/>
      <point x="374" y="1466"/>
      <point x="473" y="1466" type="qcurve" smooth="yes"/>
      <point x="515" y="1466"/>
      <point x="597" y="1453"/>
      <point x="629" y="1446" type="qcurve" smooth="yes"/>
      <point x="655" y="1440" type="line"/>
      <point x="652" y="1415" type="line"/>
      <point x="627" y="1422" type="line" smooth="yes"/>
      <point x="603" y="1429"/>
      <point x="560" y="1436"/>
      <point x="538" y="1436" type="qcurve" smooth="yes"/>
      <point x="459" y="1436"/>
      <point x="371" y="1344"/>
      <point x="372" y="1223" type="qcurve" smooth="yes"/>
      <point x="374" y="915" type="line"/>
      <point x="843" y="915" type="line"/>
      <point x="847" y="1301" type="line" smooth="yes"/>
      <point x="848" y="1400"/>
      <point x="974" y="1515"/>
      <point x="1072" y="1515" type="qcurve" smooth="yes"/>
      <point x="1117" y="1515"/>
      <point x="1175" y="1504"/>
      <point x="1200" y="1495" type="qcurve" smooth="yes"/>
      <point x="1228" y="1485" type="line"/>
      <point x="1574" y="1512" type="line"/>
      <point x="1611" y="1510" type="line"/>
      <point x="1634" y="1479" type="line"/>
      <point x="1632" y="527" type="line"/>
      <point x="1634" y="55" type="line"/>
      <point x="1764" y="20" type="line"/>
      <point x="1764" y="0" type="line"/>
      <point x="1358" y="0" type="line"/>
      <point x="1358" y="20" type="line"/>
      <point x="1475" y="55" type="line"/>
      <point x="1477" y="527" type="line"/>
      <point x="1475" y="1357" type="line"/>
      <point x="1205" y="1397" type="line" smooth="yes"/>
      <point x="1191" y="1437"/>
      <point x="1157" y="1478"/>
      <point x="1122" y="1478" type="qcurve" smooth="yes"/>
      <point x="1064" y="1478"/>
      <point x="992" y="1414"/>
      <point x="992" y="1341" type="qcurve" smooth="yes"/>
      <point x="994" y="915" type="line"/>
      <point x="1280" y="915" type="line"/>
      <point x="1280" y="891" type="line"/>
      <point x="994" y="884" type="line"/>
      <point x="996" y="527" type="line"/>
      <point x="1010" y="55" type="line"/>
      <point x="1152" y="20" type="line"/>
      <point x="1152" y="0" type="line"/>
      <point x="728" y="0" type="line"/>
      <point x="728" y="20" type="line"/>
      <point x="842" y="55" type="line"/>
      <point x="844" y="527" type="line"/>
      <point x="841" y="861" type="line"/>
      <point x="831" y="882" type="line"/>
      <point x="374" y="889" type="line"/>
      <point x="376" y="527" type="line"/>
      <point x="390" y="55" type="line"/>
      <point x="524" y="20" type="line"/>
      <point x="524" y="0" type="line"/>
    </contour>
  </outline>
</glyph>
<glyph name="De.bgr" format="2">
  <advance width="1444"/>
  <outline>
    <contour>
      <point x="1105" y="14" type="line"/>
      <point x="884" y="670" type="line"/>
      <point x="706" y="1189" type="line"/>
      <point x="676" y="1293" type="line"/>
      <point x="668" y="1293" type="line"/>
      <point x="637" y="1189" type="line"/>
      <point x="455" y="666" type="line"/>
      <point x="238" y="14" type="line"/>
      <point x="202" y="14" type="line"/>
      <point x="442" y="713" type="line"/>
      <point x="708" y="1508" type="line"/>
      <point x="774" y="1508" type="line"/>
      <point x="1040" y="729" type="line"/>
      <point x="1291" y="14" type="line"/>
    </contour>
    <contour>
      <point x="1318" y="-297" type="line"/>
      <point x="1251" y="14" type="line"/>
      <point x="189" y="14" type="line"/>
      <point x="126" y="-297" type="line"/>
      <point x="92" y="-297" type="line"/>
      <point x="101" y="38" type="line"/>
      <point x="1343" y="38" type="line"/>
      <point x="1352" y="-297" type="line"/>
    </contour>
  </outline>
</glyph>
<glyph name="be.locl" format="2">
  <advance width="1144"/>
  <outline>
    <contour>
      <point x="232" y="520" type="qcurve" smooth="yes"/>
      <point x="233" y="339"/>
      <point x="417" y="88"/>
      <point x="568" y="88" type="qcurve" smooth="yes"/>
      <point x="730" y="88"/>
      <point x="906" y="317"/>
      <point x="906" y="506" type="qcurve" smooth="yes"/>
      <point x="906" y="680"/>
      <point x="722" y="906"/>
      <point x="570" y="906" type="qcurve" smooth="yes"/>
      <point x="406" y="906"/>
      <point x="231" y="700"/>
    </contour>
    <contour>
      <point x="64" y="500" type="qcurve" smooth="yes"/>
      <point x="64" y="661"/>
      <point x="231" y="911"/>
      <point x="410" y="969" type="qcurve"/>
      <point x="411" y="973" type="line"/>
      <point x="283" y="1000"/>
      <point x="155" y="1121"/>
      <point x="155" y="1228" type="qcurve" smooth="yes"/>
      <point x="155" y="1342"/>
      <point x="331" y="1479"/>
      <point x="528" y="1479" type="qcurve" smooth="yes"/>
      <point x="639" y="1479" type="line" smooth="yes"/>
      <point x="782" y="1480"/>
      <point x="911" y="1502"/>
      <point x="920" y="1537" type="qcurve"/>
      <point x="1000" y="1537" type="line"/>
      <point x="989" y="1426"/>
      <point x="835" y="1328"/>
      <point x="651" y="1327" type="qcurve" smooth="yes"/>
      <point x="546" y="1327" type="line" smooth="yes"/>
      <point x="373" y="1327"/>
      <point x="277" y="1266"/>
      <point x="277" y="1200" type="qcurve" smooth="yes"/>
      <point x="277" y="1122"/>
      <point x="465" y="1048"/>
      <point x="625" y="1020" type="qcurve" smooth="yes"/>
      <point x="856" y="981"/>
      <point x="1080" y="710"/>
      <point x="1080" y="506" type="qcurve" smooth="yes"/>
      <point x="1080" y="290"/>
      <point x="802" y="-22"/>
      <point x="576" y="-22" type="qcurve" smooth="yes"/>
      <point x="348" y="-22"/>
      <point x="64" y="267"/>
    </contour>
  </outline>
</glyph>
<glyph name="che.bgr" format="2">
  <advance width="1159"/>
  <outline>
    <contour>
      <point x="642" y="0" type="line"/>
      <point x="642" y="20" type="line"/>
      <point x="773" y="55" type="line"/>
      <point x="775" y="460" type="line"/>
      <point x="773" y="839" type="line"/>
      <point x="659" y="869" type="line"/>
      <point x="659" y="896" type="line"/>
      <point x="871" y="926" type="line"/>
      <point x="906" y="926" type="line"/>
      <point x="931" y="890" type="line"/>
      <point x="929" y="461" type="line"/>
      <point x="931" y="55" type="line"/>
      <point x="1053" y="20" type="line"/>
      <point x="1053" y="0" type="line"/>
    </contour>
    <contour>
      <point x="363" y="890" type="line"/>
      <point x="362" y="595" type="line" smooth="yes"/>
      <point x="361" y="475"/>
      <point x="464" y="377"/>
      <point x="574" y="377" type="qcurve" smooth="yes"/>
      <point x="656" y="377"/>
      <point x="781" y="409"/>
      <point x="852" y="442" type="qcurve"/>
      <point x="852" y="419" type="line"/>
      <point x="781" y="386"/>
      <point x="642" y="353"/>
      <point x="537" y="353" type="qcurve" smooth="yes"/>
      <point x="380" y="353"/>
      <point x="210" y="505"/>
      <point x="206" y="671" type="qcurve" smooth="yes"/>
      <point x="204" y="839" type="line"/>
      <point x="82" y="869" type="line"/>
      <point x="82" y="896" type="line"/>
      <point x="303" y="926" type="line"/>
      <point x="338" y="926" type="line"/>
    </contour>
  </outline>
</glyph>
<glyph name="de.bgr" format="2">
  <advance width="1165"/>
  <outline>
    <contour>
      <point x="240" y="503" type="qcurve" smooth="yes"/>
      <point x="240" y="320"/>
      <point x="404" y="117"/>
      <point x="536" y="117" type="qcurve" smooth="yes"/>
      <point x="630" y="117"/>
      <point x="775" y="188"/>
      <point x="819" y="247" type="qcurve"/>
      <point x="821" y="809" type="line"/>
      <point x="786" y="859"/>
      <point x="657" y="917"/>
      <point x="561" y="917" type="qcurve" smooth="yes"/>
      <point x="419" y="917"/>
      <point x="240" y="678"/>
    </contour>
    <contour>
      <point x="240" y="-446" type="qcurve"/>
      <point x="217" y="-496" type="line"/>
      <point x="122" y="-496" type="line"/>
      <point x="122" y="-144" type="line"/>
      <point x="219" y="-144" type="line"/>
      <point x="236" y="-205" type="line" smooth="yes"/>
      <point x="260" y="-290"/>
      <point x="371" y="-401"/>
      <point x="493" y="-401" type="qcurve" smooth="yes"/>
      <point x="639" y="-401"/>
      <point x="813" y="-213"/>
      <point x="816" y="3" type="qcurve" smooth="yes"/>
      <point x="818" y="131" type="line"/>
      <point x="765" y="68"/>
      <point x="598" y="-9"/>
      <point x="489" y="-9" type="qcurve" smooth="yes"/>
      <point x="310" y="-9"/>
      <point x="68" y="254"/>
      <point x="68" y="478" type="qcurve" smooth="yes"/>
      <point x="68" y="722"/>
      <point x="333" y="1020"/>
      <point x="548" y="1020" type="qcurve" smooth="yes"/>
      <point x="630" y="1020"/>
      <point x="786" y="971"/>
      <point x="834" y="933" type="qcurve"/>
      <point x="891" y="1010" type="line"/>
      <point x="1125" y="975" type="line"/>
      <point x="1125" y="882" type="line"/>
      <point x="976" y="848" type="line"/>
      <point x="969" y="428" type="line"/>
      <point x="972" y="21" type="line" smooth="yes"/>
      <point x="974" y="-255"/>
      <point x="724" y="-512"/>
      <point x="494" y="-512" type="qcurve" smooth="yes"/>
      <point x="401" y="-512"/>
      <point x="279" y="-473"/>
    </contour>
  </outline>
</glyph>
<glyph name="diagonalbaro" format="2">
  <advance width="376"/>
  <outline>
    <contour>
      <point x="0" y="-122" type="line"/>
      <point x="50" y="64" type="line"/>
      <point x="53" y="63" type="line"/>
      <point x="193" y="536" type="line"/>
      <point x="216" y="526" type="line"/>
      <point x="80" y="60" type="line"/>
      <point x="84" y="59" type="line"/>
      <point x="34" y="-123" type="line"/>
    </contour>
    <contour>
      <point x="341" y="1065" type="line"/>
      <point x="376" y="1065" type="line"/>
      <point x="332" y="902" type="line"/>
      <point x="329" y="902" type="line"/>
      <point x="216" y="526" type="line"/>
      <point x="193" y="536" type="line"/>
      <point x="302" y="906" type="line"/>
      <point x="298" y="906" type="line"/>
    </contour>
  </outline>
</glyph>
<glyph name="dieresistonoscomb" format="2">
  <anchor x="0" y="1000" name="_GRKtop"/>
  <outline>
    <contour>
      <point x="-263" y="1155" type="qcurve" smooth="yes"/>
      <point x="-314" y="1155"/>
      <point x="-374" y="1214"/>
      <point x="-374" y="1263" type="qcurve" smooth="yes"/>
      <point x="-374" y="1316"/>
      <point x="-317" y="1373"/>
      <point x="-263" y="1373" type="qcurve" smooth="yes"/>
      <point x="-212" y="1373"/>
      <point x="-151" y="1312"/>
      <point x="-151" y="1263" type="qcurve" smooth="yes"/>
      <point x="-151" y="1211"/>
      <point x="-208" y="1155"/>
    </contour>
    <contour>
      <point x="29" y="1145" type="line"/>
      <point x="-64" y="1164" type="line"/>
      <point x="96" y="1601" type="line"/>
      <point x="129" y="1604" type="line"/>
      <point x="127" y="1563" type="line"/>
    </contour>
    <contour>
      <point x="299" y="1155" type="qcurve" smooth="yes"/>
      <point x="248" y="1155"/>
      <point x="187" y="1214"/>
      <point x="187" y="1263" type="qcurve" smooth="yes"/>
      <point x="187" y="1316"/>
      <point x="245" y="1373"/>
      <point x="299" y="1373" type="qcurve" smooth="yes"/>
      <point x="350" y="1373"/>
      <point x="410" y="1312"/>
      <point x="410" y="1263" type="qcurve" smooth="yes"/>
      <point x="410" y="1211"/>
      <point x="354" y="1155"/>
    </contour>
  </outline>
</glyph>
<glyph name="en.bgr" format="2">
  <advance width="1254"/>
  <outline>
    <contour>
      <point x="307" y="574" type="line"/>
      <point x="626" y="571" type="line"/>
      <point x="946" y="574" type="line"/>
      <point x="946" y="469" type="line"/>
      <point x="626" y="471" type="line"/>
      <point x="307" y="469" type="line"/>
    </contour>
    <contour>
      <point x="80" y="0" type="line"/>
      <point x="80" y="80" type="line"/>
      <point x="228" y="115" type="line"/>
      <point x="230" y="500" type="line"/>
      <point x="228" y="842" type="line"/>
      <point x="80" y="872" type="line"/>
      <point x="80" y="966" type="line"/>
      <point x="327" y="1000" type="line"/>
      <point x="362" y="1000" type="line"/>
      <point x="387" y="964" type="line"/>
      <point x="385" y="500" type="line"/>
      <point x="387" y="115" type="line"/>
      <point x="525" y="80" type="line"/>
      <point x="525" y="0" type="line"/>
    </contour>
    <contour>
      <point x="729" y="0" type="line"/>
      <point x="729" y="80" type="line"/>
      <point x="867" y="115" type="line"/>
      <point x="869" y="500" type="line"/>
      <point x="867" y="842" type="line"/>
      <point x="729" y="872" type="line"/>
      <point x="729" y="966" type="line"/>
      <point x="966" y="1000" type="line"/>
      <point x="1001" y="1000" type="line"/>
      <point x="1026" y="964" type="line"/>
      <point x="1024" y="500" type="line"/>
      <point x="1026" y="115" type="line"/>
      <point x="1174" y="80" type="line"/>
      <point x="1174" y="0" type="line"/>
    </contour>
  </outline>
</glyph>
<glyph name="engn" format="2">
  <advance width="1150"/>
  <outline>
    <contour>
      <point x="76" y="0" type="line"/>
      <point x="76" y="80" type="line"/>
      <point x="224" y="115" type="line"/>
      <point x="226" y="442" type="line"/>
      <point x="224" y="763" type="line"/>
      <point x="76" y="793" type="line"/>
      <point x="76" y="887" type="line"/>
      <point x="323" y="921" type="line"/>
      <point x="358" y="894" type="line"/>
      <point x="383" y="775" type="line"/>
      <point x="434" y="848"/>
      <point x="603" y="942"/>
      <point x="694" y="942" type="qcurve" smooth="yes"/>
      <point x="832" y="942"/>
      <point x="972" y="793"/>
      <point x="972" y="663" type="qcurve" smooth="yes"/>
      <point x="972" y="595"/>
      <point x="969" y="462"/>
      <point x="969" y="442" type="qcurve"/>
      <point x="970" y="0" type="line"/>
      <point x="815" y="0" type="line"/>
      <point x="815" y="442" type="line"/>
      <point x="815" y="718" type="line" smooth="yes"/>
      <point x="815" y="801"/>
      <point x="722" y="893"/>
      <point x="643" y="893" type="qcurve" smooth="yes"/>
      <point x="564" y="893"/>
      <point x="422" y="809"/>
      <point x="382" y="741" type="qcurve"/>
      <point x="381" y="442" type="line"/>
      <point x="383" y="115" type="line"/>
      <point x="521" y="80" type="line"/>
      <point x="521" y="0" type="line"/>
    </contour>
  </outline>
</glyph>
<glyph name="ghe.bgr" format="2">
  <advance width="864"/>
  <outline>
    <contour>
      <point x="812" y="0" type="line"/>
      <point x="812" y="339" type="line"/>
      <point x="705" y="339" type="line"/>
      <point x="694" y="280" type="line" smooth="yes"/>
      <point x="678" y="193"/>
      <point x="537" y="89"/>
      <point x="419" y="89" type="qcurve" smooth="yes"/>
      <point x="320" y="89"/>
      <point x="209" y="176"/>
      <point x="209" y="240" type="qcurve" smooth="yes"/>
      <point x="209" y="320"/>
      <point x="326" y="406"/>
      <point x="466" y="459" type="qcurve" smooth="yes"/>
      <point x="643" y="526"/>
      <point x="778" y="669"/>
      <point x="778" y="777" type="qcurve" smooth="yes"/>
      <point x="778" y="884"/>
      <point x="625" y="1022"/>
      <point x="459" y="1022" type="qcurve" smooth="yes"/>
      <point x="383" y="1022"/>
      <point x="279" y="989"/>
      <point x="242" y="959" type="qcurve"/>
      <point x="226" y="1000" type="line"/>
      <point x="135" y="1000" type="line"/>
      <point x="135" y="704" type="line"/>
      <point x="241" y="704" type="line"/>
      <point x="255" y="784" type="line" smooth="yes"/>
      <point x="265" y="841"/>
      <point x="363" y="911"/>
      <point x="459" y="911" type="qcurve" smooth="yes"/>
      <point x="537" y="911"/>
      <point x="619" y="849"/>
      <point x="619" y="783" type="qcurve" smooth="yes"/>
      <point x="619" y="711"/>
      <point x="496" y="607"/>
      <point x="343" y="557" type="qcurve" smooth="yes"/>
      <point x="174" y="502"/>
      <point x="50" y="357"/>
      <point x="50" y="258" type="qcurve" smooth="yes"/>
      <point x="50" y="139"/>
      <point x="233" y="-21"/>
      <point x="399" y="-21" type="qcurve" smooth="yes"/>
      <point x="494" y="-21"/>
      <point x="629" y="23"/>
      <point x="682" y="73" type="qcurve"/>
      <point x="721" y="0" type="line"/>
    </contour>
  </outline>
</glyph>
<glyph name="hard.bgr" format="2">
  <advance width="946"/>
  <outline>
    <contour>
      <point x="514" y="3" type="qcurve" smooth="yes"/>
      <point x="619" y="3"/>
      <point x="713" y="142"/>
      <point x="713" y="262" type="qcurve" smooth="yes"/>
      <point x="713" y="369"/>
      <point x="621" y="523"/>
      <point x="507" y="523" type="qcurve" smooth="yes"/>
      <point x="350" y="523" type="line"/>
      <point x="353" y="546" type="line"/>
      <point x="507" y="546" type="line" smooth="yes"/>
      <point x="687" y="546"/>
      <point x="886" y="399"/>
      <point x="886" y="274" type="qcurve" smooth="yes"/>
      <point x="886" y="141"/>
      <point x="692" y="-20"/>
      <point x="515" y="-22" type="qcurve" smooth="yes"/>
      <point x="343" y="-25"/>
      <point x="164" y="135"/>
      <point x="164" y="269" type="qcurve" smooth="yes"/>
      <point x="164" y="366"/>
      <point x="259" y="534"/>
      <point x="377" y="662" type="qcurve" smooth="yes"/>
      <point x="598" y="895" type="line"/>
      <point x="157" y="895" type="line"/>
      <point x="135" y="756" type="line"/>
      <point x="83" y="756" type="line"/>
      <point x="83" y="921" type="line"/>
      <point x="648" y="921" type="line"/>
      <point x="648" y="899" type="line"/>
      <point x="435" y="608" type="line" smooth="yes"/>
      <point x="357" y="502"/>
      <point x="321" y="341"/>
      <point x="321" y="231" type="qcurve" smooth="yes"/>
      <point x="321" y="119"/>
      <point x="415" y="3"/>
    </contour>
  </outline>
</glyph>
<glyph name="hornU" format="2">
  <advance width="1424"/>
  <anchor x="1210" y="1500" name="topright"/>
  <anchor x="734" y="1500" name="top"/>
  <outline>
    <contour>
      <point x="50" y="1473" type="line"/>
      <point x="50" y="1500" type="line"/>
      <point x="539" y="1500" type="line"/>
      <point x="539" y="1473" type="line"/>
      <point x="375" y="1439" type="line"/>
      <point x="371" y="794" type="line"/>
      <point x="374" y="416" type="line" smooth="yes"/>
      <point x="375" y="224"/>
      <point x="571" y="1"/>
      <point x="727" y="1" type="qcurve" smooth="yes"/>
      <point x="877" y="1"/>
      <point x="1069" y="213"/>
      <point x="1070" y="433" type="qcurve" smooth="yes"/>
      <point x="1072" y="794" type="line"/>
      <point x="1070" y="1439" type="line"/>
      <point x="898" y="1473" type="line"/>
      <point x="898" y="1500" type="line"/>
      <point x="1103" y="1500" type="line"/>
      <point x="1101" y="794" type="line"/>
      <point x="1104" y="462" type="line" smooth="yes"/>
      <point x="1106" y="198"/>
      <point x="888" y="-31"/>
      <point x="716" y="-31" type="qcurve" smooth="yes"/>
      <point x="485" y="-31"/>
      <point x="204" y="239"/>
      <point x="206" y="481" type="qcurve" smooth="yes"/>
      <point x="208" y="794" type="line"/>
      <point x="206" y="1439" type="line"/>
    </contour>
  </outline>
</glyph>
<glyph name="jdotless" format="2">
  <advance width="475"/>
  <anchor x="233" y="-436" name="bottom"/>
  <anchor x="231" y="910" name="top"/>
  <outline>
    <contour>
      <point x="-23" y="-459" type="qcurve"/>
      <point x="-23" y="-431" type="line"/>
      <point x="90" y="-426"/>
      <point x="179" y="-303"/>
      <point x="179" y="-131" type="qcurve" smooth="yes"/>
      <point x="178" y="448" type="line"/>
      <point x="172" y="833" type="line"/>
      <point x="33" y="864" type="line"/>
      <point x="33" y="891" type="line"/>
      <point x="270" y="921" type="line"/>
      <point x="317" y="921" type="line"/>
      <point x="340" y="882" type="line"/>
      <point x="334" y="448" type="line"/>
      <point x="336" y="-108" type="line" smooth="yes"/>
      <point x="337" y="-286"/>
      <point x="165" y="-470"/>
    </contour>
  </outline>
</glyph>
<glyph name="kai-tail" format="2">
  <advance width="1073"/>
  <outline>
    <contour>
      <point x="486" y="-510" type="qcurve" smooth="yes"/>
      <point x="322" y="-510"/>
      <point x="50" y="-354"/>
      <point x="-34" y="-192" type="qcurve"/>
      <point x="42" y="-136" type="line"/>
      <point x="103" y="-258"/>
      <point x="321" y="-479"/>
      <point x="496" y="-479" type="qcurve" smooth="yes"/>
      <point x="714" y="-479"/>
      <point x="930" y="-165"/>
      <point x="933" y="85" type="qcurve"/>
      <point x="1057" y="85" type="line"/>
      <point x="1074" y="-130"/>
      <point x="760" y="-510"/>
    </contour>
  </outline>
</glyph>
<glyph name="macroncomb.case" format="2">
  <advance width="307"/>
  <anchor x="154" y="1500" name="_top"/>
  <anchor x="154" y="1774" name="top"/>
  <outline>
    <contour>
      <point x="-142" y="1640" type="line"/>
      <point x="-142" y="1774" type="line"/>
      <point x="450" y="1774" type="line"/>
      <point x="450" y="1640" type="line"/>
    </contour>
  </outline>
</glyph>
<glyph name="ringcomb.case" format="2">
  <anchor x="0" y="1500" name="_top"/>
  <anchor x="0" y="2056" name="top"/>
  <outline>
    <contour>
      <point x="-192" y="1848" type="qcurve" smooth="yes"/>
      <point x="-192" y="1928"/>
      <point x="-81" y="2031"/>
      <point x="0" y="2031" type="qcurve" smooth="yes"/>
      <point x="80" y="2031"/>
      <point x="192" y="1923"/>
      <point x="192" y="1848" type="qcurve" smooth="yes"/>
      <point x="192" y="1769"/>
      <point x="81" y="1665"/>
      <point x="0" y="1665" type="qcurve" smooth="yes"/>
      <point x="-81" y="1665"/>
      <point x="-192" y="1770"/>
    </contour>
    <contour>
      <point x="-167" y="1848" type="qcurve" smooth="yes"/>
      <point x="-167" y="1781"/>
      <point x="-70" y="1689"/>
      <point x="0" y="1689" type="qcurve" smooth="yes"/>
      <point x="72" y="1689"/>
      <point x="167" y="1780"/>
      <point x="167" y="1848" type="qcurve" smooth="yes"/>
      <point x="167" y="1911"/>
      <point x="70" y="2007"/>
      <point x="0" y="2007" type="qcurve" smooth="yes"/>
      <point x="-72" y="2007"/>
      <point x="-167" y="1918"/>
    </contour>
  </outline>
</glyph>
